%TF.GenerationSoftware,KiCad,Pcbnew,10.0.3*%
%TF.CreationDate,2026-09-07T17:28:37-03:00*%
%TF.ProjectId,Placa Control Fuentes y Carga,506c6163-6120-4436-9f6e-74726f6c2046,rev?*%
%TF.SameCoordinates,Original*%
%TF.FileFunction,Soldermask,Top*%
%TF.FilePolarity,Negative*%
%FSLAX46Y46*%
G04 Gerber Fmt 4.6, Leading zero omitted, Abs format (unit mm)*
G04 Created by KiCad (PCBNEW 10.0.3) date 2026-09-07 17:28:37*
%MOMM*%
%LPD*%
G01*
G04 APERTURE LIST*
G04 Aperture macros list*
%AMRoundRect*
0 Rectangle with rounded corners*
0 $1 Rounding radius*
0 $2 $3 $4 $5 $6 $7 $8 $9 X,Y pos of 4 corners*
0 Add a 4 corners polygon primitive as box body*
4,1,4,$2,$3,$4,$5,$6,$7,$8,$9,$2,$3,0*
0 Add four circle primitives for the rounded corners*
1,1,$1+$1,$2,$3*
1,1,$1+$1,$4,$5*
1,1,$1+$1,$6,$7*
1,1,$1+$1,$8,$9*
0 Add four rect primitives between the rounded corners*
20,1,$1+$1,$2,$3,$4,$5,0*
20,1,$1+$1,$4,$5,$6,$7,0*
20,1,$1+$1,$6,$7,$8,$9,0*
20,1,$1+$1,$8,$9,$2,$3,0*%
G04 Aperture macros list end*
%ADD10C,1.600000*%
%ADD11RoundRect,0.275000X0.275000X0.625000X-0.275000X0.625000X-0.275000X-0.625000X0.275000X-0.625000X0*%
%ADD12R,1.100000X1.800000*%
%ADD13C,2.600000*%
%ADD14RoundRect,0.250000X1.050000X1.050000X-1.050000X1.050000X-1.050000X-1.050000X1.050000X-1.050000X0*%
%ADD15RoundRect,0.275000X-0.275000X-0.625000X0.275000X-0.625000X0.275000X0.625000X-0.275000X0.625000X0*%
%ADD16R,2.184400X2.184400*%
%ADD17RoundRect,0.250000X-1.050000X-1.050000X1.050000X-1.050000X1.050000X1.050000X-1.050000X1.050000X0*%
%ADD18R,1.574800X1.574800*%
%ADD19C,1.574800*%
%ADD20C,2.000000*%
%ADD21C,6.400000*%
%ADD22C,2.500000*%
%ADD23C,1.371600*%
%ADD24RoundRect,0.102000X0.754000X-0.754000X0.754000X0.754000X-0.754000X0.754000X-0.754000X-0.754000X0*%
%ADD25C,1.712000*%
%ADD26C,1.710000*%
%ADD27R,1.625600X1.625600*%
%ADD28C,1.625600*%
%ADD29RoundRect,0.150000X0.150000X-0.875000X0.150000X0.875000X-0.150000X0.875000X-0.150000X-0.875000X0*%
%ADD30C,1.346200*%
%ADD31C,3.000000*%
%ADD32RoundRect,0.249999X-0.850001X-0.850001X0.850001X-0.850001X0.850001X0.850001X-0.850001X0.850001X0*%
%ADD33C,2.200000*%
%ADD34RoundRect,0.250000X-0.550000X0.550000X-0.550000X-0.550000X0.550000X-0.550000X0.550000X0.550000X0*%
%ADD35RoundRect,0.200000X0.200000X-0.750000X0.200000X0.750000X-0.200000X0.750000X-0.200000X-0.750000X0*%
%ADD36R,1.700000X1.700000*%
%ADD37C,1.700000*%
%ADD38C,2.400000*%
%ADD39R,1.371600X1.371600*%
%ADD40RoundRect,0.249999X-0.850001X0.850001X-0.850001X-0.850001X0.850001X-0.850001X0.850001X0.850001X0*%
%ADD41RoundRect,0.250000X1.350000X-1.350000X1.350000X1.350000X-1.350000X1.350000X-1.350000X-1.350000X0*%
%ADD42C,3.200000*%
%ADD43RoundRect,0.250000X1.050000X-1.050000X1.050000X1.050000X-1.050000X1.050000X-1.050000X-1.050000X0*%
%ADD44R,1.905000X2.000000*%
%ADD45O,1.905000X2.000000*%
%ADD46RoundRect,0.250000X0.750000X1.250000X-0.750000X1.250000X-0.750000X-1.250000X0.750000X-1.250000X0*%
%ADD47O,2.000000X3.000000*%
%ADD48RoundRect,0.250000X-1.350000X1.350000X-1.350000X-1.350000X1.350000X-1.350000X1.350000X1.350000X0*%
%ADD49RoundRect,0.150000X0.150000X-0.825000X0.150000X0.825000X-0.150000X0.825000X-0.150000X-0.825000X0*%
%ADD50C,1.440000*%
%ADD51RoundRect,0.250000X-0.550000X-0.550000X0.550000X-0.550000X0.550000X0.550000X-0.550000X0.550000X0*%
%ADD52RoundRect,0.250000X0.550000X-0.550000X0.550000X0.550000X-0.550000X0.550000X-0.550000X-0.550000X0*%
%ADD53RoundRect,0.150000X0.825000X0.150000X-0.825000X0.150000X-0.825000X-0.150000X0.825000X-0.150000X0*%
%ADD54RoundRect,0.250000X0.550000X0.550000X-0.550000X0.550000X-0.550000X-0.550000X0.550000X-0.550000X0*%
%ADD55R,1.050000X1.500000*%
%ADD56O,1.050000X1.500000*%
%ADD57R,2.000000X1.905000*%
%ADD58O,2.000000X1.905000*%
%ADD59RoundRect,0.150000X-0.150000X0.825000X-0.150000X-0.825000X0.150000X-0.825000X0.150000X0.825000X0*%
%ADD60R,1.600000X1.600000*%
%ADD61O,1.600000X1.600000*%
%ADD62C,0.050000*%
%ADD63C,0.152400*%
%ADD64C,0.025400*%
G04 APERTURE END LIST*
D10*
%TO.C,R12*%
X168600000Y-87990000D03*
X168600000Y-95610000D03*
%TD*%
%TO.C,R11*%
X152480000Y-90100000D03*
X160100000Y-90100000D03*
%TD*%
D11*
%TO.C,Q7*%
X118460000Y-60200000D03*
X119730000Y-62270000D03*
D12*
X121000000Y-60200000D03*
%TD*%
D10*
%TO.C,R15*%
X144700000Y-60780000D03*
X144700000Y-68400000D03*
%TD*%
%TO.C,R17*%
X124100000Y-67820000D03*
X124100000Y-60200000D03*
%TD*%
D13*
%TO.C,J7*%
X128720000Y-63800000D03*
D14*
X133800000Y-63800000D03*
%TD*%
D10*
%TO.C,R16*%
X147700000Y-68420000D03*
X147700000Y-60800000D03*
%TD*%
%TO.C,R14*%
X141700000Y-68400000D03*
X141700000Y-60780000D03*
%TD*%
D15*
%TO.C,Q6*%
X147270000Y-73170000D03*
X146000000Y-71100000D03*
D12*
X144730000Y-73170000D03*
%TD*%
D10*
%TO.C,R13*%
X138700000Y-68400000D03*
X138700000Y-60780000D03*
%TD*%
%TO.C,R22*%
X153700000Y-71080000D03*
X153700000Y-78700000D03*
%TD*%
%TO.C,R23*%
X166600000Y-75390000D03*
X166600000Y-83010000D03*
%TD*%
D16*
%TO.C,CR3*%
X187800000Y-68100000D03*
X184091600Y-68100000D03*
%TD*%
D10*
%TO.C,C20*%
X166900000Y-69400000D03*
X166900000Y-66900000D03*
%TD*%
D16*
%TO.C,CR1*%
X207200000Y-126991600D03*
X207200000Y-130700000D03*
%TD*%
D17*
%TO.C,J5*%
X186620000Y-141000000D03*
D13*
X191700000Y-141000000D03*
%TD*%
D18*
%TO.C,F2*%
X202307800Y-81805400D03*
D19*
X204492200Y-71594600D03*
%TD*%
D20*
%TO.C,TP12*%
X174700000Y-100400000D03*
%TD*%
D10*
%TO.C,R10*%
X114250000Y-134200000D03*
X114250000Y-141820000D03*
%TD*%
D21*
%TO.C,H3*%
X216900000Y-58600000D03*
%TD*%
D22*
%TO.C,TP9*%
X97800000Y-124500000D03*
%TD*%
D23*
%TO.C,C23*%
X182000000Y-119700000D03*
X177000000Y-119700000D03*
%TD*%
D24*
%TO.C,U9*%
X149500000Y-142120000D03*
D25*
X149500000Y-139580000D03*
X149500000Y-137040000D03*
X149500000Y-134500000D03*
%TD*%
D26*
%TO.C,F3*%
X107700000Y-84050000D03*
X108900000Y-78950000D03*
%TD*%
D10*
%TO.C,R20*%
X95990000Y-91400000D03*
X103610000Y-91400000D03*
%TD*%
D27*
%TO.C,D14*%
X114700000Y-71553200D03*
D28*
X114700000Y-57049800D03*
%TD*%
D10*
%TO.C,C19*%
X197700000Y-127000000D03*
X197700000Y-129500000D03*
%TD*%
D21*
%TO.C,H4*%
X216900000Y-146400000D03*
%TD*%
D10*
%TO.C,R7*%
X141610000Y-71400000D03*
X133990000Y-71400000D03*
%TD*%
D29*
%TO.C,U8*%
X93855000Y-118950000D03*
X95125000Y-118950000D03*
X96395000Y-118950000D03*
X97665000Y-118950000D03*
X98935000Y-118950000D03*
X100205000Y-118950000D03*
X101475000Y-118950000D03*
X102745000Y-118950000D03*
X102745000Y-109650000D03*
X101475000Y-109650000D03*
X100205000Y-109650000D03*
X98935000Y-109650000D03*
X97665000Y-109650000D03*
X96395000Y-109650000D03*
X95125000Y-109650000D03*
X93855000Y-109650000D03*
%TD*%
D22*
%TO.C,TP10*%
X101900000Y-124500000D03*
%TD*%
D10*
%TO.C,C4*%
X133800000Y-92150000D03*
X133800000Y-89650000D03*
%TD*%
D20*
%TO.C,TP19*%
X118000000Y-120300000D03*
%TD*%
D30*
%TO.C,R24*%
X79300000Y-78800000D03*
X77500000Y-86300000D03*
%TD*%
D12*
%TO.C,Q4*%
X164500000Y-86600000D03*
D11*
X163230000Y-88670000D03*
X161960000Y-86600000D03*
%TD*%
D27*
%TO.C,D15*%
X110853200Y-87600000D03*
D28*
X96349800Y-87600000D03*
%TD*%
D22*
%TO.C,U2*%
X112475000Y-91860000D03*
X112475000Y-125360000D03*
D20*
X112100000Y-104600000D03*
X112100000Y-102060000D03*
X112100000Y-99520000D03*
X112100000Y-96980000D03*
D31*
X72095000Y-94440000D03*
X72095000Y-99520000D03*
X72095000Y-104600000D03*
X72095000Y-109680000D03*
X72095000Y-114760000D03*
X72095000Y-119840000D03*
%TD*%
D17*
%TO.C,J1*%
X74220000Y-138200000D03*
D13*
X79300000Y-138200000D03*
%TD*%
D32*
%TO.C,D11*%
X175040000Y-75400000D03*
D33*
X185200000Y-75400000D03*
%TD*%
D22*
%TO.C,TP21*%
X150500000Y-67200000D03*
%TD*%
%TO.C,TP4*%
X116200000Y-144000000D03*
%TD*%
D34*
%TO.C,C17*%
X202100000Y-127000000D03*
D10*
X202100000Y-129000000D03*
%TD*%
%TO.C,R4*%
X83650000Y-138300000D03*
X96350000Y-138300000D03*
%TD*%
%TO.C,C6*%
X95600000Y-97250000D03*
X95600000Y-94750000D03*
%TD*%
D35*
%TO.C,D12*%
X103500000Y-81800000D03*
X105400000Y-81800000D03*
X104450000Y-78800000D03*
%TD*%
D10*
%TO.C,C5*%
X194450000Y-78400000D03*
X196950000Y-78400000D03*
%TD*%
%TO.C,C8*%
X91300000Y-116200000D03*
X91300000Y-118700000D03*
%TD*%
D36*
%TO.C,JP1*%
X166800000Y-61000000D03*
D37*
X166800000Y-63540000D03*
%TD*%
D26*
%TO.C,F4*%
X100000000Y-84050000D03*
X101200000Y-78950000D03*
%TD*%
D21*
%TO.C,H2*%
X64100000Y-58600000D03*
%TD*%
D38*
%TO.C,F6*%
X190300000Y-124500000D03*
D33*
X189050000Y-130900000D03*
X191550000Y-130900000D03*
X189050000Y-127400000D03*
X191550000Y-127400000D03*
X189050000Y-121600000D03*
X191550000Y-121600000D03*
X189050000Y-118100000D03*
X191550000Y-118100000D03*
%TD*%
D39*
%TO.C,C16*%
X177500000Y-140400000D03*
D23*
X177500000Y-145400000D03*
%TD*%
D36*
%TO.C,JP3*%
X203000000Y-90800000D03*
D37*
X203000000Y-88260000D03*
%TD*%
D34*
%TO.C,C21*%
X179000000Y-127600000D03*
D10*
X179000000Y-129600000D03*
%TD*%
D22*
%TO.C,TP18*%
X92800000Y-142200000D03*
%TD*%
D20*
%TO.C,TP20*%
X118000000Y-116600000D03*
%TD*%
%TO.C,TP24*%
X141500000Y-74800000D03*
%TD*%
D40*
%TO.C,D1*%
X99300000Y-131020000D03*
D33*
X99300000Y-141180000D03*
%TD*%
D40*
%TO.C,D16*%
X190900000Y-76820000D03*
D33*
X190900000Y-86980000D03*
%TD*%
D22*
%TO.C,TP8*%
X93700000Y-124500000D03*
%TD*%
D37*
%TO.C,U4*%
X169550000Y-102900000D03*
X154225000Y-102900000D03*
X154000000Y-142300000D03*
X169300000Y-142950000D03*
%TD*%
D10*
%TO.C,R3*%
X83650000Y-134500000D03*
X96350000Y-134500000D03*
%TD*%
D41*
%TO.C,D8*%
X179200000Y-96400000D03*
D42*
X179200000Y-81160000D03*
%TD*%
D43*
%TO.C,J8*%
X211400000Y-71500000D03*
D13*
X211400000Y-66420000D03*
%TD*%
D10*
%TO.C,C24*%
X178600000Y-69800000D03*
X178600000Y-72300000D03*
%TD*%
D44*
%TO.C,Q1*%
X153660000Y-83250000D03*
D45*
X156200000Y-83250000D03*
X158740000Y-83250000D03*
%TD*%
D22*
%TO.C,TP6*%
X104000000Y-104800000D03*
%TD*%
D21*
%TO.C,H1*%
X64200000Y-146300000D03*
%TD*%
D10*
%TO.C,C1*%
X170100000Y-71700000D03*
X170100000Y-69200000D03*
%TD*%
D16*
%TO.C,CR2*%
X184000000Y-127545800D03*
X184000000Y-131254200D03*
%TD*%
D39*
%TO.C,C7*%
X128500000Y-140400000D03*
D23*
X128500000Y-145400000D03*
%TD*%
D36*
%TO.C,JP4*%
X93800000Y-84200000D03*
D37*
X96340000Y-84200000D03*
%TD*%
D46*
%TO.C,GD1*%
X108200000Y-74200000D03*
D47*
X104400000Y-74200000D03*
X100600000Y-74200000D03*
%TD*%
D43*
%TO.C,J9*%
X211400000Y-83580000D03*
D13*
X211400000Y-78500000D03*
%TD*%
D27*
%TO.C,D13*%
X94100000Y-71553200D03*
D28*
X94100000Y-57049800D03*
%TD*%
D17*
%TO.C,J6*%
X203520000Y-141000000D03*
D13*
X208600000Y-141000000D03*
%TD*%
D48*
%TO.C,D3*%
X190200000Y-96360000D03*
D42*
X190200000Y-111600000D03*
%TD*%
D43*
%TO.C,J4*%
X70400000Y-69930000D03*
D13*
X70400000Y-64850000D03*
%TD*%
D49*
%TO.C,U7*%
X97890000Y-99700000D03*
X99160000Y-99700000D03*
X100430000Y-99700000D03*
X101700000Y-99700000D03*
X101700000Y-94750000D03*
X100430000Y-94750000D03*
X99160000Y-94750000D03*
X97890000Y-94750000D03*
%TD*%
D22*
%TO.C,TP11*%
X205500000Y-100500000D03*
%TD*%
%TO.C,TP16*%
X175000000Y-78800000D03*
%TD*%
D50*
%TO.C,RV3*%
X158880000Y-97400000D03*
X156340000Y-97400000D03*
X153800000Y-97400000D03*
%TD*%
D36*
%TO.C,JP2*%
X186000000Y-83600000D03*
D37*
X186000000Y-81060000D03*
%TD*%
D20*
%TO.C,TP14*%
X149700000Y-94200000D03*
%TD*%
D10*
%TO.C,C25*%
X196850000Y-87000000D03*
X194350000Y-87000000D03*
%TD*%
D17*
%TO.C,J10*%
X99320000Y-65800000D03*
D13*
X104400000Y-65800000D03*
X109480000Y-65800000D03*
%TD*%
D40*
%TO.C,D4*%
X163300000Y-73020000D03*
D33*
X163300000Y-83180000D03*
%TD*%
D51*
%TO.C,C14*%
X134200000Y-130200000D03*
D10*
X136200000Y-130200000D03*
%TD*%
D52*
%TO.C,C13*%
X148400000Y-130600000D03*
D10*
X148400000Y-128600000D03*
%TD*%
D38*
%TO.C,F1*%
X179200000Y-62350000D03*
D33*
X185600000Y-63600000D03*
X185600000Y-61100000D03*
X182100000Y-63600000D03*
X182100000Y-61100000D03*
X176300000Y-63600000D03*
X176300000Y-61100000D03*
X172800000Y-63600000D03*
X172800000Y-61100000D03*
%TD*%
D23*
%TO.C,C15*%
X204500000Y-119700000D03*
X199500000Y-119700000D03*
%TD*%
D12*
%TO.C,Q3*%
X144760000Y-78500000D03*
D15*
X146030000Y-76430000D03*
X147300000Y-78500000D03*
%TD*%
D22*
%TO.C,TP26*%
X196000000Y-75100000D03*
%TD*%
D50*
%TO.C,RV1*%
X201100000Y-104720000D03*
X201100000Y-107260000D03*
X201100000Y-109800000D03*
%TD*%
D10*
%TO.C,R19*%
X92300000Y-91190000D03*
X92300000Y-98810000D03*
%TD*%
D48*
%TO.C,D2*%
X212400000Y-96360000D03*
D42*
X212400000Y-111600000D03*
%TD*%
D10*
%TO.C,C9*%
X91500000Y-106250000D03*
X91500000Y-108750000D03*
%TD*%
%TO.C,R21*%
X124100000Y-148110000D03*
X124100000Y-140490000D03*
%TD*%
D43*
%TO.C,J3*%
X70400000Y-86130000D03*
D13*
X70400000Y-81050000D03*
%TD*%
D51*
%TO.C,U3*%
X102200000Y-133820000D03*
D10*
X102200000Y-136360000D03*
X102200000Y-138900000D03*
X109820000Y-138900000D03*
X109820000Y-136360000D03*
X109820000Y-133820000D03*
%TD*%
%TO.C,R5*%
X162020000Y-93100000D03*
X154400000Y-93100000D03*
%TD*%
%TO.C,C12*%
X105200000Y-110100000D03*
X105200000Y-107600000D03*
%TD*%
%TO.C,R26*%
X181900000Y-148020000D03*
X181900000Y-140400000D03*
%TD*%
D22*
%TO.C,TP1*%
X129800000Y-135200000D03*
%TD*%
D53*
%TO.C,U6*%
X199300000Y-84500000D03*
X199300000Y-83230000D03*
X199300000Y-81960000D03*
X199300000Y-80690000D03*
X194350000Y-80690000D03*
X194350000Y-81960000D03*
X194350000Y-83230000D03*
X194350000Y-84500000D03*
%TD*%
D10*
%TO.C,R1*%
X205500000Y-111110000D03*
X205500000Y-103490000D03*
%TD*%
D40*
%TO.C,D7*%
X196800000Y-103620000D03*
D33*
X196800000Y-113780000D03*
%TD*%
D10*
%TO.C,C2*%
X117600000Y-138850000D03*
X117600000Y-141350000D03*
%TD*%
D22*
%TO.C,TP22*%
X169810000Y-86220000D03*
%TD*%
D54*
%TO.C,D5*%
X131710000Y-71500000D03*
D10*
X124090000Y-71500000D03*
%TD*%
D34*
%TO.C,C18*%
X162600000Y-66944888D03*
D10*
X162600000Y-68944888D03*
%TD*%
D38*
%TO.C,F5*%
X212950000Y-124400000D03*
D33*
X211700000Y-130800000D03*
X214200000Y-130800000D03*
X211700000Y-127300000D03*
X214200000Y-127300000D03*
X211700000Y-121500000D03*
X214200000Y-121500000D03*
X211700000Y-118000000D03*
X214200000Y-118000000D03*
%TD*%
D22*
%TO.C,TP5*%
X99800000Y-104750000D03*
%TD*%
D10*
%TO.C,R8*%
X156800000Y-71090000D03*
X156800000Y-78710000D03*
%TD*%
%TO.C,R18*%
X106300000Y-98610000D03*
X106300000Y-90990000D03*
%TD*%
D55*
%TO.C,Q2*%
X156300000Y-67200000D03*
D56*
X155030000Y-67200000D03*
X153760000Y-67200000D03*
%TD*%
D22*
%TO.C,TP3*%
X173400000Y-143100000D03*
%TD*%
%TO.C,TP17*%
X87500000Y-142100000D03*
%TD*%
%TO.C,TP2*%
X140100000Y-131100000D03*
%TD*%
D40*
%TO.C,D9*%
X174600000Y-103420000D03*
D33*
X174600000Y-113580000D03*
%TD*%
D10*
%TO.C,C3*%
X134100000Y-115100000D03*
X134100000Y-117600000D03*
%TD*%
D22*
%TO.C,TP25*%
X160800000Y-61200000D03*
%TD*%
D10*
%TO.C,R9*%
X158900000Y-63700000D03*
X151280000Y-63700000D03*
%TD*%
%TO.C,R6*%
X156210000Y-86300000D03*
X148590000Y-86300000D03*
%TD*%
D39*
%TO.C,C10*%
X134300000Y-136300000D03*
D23*
X134300000Y-141300000D03*
%TD*%
D39*
%TO.C,C11*%
X140000000Y-136300000D03*
D23*
X140000000Y-141300000D03*
%TD*%
D50*
%TO.C,RV2*%
X179100000Y-104620000D03*
X179100000Y-107160000D03*
X179100000Y-109700000D03*
%TD*%
D22*
%TO.C,TP7*%
X95700000Y-104800000D03*
%TD*%
D14*
%TO.C,J2*%
X198000000Y-64000000D03*
D13*
X192920000Y-64000000D03*
%TD*%
D57*
%TO.C,Q5*%
X169650000Y-76660000D03*
D58*
X169650000Y-79200000D03*
X169650000Y-81740000D03*
%TD*%
D20*
%TO.C,TP23*%
X159000000Y-87300000D03*
%TD*%
D10*
%TO.C,C22*%
X174800000Y-130100000D03*
X174800000Y-127600000D03*
%TD*%
D22*
%TO.C,TP15*%
X114300000Y-131400000D03*
%TD*%
D59*
%TO.C,U1*%
X176305000Y-67425000D03*
X175035000Y-67425000D03*
X173765000Y-67425000D03*
X172495000Y-67425000D03*
X172495000Y-72375000D03*
X173765000Y-72375000D03*
X175035000Y-72375000D03*
X176305000Y-72375000D03*
%TD*%
D30*
%TO.C,R25*%
X79300000Y-62600000D03*
X77500000Y-70100000D03*
%TD*%
D60*
%TO.C,U5*%
X136700000Y-120170000D03*
D61*
X136700000Y-117630000D03*
X136700000Y-115090000D03*
X136700000Y-112550000D03*
X136700000Y-110010000D03*
X136700000Y-107470000D03*
X136700000Y-104930000D03*
X136700000Y-102390000D03*
X136700000Y-99850000D03*
X136700000Y-97310000D03*
X136700000Y-94770000D03*
X136700000Y-92230000D03*
X136700000Y-89690000D03*
X136700000Y-87150000D03*
X136700000Y-84610000D03*
X121460000Y-84610000D03*
X121460000Y-87150000D03*
X121460000Y-89690000D03*
X121460000Y-92230000D03*
X121460000Y-94770000D03*
X121460000Y-97310000D03*
X121460000Y-99850000D03*
X121460000Y-102390000D03*
X121460000Y-104930000D03*
X121460000Y-107470000D03*
X121460000Y-110010000D03*
X121460000Y-112550000D03*
X121460000Y-115090000D03*
X121460000Y-117630000D03*
X121460000Y-120170000D03*
%TD*%
D40*
%TO.C,D10*%
X149800000Y-97400000D03*
D33*
X149800000Y-107560000D03*
%TD*%
D40*
%TO.C,D6*%
X172800000Y-86220000D03*
D33*
X172800000Y-96380000D03*
%TD*%
D10*
%TO.C,R2*%
X183500000Y-111200000D03*
X183500000Y-103580000D03*
%TD*%
%TO.C,R12*%
D62*
X167100000Y-86940000D02*
X170100000Y-86940000D01*
X170100000Y-96660000D01*
X167100000Y-96660000D01*
X167100000Y-86940000D01*
%TO.C,R11*%
X151430000Y-88600000D02*
X161150000Y-88600000D01*
X161150000Y-91600000D01*
X151430000Y-91600000D01*
X151430000Y-88600000D01*
%TO.C,Q7*%
X117000000Y-58590000D02*
X117000000Y-63650000D01*
X117000000Y-58590000D02*
X122460000Y-58590000D01*
X122460000Y-63650000D02*
X117000000Y-63650000D01*
X122460000Y-63650000D02*
X122460000Y-58590000D01*
%TO.C,R15*%
X143200000Y-59730000D02*
X146200000Y-59730000D01*
X146200000Y-69450000D01*
X143200000Y-69450000D01*
X143200000Y-59730000D01*
%TO.C,R17*%
X122600000Y-59150000D02*
X125600000Y-59150000D01*
X125600000Y-68870000D01*
X122600000Y-68870000D01*
X122600000Y-59150000D01*
%TO.C,J7*%
X125670000Y-58700000D02*
X136840000Y-58700000D01*
X136840000Y-69510000D01*
X125670000Y-69510000D01*
X125670000Y-58700000D01*
%TO.C,R16*%
X146200000Y-59750000D02*
X149200000Y-59750000D01*
X149200000Y-69470000D01*
X146200000Y-69470000D01*
X146200000Y-59750000D01*
%TO.C,R14*%
X140200000Y-59730000D02*
X143200000Y-59730000D01*
X143200000Y-69450000D01*
X140200000Y-69450000D01*
X140200000Y-59730000D01*
%TO.C,Q6*%
X148730000Y-74780000D02*
X148730000Y-69720000D01*
X148730000Y-74780000D02*
X143270000Y-74780000D01*
X143270000Y-69720000D02*
X148730000Y-69720000D01*
X143270000Y-69720000D02*
X143270000Y-74780000D01*
%TO.C,R13*%
X137200000Y-59730000D02*
X140200000Y-59730000D01*
X140200000Y-69450000D01*
X137200000Y-69450000D01*
X137200000Y-59730000D01*
%TO.C,R22*%
X152200000Y-70030000D02*
X155200000Y-70030000D01*
X155200000Y-79750000D01*
X152200000Y-79750000D01*
X152200000Y-70030000D01*
%TO.C,R23*%
X165100000Y-74340000D02*
X168100000Y-74340000D01*
X168100000Y-84060000D01*
X165100000Y-84060000D01*
X165100000Y-74340000D01*
%TO.C,CR3*%
D63*
X189146200Y-69446200D02*
X188993800Y-69446200D01*
X189146200Y-66753800D02*
X189146200Y-69446200D01*
X188993800Y-70322500D02*
X182897800Y-70322500D01*
X188993800Y-69446200D02*
X188993800Y-70322500D01*
X188993800Y-66753800D02*
X189146200Y-66753800D01*
X188993800Y-65877500D02*
X188993800Y-66753800D01*
X182897800Y-70322500D02*
X182897800Y-69446200D01*
X182897800Y-69446200D02*
X182745400Y-69446200D01*
X182897800Y-66753800D02*
X182897800Y-65877500D01*
X182897800Y-65877500D02*
X188993800Y-65877500D01*
X182745400Y-69446200D02*
X182745400Y-66753800D01*
X182745400Y-66753800D02*
X182897800Y-66753800D01*
%TO.C,C20*%
D62*
X165400000Y-65400000D02*
X168400000Y-65400000D01*
X168400000Y-70900000D01*
X165400000Y-70900000D01*
X165400000Y-65400000D01*
%TO.C,CR1*%
D63*
X204977500Y-125797800D02*
X205853800Y-125797800D01*
X204977500Y-131893800D02*
X204977500Y-125797800D01*
X205853800Y-125645400D02*
X208546200Y-125645400D01*
X205853800Y-125797800D02*
X205853800Y-125645400D01*
X205853800Y-131893800D02*
X204977500Y-131893800D01*
X205853800Y-132046200D02*
X205853800Y-131893800D01*
X208546200Y-125645400D02*
X208546200Y-125797800D01*
X208546200Y-125797800D02*
X209422500Y-125797800D01*
X208546200Y-131893800D02*
X208546200Y-132046200D01*
X208546200Y-132046200D02*
X205853800Y-132046200D01*
X209422500Y-125797800D02*
X209422500Y-131893800D01*
X209422500Y-131893800D02*
X208546200Y-131893800D01*
%TO.C,J5*%
D62*
X183580000Y-135290000D02*
X194750000Y-135290000D01*
X194750000Y-146100000D01*
X183580000Y-146100000D01*
X183580000Y-135290000D01*
%TO.C,F2*%
D63*
X201266400Y-67746500D02*
X205533600Y-67746500D01*
X201266400Y-85653500D02*
X201266400Y-67746500D01*
X205533600Y-67746500D02*
X205533600Y-85653500D01*
X205533600Y-85653500D02*
X201266400Y-85653500D01*
%TO.C,TP12*%
D62*
X176450000Y-100400000D02*
G75*
G02*
X172950000Y-100400000I-1750000J0D01*
G01*
X172950000Y-100400000D02*
G75*
G02*
X176450000Y-100400000I1750000J0D01*
G01*
%TO.C,R10*%
X112750000Y-133150000D02*
X115750000Y-133150000D01*
X115750000Y-142870000D01*
X112750000Y-142870000D01*
X112750000Y-133150000D01*
%TO.C,H3*%
X220350000Y-58600000D02*
G75*
G02*
X213450000Y-58600000I-3450000J0D01*
G01*
X213450000Y-58600000D02*
G75*
G02*
X220350000Y-58600000I3450000J0D01*
G01*
%TO.C,TP9*%
X99550000Y-124500000D02*
G75*
G02*
X96050000Y-124500000I-1750000J0D01*
G01*
X96050000Y-124500000D02*
G75*
G02*
X99550000Y-124500000I1750000J0D01*
G01*
%TO.C,C23*%
D64*
X174242200Y-117535023D02*
X177335023Y-114442200D01*
X174242200Y-121864977D02*
X174242200Y-117535023D01*
X177335023Y-114442200D02*
X181664976Y-114442200D01*
X177335023Y-124957800D02*
X174242200Y-121864977D01*
X181664976Y-114442200D02*
X184757800Y-117535023D01*
X181664976Y-124957800D02*
X177335023Y-124957800D01*
X184757800Y-117535023D02*
X184757800Y-121864977D01*
X184757800Y-121864977D02*
X181664976Y-124957800D01*
%TO.C,U9*%
D62*
X142920000Y-132370000D02*
X142920000Y-144370000D01*
X142920000Y-144370000D02*
X151020000Y-144370000D01*
X151020000Y-132370000D02*
X142920000Y-132370000D01*
X151020000Y-144370000D02*
X151020000Y-132370000D01*
%TO.C,F3*%
X106550000Y-77550000D02*
X110050000Y-77550000D01*
X110050000Y-85450000D01*
X106550000Y-85450000D01*
X106550000Y-77550000D01*
%TO.C,R20*%
X94940000Y-89900000D02*
X104660000Y-89900000D01*
X104660000Y-92900000D01*
X94940000Y-92900000D01*
X94940000Y-89900000D01*
%TO.C,D14*%
D63*
X112668000Y-60237500D02*
X113633200Y-60237500D01*
X112668000Y-68365500D02*
X112668000Y-60237500D01*
X113633200Y-55983000D02*
X115766800Y-55983000D01*
X113633200Y-60237500D02*
X113633200Y-55983000D01*
X113633200Y-68365500D02*
X112668000Y-68365500D01*
X113633200Y-72620000D02*
X113633200Y-68365500D01*
X115766800Y-55983000D02*
X115766800Y-60237500D01*
X115766800Y-60237500D02*
X116732000Y-60237500D01*
X115766800Y-68365500D02*
X115766800Y-72620000D01*
X115766800Y-72620000D02*
X113633200Y-72620000D01*
X116732000Y-60237500D02*
X116732000Y-68365500D01*
X116732000Y-68365500D02*
X115766800Y-68365500D01*
%TO.C,C19*%
D62*
X196200000Y-125500000D02*
X199200000Y-125500000D01*
X199200000Y-131000000D01*
X196200000Y-131000000D01*
X196200000Y-125500000D01*
%TO.C,H4*%
X220350000Y-146400000D02*
G75*
G02*
X213450000Y-146400000I-3450000J0D01*
G01*
X213450000Y-146400000D02*
G75*
G02*
X220350000Y-146400000I3450000J0D01*
G01*
%TO.C,R7*%
X132940000Y-69900000D02*
X142660000Y-69900000D01*
X142660000Y-72900000D01*
X132940000Y-72900000D01*
X132940000Y-69900000D01*
%TO.C,U8*%
X92900000Y-110300000D02*
X93300000Y-110300000D01*
X92900000Y-118300000D02*
X92900000Y-110300000D01*
X93300000Y-108370000D02*
X103300000Y-108370000D01*
X93300000Y-110300000D02*
X93300000Y-108370000D01*
X93300000Y-118300000D02*
X92900000Y-118300000D01*
X93300000Y-120230000D02*
X93300000Y-118300000D01*
X103300000Y-108370000D02*
X103300000Y-110300000D01*
X103300000Y-110300000D02*
X103700000Y-110300000D01*
X103300000Y-118300000D02*
X103300000Y-120230000D01*
X103300000Y-120230000D02*
X93300000Y-120230000D01*
X103700000Y-110300000D02*
X103700000Y-118300000D01*
X103700000Y-118300000D02*
X103300000Y-118300000D01*
%TO.C,TP10*%
X103650000Y-124500000D02*
G75*
G02*
X100150000Y-124500000I-1750000J0D01*
G01*
X100150000Y-124500000D02*
G75*
G02*
X103650000Y-124500000I1750000J0D01*
G01*
%TO.C,C4*%
X132300000Y-88150000D02*
X135300000Y-88150000D01*
X135300000Y-93650000D01*
X132300000Y-93650000D01*
X132300000Y-88150000D01*
%TO.C,TP19*%
X119750000Y-120300000D02*
G75*
G02*
X116250000Y-120300000I-1750000J0D01*
G01*
X116250000Y-120300000D02*
G75*
G02*
X119750000Y-120300000I1750000J0D01*
G01*
%TO.C,R24*%
D63*
X75644100Y-74549000D02*
X81155900Y-74549000D01*
X75644100Y-90551000D02*
X75644100Y-74549000D01*
X81155900Y-74549000D02*
X81155900Y-90551000D01*
X81155900Y-90551000D02*
X75644100Y-90551000D01*
%TO.C,Q4*%
D62*
X165960000Y-90050000D02*
X165960000Y-84990000D01*
X165960000Y-90050000D02*
X160500000Y-90050000D01*
X160500000Y-84990000D02*
X165960000Y-84990000D01*
X160500000Y-84990000D02*
X160500000Y-90050000D01*
%TO.C,D15*%
D63*
X95283000Y-86533200D02*
X99537500Y-86533200D01*
X95283000Y-88666800D02*
X95283000Y-86533200D01*
X99537500Y-85568000D02*
X107665500Y-85568000D01*
X99537500Y-86533200D02*
X99537500Y-85568000D01*
X99537500Y-88666800D02*
X95283000Y-88666800D01*
X99537500Y-89632000D02*
X99537500Y-88666800D01*
X107665500Y-85568000D02*
X107665500Y-86533200D01*
X107665500Y-86533200D02*
X111920000Y-86533200D01*
X107665500Y-88666800D02*
X107665500Y-89632000D01*
X107665500Y-89632000D02*
X99537500Y-89632000D01*
X111920000Y-86533200D02*
X111920000Y-88666800D01*
X111920000Y-88666800D02*
X107665500Y-88666800D01*
%TO.C,U2*%
D62*
X63975000Y-88860000D02*
X115475000Y-88860000D01*
X115475000Y-128360000D01*
X63975000Y-128360000D01*
X63975000Y-88860000D01*
%TO.C,J1*%
X71180000Y-132490000D02*
X82350000Y-132490000D01*
X82350000Y-143300000D01*
X71180000Y-143300000D01*
X71180000Y-132490000D01*
%TO.C,D11*%
X173690000Y-73800000D02*
X186550000Y-73800000D01*
X186550000Y-77000000D01*
X173690000Y-77000000D01*
X173690000Y-73800000D01*
%TO.C,TP21*%
X152250000Y-67200000D02*
G75*
G02*
X148750000Y-67200000I-1750000J0D01*
G01*
X148750000Y-67200000D02*
G75*
G02*
X152250000Y-67200000I1750000J0D01*
G01*
%TO.C,TP4*%
X117950000Y-144000000D02*
G75*
G02*
X114450000Y-144000000I-1750000J0D01*
G01*
X114450000Y-144000000D02*
G75*
G02*
X117950000Y-144000000I1750000J0D01*
G01*
%TO.C,C17*%
X204850000Y-128000000D02*
G75*
G02*
X199350000Y-128000000I-2750000J0D01*
G01*
X199350000Y-128000000D02*
G75*
G02*
X204850000Y-128000000I2750000J0D01*
G01*
%TO.C,R4*%
X82600000Y-136450000D02*
X97400000Y-136450000D01*
X97400000Y-140150000D01*
X82600000Y-140150000D01*
X82600000Y-136450000D01*
%TO.C,C6*%
X94100000Y-93250000D02*
X97100000Y-93250000D01*
X97100000Y-98750000D01*
X94100000Y-98750000D01*
X94100000Y-93250000D01*
%TO.C,D12*%
X102700000Y-77600000D02*
X106200000Y-77600000D01*
X102700000Y-83000000D02*
X102700000Y-77600000D01*
X106200000Y-77600000D02*
X106200000Y-83000000D01*
X106200000Y-83000000D02*
X102700000Y-83000000D01*
%TO.C,C5*%
X192950000Y-76900000D02*
X198450000Y-76900000D01*
X198450000Y-79900000D01*
X192950000Y-79900000D01*
X192950000Y-76900000D01*
%TO.C,C8*%
X89800000Y-114700000D02*
X92800000Y-114700000D01*
X92800000Y-120200000D01*
X89800000Y-120200000D01*
X89800000Y-114700000D01*
%TO.C,JP1*%
X165030000Y-59230000D02*
X168570000Y-59230000D01*
X168570000Y-65320000D01*
X165030000Y-65320000D01*
X165030000Y-59230000D01*
%TO.C,F4*%
X98850000Y-77550000D02*
X102350000Y-77550000D01*
X102350000Y-85450000D01*
X98850000Y-85450000D01*
X98850000Y-77550000D01*
%TO.C,H2*%
X67550000Y-58600000D02*
G75*
G02*
X60650000Y-58600000I-3450000J0D01*
G01*
X60650000Y-58600000D02*
G75*
G02*
X67550000Y-58600000I3450000J0D01*
G01*
%TO.C,F6*%
X186800000Y-114000000D02*
X193800000Y-114000000D01*
X186800000Y-135000000D02*
X186800000Y-114000000D01*
X193800000Y-114000000D02*
X193800000Y-135000000D01*
X193800000Y-135000000D02*
X186800000Y-135000000D01*
%TO.C,C16*%
D63*
X174744100Y-137146900D02*
X180255900Y-137146900D01*
X174744100Y-148653100D02*
X174744100Y-137146900D01*
X180255900Y-137146900D02*
X180255900Y-148653100D01*
X180255900Y-148653100D02*
X174744100Y-148653100D01*
%TO.C,JP3*%
D62*
X201230000Y-86480000D02*
X204770000Y-86480000D01*
X204770000Y-92570000D01*
X201230000Y-92570000D01*
X201230000Y-86480000D01*
%TO.C,C21*%
X181750000Y-128600000D02*
G75*
G02*
X176250000Y-128600000I-2750000J0D01*
G01*
X176250000Y-128600000D02*
G75*
G02*
X181750000Y-128600000I2750000J0D01*
G01*
%TO.C,TP18*%
X94550000Y-142200000D02*
G75*
G02*
X91050000Y-142200000I-1750000J0D01*
G01*
X91050000Y-142200000D02*
G75*
G02*
X94550000Y-142200000I1750000J0D01*
G01*
%TO.C,TP20*%
X119750000Y-116600000D02*
G75*
G02*
X116250000Y-116600000I-1750000J0D01*
G01*
X116250000Y-116600000D02*
G75*
G02*
X119750000Y-116600000I1750000J0D01*
G01*
%TO.C,TP24*%
X143250000Y-74800000D02*
G75*
G02*
X139750000Y-74800000I-1750000J0D01*
G01*
X139750000Y-74800000D02*
G75*
G02*
X143250000Y-74800000I1750000J0D01*
G01*
%TO.C,D1*%
X97700000Y-129670000D02*
X100900000Y-129670000D01*
X100900000Y-142530000D01*
X97700000Y-142530000D01*
X97700000Y-129670000D01*
%TO.C,D16*%
X189300000Y-75470000D02*
X192500000Y-75470000D01*
X192500000Y-88330000D01*
X189300000Y-88330000D01*
X189300000Y-75470000D01*
%TO.C,TP8*%
X95450000Y-124500000D02*
G75*
G02*
X91950000Y-124500000I-1750000J0D01*
G01*
X91950000Y-124500000D02*
G75*
G02*
X95450000Y-124500000I1750000J0D01*
G01*
%TO.C,U4*%
X151300000Y-99875000D02*
X151300000Y-145875000D01*
X151300000Y-99875000D01*
X151300000Y-99875000D02*
X172300000Y-99875000D01*
X172300000Y-145875000D01*
X151300000Y-145875000D01*
X151300000Y-99875000D01*
X172300000Y-99875000D02*
X172300000Y-145875000D01*
X172300000Y-99875000D01*
X151300000Y-145875000D02*
X172300000Y-145875000D01*
X151300000Y-145875000D01*
%TO.C,R3*%
X82600000Y-132650000D02*
X97400000Y-132650000D01*
X97400000Y-136350000D01*
X82600000Y-136350000D01*
X82600000Y-132650000D01*
%TO.C,D8*%
X174400000Y-79128000D02*
X184000000Y-79128000D01*
X184000000Y-98250000D01*
X174400000Y-98250000D01*
X174400000Y-79128000D01*
%TO.C,J8*%
X205690000Y-63370000D02*
X216500000Y-63370000D01*
X216500000Y-74540000D01*
X205690000Y-74540000D01*
X205690000Y-63370000D01*
%TO.C,C24*%
X177100000Y-68300000D02*
X180100000Y-68300000D01*
X180100000Y-73800000D01*
X177100000Y-73800000D01*
X177100000Y-68300000D01*
%TO.C,Q1*%
X150950000Y-79850000D02*
X161450000Y-79850000D01*
X161450000Y-84750000D01*
X150950000Y-84750000D01*
X150950000Y-79850000D01*
%TO.C,TP6*%
X105750000Y-104800000D02*
G75*
G02*
X102250000Y-104800000I-1750000J0D01*
G01*
X102250000Y-104800000D02*
G75*
G02*
X105750000Y-104800000I1750000J0D01*
G01*
%TO.C,H1*%
X67650000Y-146300000D02*
G75*
G02*
X60750000Y-146300000I-3450000J0D01*
G01*
X60750000Y-146300000D02*
G75*
G02*
X67650000Y-146300000I3450000J0D01*
G01*
%TO.C,C1*%
X168600000Y-67700000D02*
X171600000Y-67700000D01*
X171600000Y-73200000D01*
X168600000Y-73200000D01*
X168600000Y-67700000D01*
%TO.C,CR2*%
D63*
X181777500Y-126352000D02*
X182653800Y-126352000D01*
X181777500Y-132448000D02*
X181777500Y-126352000D01*
X182653800Y-126199600D02*
X185346200Y-126199600D01*
X182653800Y-126352000D02*
X182653800Y-126199600D01*
X182653800Y-132448000D02*
X181777500Y-132448000D01*
X182653800Y-132600400D02*
X182653800Y-132448000D01*
X185346200Y-126199600D02*
X185346200Y-126352000D01*
X185346200Y-126352000D02*
X186222500Y-126352000D01*
X185346200Y-132448000D02*
X185346200Y-132600400D01*
X185346200Y-132600400D02*
X182653800Y-132600400D01*
X186222500Y-126352000D02*
X186222500Y-132448000D01*
X186222500Y-132448000D02*
X185346200Y-132448000D01*
%TO.C,C7*%
X125744100Y-137146900D02*
X131255900Y-137146900D01*
X125744100Y-148653100D02*
X125744100Y-137146900D01*
X131255900Y-137146900D02*
X131255900Y-148653100D01*
X131255900Y-148653100D02*
X125744100Y-148653100D01*
%TO.C,JP4*%
D62*
X92030000Y-82430000D02*
X98120000Y-82430000D01*
X98120000Y-85970000D01*
X92030000Y-85970000D01*
X92030000Y-82430000D01*
%TO.C,GD1*%
X96650000Y-70950000D02*
X112150000Y-70950000D01*
X112150000Y-77450000D01*
X96650000Y-77450000D01*
X96650000Y-70950000D01*
%TO.C,J9*%
X205690000Y-75450000D02*
X216500000Y-75450000D01*
X216500000Y-86620000D01*
X205690000Y-86620000D01*
X205690000Y-75450000D01*
%TO.C,D13*%
D63*
X92068000Y-60237500D02*
X93033200Y-60237500D01*
X92068000Y-68365500D02*
X92068000Y-60237500D01*
X93033200Y-55983000D02*
X95166800Y-55983000D01*
X93033200Y-60237500D02*
X93033200Y-55983000D01*
X93033200Y-68365500D02*
X92068000Y-68365500D01*
X93033200Y-72620000D02*
X93033200Y-68365500D01*
X95166800Y-55983000D02*
X95166800Y-60237500D01*
X95166800Y-60237500D02*
X96132000Y-60237500D01*
X95166800Y-68365500D02*
X95166800Y-72620000D01*
X95166800Y-72620000D02*
X93033200Y-72620000D01*
X96132000Y-60237500D02*
X96132000Y-68365500D01*
X96132000Y-68365500D02*
X95166800Y-68365500D01*
%TO.C,J6*%
D62*
X200480000Y-135290000D02*
X211650000Y-135290000D01*
X211650000Y-146100000D01*
X200480000Y-146100000D01*
X200480000Y-135290000D01*
%TO.C,D3*%
X185400000Y-94510000D02*
X195000000Y-94510000D01*
X195000000Y-113632000D01*
X185400000Y-113632000D01*
X185400000Y-94510000D01*
%TO.C,J4*%
X64690000Y-61800000D02*
X75500000Y-61800000D01*
X75500000Y-72970000D01*
X64690000Y-72970000D01*
X64690000Y-61800000D01*
%TO.C,U7*%
X97095000Y-95025000D02*
X97335000Y-95025000D01*
X97095000Y-99425000D02*
X97095000Y-95025000D01*
X97335000Y-93525000D02*
X102255000Y-93525000D01*
X97335000Y-95025000D02*
X97335000Y-93525000D01*
X97335000Y-99425000D02*
X97095000Y-99425000D01*
X97335000Y-100925000D02*
X97335000Y-99425000D01*
X102255000Y-93525000D02*
X102255000Y-95025000D01*
X102255000Y-95025000D02*
X102495000Y-95025000D01*
X102255000Y-99425000D02*
X102255000Y-100925000D01*
X102255000Y-100925000D02*
X97335000Y-100925000D01*
X102495000Y-95025000D02*
X102495000Y-99425000D01*
X102495000Y-99425000D02*
X102255000Y-99425000D01*
%TO.C,TP11*%
X207250000Y-100500000D02*
G75*
G02*
X203750000Y-100500000I-1750000J0D01*
G01*
X203750000Y-100500000D02*
G75*
G02*
X207250000Y-100500000I1750000J0D01*
G01*
%TO.C,TP16*%
X176750000Y-78800000D02*
G75*
G02*
X173250000Y-78800000I-1750000J0D01*
G01*
X173250000Y-78800000D02*
G75*
G02*
X176750000Y-78800000I1750000J0D01*
G01*
%TO.C,RV3*%
X151320000Y-94740000D02*
X161360000Y-94740000D01*
X161360000Y-100070000D01*
X151320000Y-100070000D01*
X151320000Y-94740000D01*
%TO.C,JP2*%
X184230000Y-79280000D02*
X187770000Y-79280000D01*
X187770000Y-85370000D01*
X184230000Y-85370000D01*
X184230000Y-79280000D01*
%TO.C,TP14*%
X151450000Y-94200000D02*
G75*
G02*
X147950000Y-94200000I-1750000J0D01*
G01*
X147950000Y-94200000D02*
G75*
G02*
X151450000Y-94200000I1750000J0D01*
G01*
%TO.C,C25*%
X192850000Y-85500000D02*
X198350000Y-85500000D01*
X198350000Y-88500000D01*
X192850000Y-88500000D01*
X192850000Y-85500000D01*
%TO.C,J10*%
X96280000Y-60090000D02*
X112530000Y-60090000D01*
X112530000Y-70900000D01*
X96280000Y-70900000D01*
X96280000Y-60090000D01*
%TO.C,D4*%
X161700000Y-71670000D02*
X164900000Y-71670000D01*
X164900000Y-84530000D01*
X161700000Y-84530000D01*
X161700000Y-71670000D01*
%TO.C,C14*%
X137950000Y-130200000D02*
G75*
G02*
X132450000Y-130200000I-2750000J0D01*
G01*
X132450000Y-130200000D02*
G75*
G02*
X137950000Y-130200000I2750000J0D01*
G01*
%TO.C,C13*%
X151150000Y-129600000D02*
G75*
G02*
X145650000Y-129600000I-2750000J0D01*
G01*
X145650000Y-129600000D02*
G75*
G02*
X151150000Y-129600000I2750000J0D01*
G01*
%TO.C,F1*%
X168700000Y-58850000D02*
X189700000Y-58850000D01*
X168700000Y-65850000D02*
X168700000Y-58850000D01*
X189700000Y-58850000D02*
X189700000Y-65850000D01*
X189700000Y-65850000D02*
X168700000Y-65850000D01*
%TO.C,C15*%
D64*
X196742200Y-117535023D02*
X199835023Y-114442200D01*
X196742200Y-121864977D02*
X196742200Y-117535023D01*
X199835023Y-114442200D02*
X204164976Y-114442200D01*
X199835023Y-124957800D02*
X196742200Y-121864977D01*
X204164976Y-114442200D02*
X207257800Y-117535023D01*
X204164976Y-124957800D02*
X199835023Y-124957800D01*
X207257800Y-117535023D02*
X207257800Y-121864977D01*
X207257800Y-121864977D02*
X204164976Y-124957800D01*
%TO.C,Q3*%
D62*
X143300000Y-75050000D02*
X143300000Y-80110000D01*
X143300000Y-75050000D02*
X148760000Y-75050000D01*
X148760000Y-80110000D02*
X143300000Y-80110000D01*
X148760000Y-80110000D02*
X148760000Y-75050000D01*
%TO.C,TP26*%
X197750000Y-75100000D02*
G75*
G02*
X194250000Y-75100000I-1750000J0D01*
G01*
X194250000Y-75100000D02*
G75*
G02*
X197750000Y-75100000I1750000J0D01*
G01*
%TO.C,RV1*%
X198440000Y-102240000D02*
X203770000Y-102240000D01*
X203770000Y-112280000D01*
X198440000Y-112280000D01*
X198440000Y-102240000D01*
%TO.C,R19*%
X90800000Y-90140000D02*
X93800000Y-90140000D01*
X93800000Y-99860000D01*
X90800000Y-99860000D01*
X90800000Y-90140000D01*
%TO.C,D2*%
X207600000Y-94510000D02*
X217200000Y-94510000D01*
X217200000Y-113632000D01*
X207600000Y-113632000D01*
X207600000Y-94510000D01*
%TO.C,C9*%
X90000000Y-104750000D02*
X93000000Y-104750000D01*
X93000000Y-110250000D01*
X90000000Y-110250000D01*
X90000000Y-104750000D01*
%TO.C,R21*%
X122600000Y-139440000D02*
X125600000Y-139440000D01*
X125600000Y-149160000D01*
X122600000Y-149160000D01*
X122600000Y-139440000D01*
%TO.C,J3*%
X64690000Y-78000000D02*
X75500000Y-78000000D01*
X75500000Y-89170000D01*
X64690000Y-89170000D01*
X64690000Y-78000000D01*
%TO.C,U3*%
X101140000Y-132300000D02*
X110870000Y-132300000D01*
X110870000Y-140420000D01*
X101140000Y-140420000D01*
X101140000Y-132300000D01*
%TO.C,R5*%
X153350000Y-91600000D02*
X163070000Y-91600000D01*
X163070000Y-94600000D01*
X153350000Y-94600000D01*
X153350000Y-91600000D01*
%TO.C,C12*%
X103700000Y-106100000D02*
X106700000Y-106100000D01*
X106700000Y-111600000D01*
X103700000Y-111600000D01*
X103700000Y-106100000D01*
%TO.C,R26*%
X180400000Y-139350000D02*
X183400000Y-139350000D01*
X183400000Y-149070000D01*
X180400000Y-149070000D01*
X180400000Y-139350000D01*
%TO.C,TP1*%
X131550000Y-135200000D02*
G75*
G02*
X128050000Y-135200000I-1750000J0D01*
G01*
X128050000Y-135200000D02*
G75*
G02*
X131550000Y-135200000I1750000J0D01*
G01*
%TO.C,U6*%
X193125000Y-80135000D02*
X194625000Y-80135000D01*
X193125000Y-85055000D02*
X193125000Y-80135000D01*
X194625000Y-79895000D02*
X199025000Y-79895000D01*
X194625000Y-80135000D02*
X194625000Y-79895000D01*
X194625000Y-85055000D02*
X193125000Y-85055000D01*
X194625000Y-85295000D02*
X194625000Y-85055000D01*
X199025000Y-79895000D02*
X199025000Y-80135000D01*
X199025000Y-80135000D02*
X200525000Y-80135000D01*
X199025000Y-85055000D02*
X199025000Y-85295000D01*
X199025000Y-85295000D02*
X194625000Y-85295000D01*
X200525000Y-80135000D02*
X200525000Y-85055000D01*
X200525000Y-85055000D02*
X199025000Y-85055000D01*
%TO.C,R1*%
X204000000Y-102440000D02*
X207000000Y-102440000D01*
X207000000Y-112160000D01*
X204000000Y-112160000D01*
X204000000Y-102440000D01*
%TO.C,D7*%
X195200000Y-102270000D02*
X198400000Y-102270000D01*
X198400000Y-115130000D01*
X195200000Y-115130000D01*
X195200000Y-102270000D01*
%TO.C,C2*%
X116100000Y-137350000D02*
X119100000Y-137350000D01*
X119100000Y-142850000D01*
X116100000Y-142850000D01*
X116100000Y-137350000D01*
%TO.C,TP22*%
X171560000Y-86220000D02*
G75*
G02*
X168060000Y-86220000I-1750000J0D01*
G01*
X168060000Y-86220000D02*
G75*
G02*
X171560000Y-86220000I1750000J0D01*
G01*
%TO.C,D5*%
X123040000Y-70250000D02*
X132760000Y-70250000D01*
X132760000Y-72750000D01*
X123040000Y-72750000D01*
X123040000Y-70250000D01*
%TO.C,C18*%
X165350000Y-67944888D02*
G75*
G02*
X159850000Y-67944888I-2750000J0D01*
G01*
X159850000Y-67944888D02*
G75*
G02*
X165350000Y-67944888I2750000J0D01*
G01*
%TO.C,F5*%
X209450000Y-113900000D02*
X216450000Y-113900000D01*
X209450000Y-134900000D02*
X209450000Y-113900000D01*
X216450000Y-113900000D02*
X216450000Y-134900000D01*
X216450000Y-134900000D02*
X209450000Y-134900000D01*
%TO.C,TP5*%
X101550000Y-104750000D02*
G75*
G02*
X98050000Y-104750000I-1750000J0D01*
G01*
X98050000Y-104750000D02*
G75*
G02*
X101550000Y-104750000I1750000J0D01*
G01*
%TO.C,R8*%
X155300000Y-70040000D02*
X158300000Y-70040000D01*
X158300000Y-79760000D01*
X155300000Y-79760000D01*
X155300000Y-70040000D01*
%TO.C,R18*%
X104800000Y-89940000D02*
X107800000Y-89940000D01*
X107800000Y-99660000D01*
X104800000Y-99660000D01*
X104800000Y-89940000D01*
%TO.C,Q2*%
X157760000Y-69930000D02*
X157760000Y-65190000D01*
X157760000Y-69930000D02*
X152300000Y-69930000D01*
X152300000Y-65190000D02*
X157760000Y-65190000D01*
X152300000Y-65190000D02*
X152300000Y-69930000D01*
%TO.C,TP3*%
X175150000Y-143100000D02*
G75*
G02*
X171650000Y-143100000I-1750000J0D01*
G01*
X171650000Y-143100000D02*
G75*
G02*
X175150000Y-143100000I1750000J0D01*
G01*
%TO.C,TP17*%
X89250000Y-142100000D02*
G75*
G02*
X85750000Y-142100000I-1750000J0D01*
G01*
X85750000Y-142100000D02*
G75*
G02*
X89250000Y-142100000I1750000J0D01*
G01*
%TO.C,TP2*%
X141850000Y-131100000D02*
G75*
G02*
X138350000Y-131100000I-1750000J0D01*
G01*
X138350000Y-131100000D02*
G75*
G02*
X141850000Y-131100000I1750000J0D01*
G01*
%TO.C,D9*%
X173000000Y-102070000D02*
X176200000Y-102070000D01*
X176200000Y-114930000D01*
X173000000Y-114930000D01*
X173000000Y-102070000D01*
%TO.C,C3*%
X132600000Y-113600000D02*
X135600000Y-113600000D01*
X135600000Y-119100000D01*
X132600000Y-119100000D01*
X132600000Y-113600000D01*
%TO.C,TP25*%
X162550000Y-61200000D02*
G75*
G02*
X159050000Y-61200000I-1750000J0D01*
G01*
X159050000Y-61200000D02*
G75*
G02*
X162550000Y-61200000I1750000J0D01*
G01*
%TO.C,R9*%
X150230000Y-62200000D02*
X159950000Y-62200000D01*
X159950000Y-65200000D01*
X150230000Y-65200000D01*
X150230000Y-62200000D01*
%TO.C,R6*%
X147540000Y-84800000D02*
X157260000Y-84800000D01*
X157260000Y-87800000D01*
X147540000Y-87800000D01*
X147540000Y-84800000D01*
%TO.C,C10*%
D63*
X131544100Y-133046900D02*
X137055900Y-133046900D01*
X131544100Y-144553100D02*
X131544100Y-133046900D01*
X137055900Y-133046900D02*
X137055900Y-144553100D01*
X137055900Y-144553100D02*
X131544100Y-144553100D01*
%TO.C,C11*%
X137244100Y-133046900D02*
X142755900Y-133046900D01*
X137244100Y-144553100D02*
X137244100Y-133046900D01*
X142755900Y-133046900D02*
X142755900Y-144553100D01*
X142755900Y-144553100D02*
X137244100Y-144553100D01*
%TO.C,RV2*%
D62*
X176440000Y-102140000D02*
X181770000Y-102140000D01*
X181770000Y-112180000D01*
X176440000Y-112180000D01*
X176440000Y-102140000D01*
%TO.C,TP7*%
X97450000Y-104800000D02*
G75*
G02*
X93950000Y-104800000I-1750000J0D01*
G01*
X93950000Y-104800000D02*
G75*
G02*
X97450000Y-104800000I1750000J0D01*
G01*
%TO.C,J2*%
X189870000Y-58900000D02*
X201040000Y-58900000D01*
X201040000Y-69710000D01*
X189870000Y-69710000D01*
X189870000Y-58900000D01*
%TO.C,Q5*%
X168150000Y-73950000D02*
X173050000Y-73950000D01*
X173050000Y-84450000D01*
X168150000Y-84450000D01*
X168150000Y-73950000D01*
%TO.C,TP23*%
X160750000Y-87300000D02*
G75*
G02*
X157250000Y-87300000I-1750000J0D01*
G01*
X157250000Y-87300000D02*
G75*
G02*
X160750000Y-87300000I1750000J0D01*
G01*
%TO.C,C22*%
X173300000Y-126100000D02*
X176300000Y-126100000D01*
X176300000Y-131600000D01*
X173300000Y-131600000D01*
X173300000Y-126100000D01*
%TO.C,TP15*%
X116050000Y-131400000D02*
G75*
G02*
X112550000Y-131400000I-1750000J0D01*
G01*
X112550000Y-131400000D02*
G75*
G02*
X116050000Y-131400000I1750000J0D01*
G01*
%TO.C,U1*%
X171700000Y-67700000D02*
X171940000Y-67700000D01*
X171700000Y-72100000D02*
X171700000Y-67700000D01*
X171940000Y-66200000D02*
X176860000Y-66200000D01*
X171940000Y-67700000D02*
X171940000Y-66200000D01*
X171940000Y-72100000D02*
X171700000Y-72100000D01*
X171940000Y-73600000D02*
X171940000Y-72100000D01*
X176860000Y-66200000D02*
X176860000Y-67700000D01*
X176860000Y-67700000D02*
X177100000Y-67700000D01*
X176860000Y-72100000D02*
X176860000Y-73600000D01*
X176860000Y-73600000D02*
X171940000Y-73600000D01*
X177100000Y-67700000D02*
X177100000Y-72100000D01*
X177100000Y-72100000D02*
X176860000Y-72100000D01*
%TO.C,R25*%
D63*
X75644100Y-58349000D02*
X81155900Y-58349000D01*
X75644100Y-74351000D02*
X75644100Y-58349000D01*
X81155900Y-58349000D02*
X81155900Y-74351000D01*
X81155900Y-74351000D02*
X75644100Y-74351000D01*
%TO.C,U5*%
D62*
X138230000Y-124230000D02*
X138230000Y-80670000D01*
X138230000Y-124230000D02*
X119950000Y-124230000D01*
X119950000Y-80670000D02*
X138230000Y-80670000D01*
X119950000Y-80670000D02*
X119950000Y-124230000D01*
%TO.C,D10*%
X148200000Y-96050000D02*
X151400000Y-96050000D01*
X151400000Y-108910000D01*
X148200000Y-108910000D01*
X148200000Y-96050000D01*
%TO.C,D6*%
X171200000Y-84870000D02*
X174400000Y-84870000D01*
X174400000Y-97730000D01*
X171200000Y-97730000D01*
X171200000Y-84870000D01*
%TO.C,R2*%
X182000000Y-102530000D02*
X185000000Y-102530000D01*
X185000000Y-112250000D01*
X182000000Y-112250000D01*
X182000000Y-102530000D01*
%TD*%
M02*
