M48
; DRILL file KiCad 10.0.3 date 2026-09-08T09:27:23
; FORMAT={-:-/ absolute / metric / decimal}
; #@! TF.CreationDate,2026-09-08T09:27:23-03:00
; #@! TF.GenerationSoftware,Kicad,Pcbnew,10.0.3
; #@! TF.FileFunction,MixedPlating,1,2
FMAT,2
METRIC
; #@! TA.AperFunction,Plated,PTH,ViaDrill
T1C0.300
; #@! TA.AperFunction,Plated,PTH,ViaDrill
T2C0.600
; #@! TA.AperFunction,Plated,PTH,ComponentDrill
T3C0.710
; #@! TA.AperFunction,Plated,PTH,ComponentDrill
T4C0.750
; #@! TA.AperFunction,Plated,PTH,ComponentDrill
T5C0.800
; #@! TA.AperFunction,Plated,PTH,ComponentDrill
T6C0.838
; #@! TA.AperFunction,Plated,PTH,ComponentDrill
T7C0.864
; #@! TA.AperFunction,Plated,PTH,ComponentDrill
T8C1.000
; #@! TA.AperFunction,Plated,PTH,ComponentDrill
T9C1.067
; #@! TA.AperFunction,Plated,PTH,ComponentDrill
T10C1.100
; #@! TA.AperFunction,Plated,PTH,ComponentDrill
T11C1.118
; #@! TA.AperFunction,Plated,PTH,ComponentDrill
T12C1.200
; #@! TA.AperFunction,Plated,PTH,ComponentDrill
T13C1.300
; #@! TA.AperFunction,Plated,PTH,ComponentDrill
T14C1.400
; #@! TA.AperFunction,Plated,PTH,ComponentDrill
T15C1.600
; #@! TA.AperFunction,Plated,PTH,ComponentDrill
T16C3.200
; #@! TA.AperFunction,NonPlated,NPTH,ComponentDrill
T17C2.400
; #@! TA.AperFunction,NonPlated,NPTH,ComponentDrill
T18C2.500
%
G90
G05
T1
X97.95Y-107.85
X98.9Y-120.9
X99.8Y-101.4
X101.475Y-111.0
X106.9Y-118.7
X123.9Y-122.2
X127.1Y-85.1
X162.4Y-105.8
X162.4Y-106.6
X162.4Y-107.6
X162.4Y-108.4
X168.4Y-108.4
X168.5Y-105.8
X168.5Y-106.6
X168.513Y-107.608
T2
X106.6Y-124.6
X107.975Y-116.9
X109.3Y-113.4
X120.2Y-137.1
X124.5Y-94.3
X162.0Y-100.0
X162.0Y-101.4
X162.0Y-102.9
X165.6Y-95.2
X166.45Y-93.35
X167.65Y-92.15
X182.6Y-85.5
X182.6Y-87.4
X182.7Y-90.96
X184.9Y-90.96
X199.3Y-85.7
X199.3Y-86.8
X199.3Y-87.9
T3
X100.0Y-84.05
X101.2Y-78.95
X107.7Y-84.05
X108.9Y-78.95
T4
X118.46Y-60.6
X119.73Y-61.87
X121.0Y-60.6
X144.73Y-72.77
X144.76Y-78.1
X146.0Y-71.5
X146.03Y-76.83
X147.27Y-72.77
X147.3Y-78.1
X153.76Y-67.2
X155.03Y-67.2
X156.3Y-67.2
X161.96Y-87.0
X163.23Y-88.27
X164.5Y-87.0
T5
X83.65Y-134.5
X83.65Y-138.3
X91.3Y-116.2
X91.3Y-118.7
X91.5Y-106.25
X91.5Y-108.75
X92.3Y-91.19
X92.3Y-98.81
X95.6Y-94.75
X95.6Y-97.25
X95.99Y-91.4
X96.35Y-134.5
X96.35Y-138.3
X102.2Y-133.82
X102.2Y-136.36
X102.2Y-138.9
X103.61Y-91.4
X105.2Y-107.6
X105.2Y-110.1
X106.3Y-90.99
X106.3Y-98.61
X109.82Y-133.82
X109.82Y-136.36
X109.82Y-138.9
X114.25Y-134.2
X114.25Y-141.82
X117.6Y-138.85
X117.6Y-141.35
X124.09Y-71.5
X124.1Y-60.2
X124.1Y-67.82
X124.1Y-140.49
X124.1Y-148.11
X131.71Y-71.5
X133.8Y-89.65
X133.8Y-92.15
X133.99Y-71.4
X134.1Y-115.1
X134.1Y-117.6
X134.2Y-130.2
X136.2Y-130.2
X138.7Y-60.78
X138.7Y-68.4
X141.61Y-71.4
X141.7Y-60.78
X141.7Y-68.4
X144.7Y-60.78
X144.7Y-68.4
X147.7Y-60.8
X147.7Y-68.42
X148.4Y-128.6
X148.4Y-130.6
X148.59Y-86.3
X151.28Y-63.7
X152.48Y-90.1
X153.7Y-71.08
X153.7Y-78.7
X153.8Y-97.4
X154.4Y-93.1
X156.21Y-86.3
X156.34Y-97.4
X156.8Y-71.09
X156.8Y-78.71
X158.88Y-97.4
X158.9Y-63.7
X160.1Y-90.1
X162.02Y-93.1
X162.6Y-66.945
X162.6Y-68.945
X166.6Y-75.39
X166.6Y-83.01
X166.9Y-66.9
X166.9Y-69.4
X168.6Y-87.99
X168.6Y-95.61
X170.1Y-69.2
X170.1Y-71.7
X174.8Y-127.6
X174.8Y-130.1
X178.6Y-69.8
X178.6Y-72.3
X179.0Y-127.6
X179.0Y-129.6
X179.1Y-104.62
X179.1Y-107.16
X179.1Y-109.7
X181.9Y-140.4
X181.9Y-148.02
X183.5Y-103.58
X183.5Y-111.2
X194.35Y-87.0
X194.45Y-78.4
X196.85Y-87.0
X196.95Y-78.4
X197.7Y-127.0
X197.7Y-129.5
X201.1Y-104.72
X201.1Y-107.26
X201.1Y-109.8
X202.1Y-127.0
X202.1Y-129.0
X205.5Y-103.49
X205.5Y-111.11
T6
X77.5Y-70.1
X77.5Y-86.3
X79.3Y-62.6
X79.3Y-78.8
T7
X128.5Y-140.4
X128.5Y-145.4
X134.3Y-136.3
X134.3Y-141.3
X140.0Y-136.3
X140.0Y-141.3
X177.0Y-119.7
X177.5Y-140.4
X177.5Y-145.4
X182.0Y-119.7
X199.5Y-119.7
X204.5Y-119.7
T8
X93.8Y-84.2
X96.34Y-84.2
X100.6Y-74.2
X104.4Y-74.2
X108.2Y-74.2
X112.1Y-96.98
X112.1Y-99.52
X112.1Y-102.06
X112.1Y-104.6
X118.0Y-116.6
X118.0Y-120.3
X121.46Y-84.61
X121.46Y-87.15
X121.46Y-89.69
X121.46Y-92.23
X121.46Y-94.77
X121.46Y-97.31
X121.46Y-99.85
X121.46Y-102.39
X121.46Y-104.93
X121.46Y-107.47
X121.46Y-110.01
X121.46Y-112.55
X121.46Y-115.09
X121.46Y-117.63
X121.46Y-120.17
X136.7Y-84.61
X136.7Y-87.15
X136.7Y-89.69
X136.7Y-92.23
X136.7Y-94.77
X136.7Y-97.31
X136.7Y-99.85
X136.7Y-102.39
X136.7Y-104.93
X136.7Y-107.47
X136.7Y-110.01
X136.7Y-112.55
X136.7Y-115.09
X136.7Y-117.63
X136.7Y-120.17
X141.5Y-74.8
X149.5Y-134.5
X149.5Y-137.04
X149.5Y-139.58
X149.5Y-142.12
X149.7Y-94.2
X154.0Y-142.3
X154.225Y-102.9
X159.0Y-87.3
X166.8Y-61.0
X166.8Y-63.54
X169.3Y-142.95
X169.55Y-102.9
X174.7Y-100.4
X186.0Y-81.06
X186.0Y-83.6
X203.0Y-88.26
X203.0Y-90.8
T9
X202.308Y-81.805
X204.492Y-71.595
T10
X99.3Y-131.02
X99.3Y-141.18
X149.8Y-97.4
X149.8Y-107.56
X153.66Y-83.25
X156.2Y-83.25
X158.74Y-83.25
X163.3Y-73.02
X163.3Y-83.18
X169.65Y-76.66
X169.65Y-79.2
X169.65Y-81.74
X172.8Y-86.22
X172.8Y-96.38
X174.6Y-103.42
X174.6Y-113.58
X175.04Y-75.4
X185.2Y-75.4
X190.9Y-76.82
X190.9Y-86.98
X196.8Y-103.62
X196.8Y-113.78
T11
X94.1Y-57.05
X94.1Y-71.553
X96.35Y-87.6
X110.853Y-87.6
X114.7Y-57.05
X114.7Y-71.553
T12
X87.5Y-142.1
X92.8Y-142.2
X93.7Y-124.5
X95.7Y-104.8
X97.8Y-124.5
X99.8Y-104.75
X101.9Y-124.5
X104.0Y-104.8
X114.3Y-131.4
X116.2Y-144.0
X129.8Y-135.2
X140.1Y-131.1
X150.5Y-67.2
X160.8Y-61.2
X169.81Y-86.22
X173.4Y-143.1
X175.0Y-78.8
X196.0Y-75.1
X205.5Y-100.5
T13
X70.4Y-64.85
X70.4Y-69.93
X70.4Y-81.05
X70.4Y-86.13
X74.22Y-138.2
X79.3Y-138.2
X99.32Y-65.8
X104.4Y-65.8
X109.48Y-65.8
X128.72Y-63.8
X133.8Y-63.8
X186.62Y-141.0
X191.7Y-141.0
X192.92Y-64.0
X198.0Y-64.0
X203.52Y-141.0
X208.6Y-141.0
X211.4Y-66.42
X211.4Y-71.5
X211.4Y-78.5
X211.4Y-83.58
T14
X72.095Y-94.44
X72.095Y-99.52
X72.095Y-104.6
X72.095Y-109.68
X72.095Y-114.76
X72.095Y-119.84
X172.8Y-61.1
X172.8Y-63.6
X176.3Y-61.1
X176.3Y-63.6
X182.1Y-61.1
X182.1Y-63.6
X185.6Y-61.1
X185.6Y-63.6
X189.05Y-118.1
X189.05Y-121.6
X189.05Y-127.4
X189.05Y-130.9
X191.55Y-118.1
X191.55Y-121.6
X191.55Y-127.4
X191.55Y-130.9
X211.7Y-118.0
X211.7Y-121.5
X211.7Y-127.3
X211.7Y-130.8
X214.2Y-118.0
X214.2Y-121.5
X214.2Y-127.3
X214.2Y-130.8
T15
X179.2Y-81.16
X179.2Y-96.4
X190.2Y-96.36
X190.2Y-111.6
X212.4Y-96.36
X212.4Y-111.6
T16
X64.1Y-58.6
X64.2Y-146.3
X216.9Y-58.6
X216.9Y-146.4
T17
X179.2Y-62.35
X190.3Y-124.5
X212.95Y-124.4
T18
X112.475Y-91.86
X112.475Y-125.36
M30
