%TF.GenerationSoftware,KiCad,Pcbnew,10.0.3*%
%TF.CreationDate,2026-09-08T09:59:45-03:00*%
%TF.ProjectId,Placa Control Fuentes y Carga,506c6163-6120-4436-9f6e-74726f6c2046,rev?*%
%TF.SameCoordinates,Original*%
%TF.FileFunction,Paste,Top*%
%TF.FilePolarity,Positive*%
%FSLAX46Y46*%
G04 Gerber Fmt 4.6, Leading zero omitted, Abs format (unit mm)*
G04 Created by KiCad (PCBNEW 10.0.3) date 2026-09-08 09:59:45*
%MOMM*%
%LPD*%
G01*
G04 APERTURE LIST*
G04 Aperture macros list*
%AMRoundRect*
0 Rectangle with rounded corners*
0 $1 Rounding radius*
0 $2 $3 $4 $5 $6 $7 $8 $9 X,Y pos of 4 corners*
0 Add a 4 corners polygon primitive as box body*
4,1,4,$2,$3,$4,$5,$6,$7,$8,$9,$2,$3,0*
0 Add four circle primitives for the rounded corners*
1,1,$1+$1,$2,$3*
1,1,$1+$1,$4,$5*
1,1,$1+$1,$6,$7*
1,1,$1+$1,$8,$9*
0 Add four rect primitives between the rounded corners*
20,1,$1+$1,$2,$3,$4,$5,0*
20,1,$1+$1,$4,$5,$6,$7,0*
20,1,$1+$1,$6,$7,$8,$9,0*
20,1,$1+$1,$8,$9,$2,$3,0*%
G04 Aperture macros list end*
%ADD10R,2.184400X2.184400*%
%ADD11RoundRect,0.150000X0.150000X-0.875000X0.150000X0.875000X-0.150000X0.875000X-0.150000X-0.875000X0*%
%ADD12RoundRect,0.200000X0.200000X-0.750000X0.200000X0.750000X-0.200000X0.750000X-0.200000X-0.750000X0*%
%ADD13RoundRect,0.150000X0.150000X-0.825000X0.150000X0.825000X-0.150000X0.825000X-0.150000X-0.825000X0*%
%ADD14RoundRect,0.150000X0.825000X0.150000X-0.825000X0.150000X-0.825000X-0.150000X0.825000X-0.150000X0*%
%ADD15RoundRect,0.150000X-0.150000X0.825000X-0.150000X-0.825000X0.150000X-0.825000X0.150000X0.825000X0*%
%TA.AperFunction,Profile*%
%ADD16C,0.500000*%
%TD*%
%TA.AperFunction,Profile*%
%ADD17C,2.000000*%
%TD*%
G04 APERTURE END LIST*
D10*
%TO.C,CR1*%
X207200000Y-126991600D03*
X207200000Y-130700000D03*
%TD*%
D11*
%TO.C,U8*%
X93855000Y-118950000D03*
X95125000Y-118950000D03*
X96395000Y-118950000D03*
X97665000Y-118950000D03*
X98935000Y-118950000D03*
X100205000Y-118950000D03*
X101475000Y-118950000D03*
X102745000Y-118950000D03*
X102745000Y-109650000D03*
X101475000Y-109650000D03*
X100205000Y-109650000D03*
X98935000Y-109650000D03*
X97665000Y-109650000D03*
X96395000Y-109650000D03*
X95125000Y-109650000D03*
X93855000Y-109650000D03*
%TD*%
D10*
%TO.C,CR3*%
X184091600Y-68100000D03*
X187800000Y-68100000D03*
%TD*%
D12*
%TO.C,D12*%
X103500000Y-81800000D03*
X105400000Y-81800000D03*
X104450000Y-78800000D03*
%TD*%
D10*
%TO.C,CR2*%
X184000000Y-127545800D03*
X184000000Y-131254200D03*
%TD*%
D13*
%TO.C,U7*%
X97890000Y-99700000D03*
X99160000Y-99700000D03*
X100430000Y-99700000D03*
X101700000Y-99700000D03*
X101700000Y-94750000D03*
X100430000Y-94750000D03*
X99160000Y-94750000D03*
X97890000Y-94750000D03*
%TD*%
D14*
%TO.C,U6*%
X199300000Y-84500000D03*
X199300000Y-83230000D03*
X199300000Y-81960000D03*
X199300000Y-80690000D03*
X194350000Y-80690000D03*
X194350000Y-81960000D03*
X194350000Y-83230000D03*
X194350000Y-84500000D03*
%TD*%
D15*
%TO.C,U1*%
X176305000Y-67425000D03*
X175035000Y-67425000D03*
X173765000Y-67425000D03*
X172495000Y-67425000D03*
X172495000Y-72375000D03*
X173765000Y-72375000D03*
X175035000Y-72375000D03*
X176305000Y-72375000D03*
%TD*%
D16*
X60500000Y-55000000D02*
X220500000Y-55000000D01*
X220500000Y-150000000D01*
X60500000Y-150000000D01*
X60500000Y-55000000D01*
D17*
X88100000Y-61300000D02*
X88250000Y-128725000D01*
X88250000Y-128725000D02*
X104550000Y-128675000D01*
X104603368Y-144799381D02*
X104600000Y-128600000D01*
M02*
