%TF.GenerationSoftware,KiCad,Pcbnew,10.0.3*%
%TF.CreationDate,2026-09-09T11:51:38-03:00*%
%TF.ProjectId,Placa Control Fuentes y Carga,506c6163-6120-4436-9f6e-74726f6c2046,rev?*%
%TF.SameCoordinates,Original*%
%TF.FileFunction,Copper,L1,Top*%
%TF.FilePolarity,Positive*%
%FSLAX46Y46*%
G04 Gerber Fmt 4.6, Leading zero omitted, Abs format (unit mm)*
G04 Created by KiCad (PCBNEW 10.0.3) date 2026-09-09 11:51:38*
%MOMM*%
%LPD*%
G01*
G04 APERTURE LIST*
G04 Aperture macros list*
%AMRoundRect*
0 Rectangle with rounded corners*
0 $1 Rounding radius*
0 $2 $3 $4 $5 $6 $7 $8 $9 X,Y pos of 4 corners*
0 Add a 4 corners polygon primitive as box body*
4,1,4,$2,$3,$4,$5,$6,$7,$8,$9,$2,$3,0*
0 Add four circle primitives for the rounded corners*
1,1,$1+$1,$2,$3*
1,1,$1+$1,$4,$5*
1,1,$1+$1,$6,$7*
1,1,$1+$1,$8,$9*
0 Add four rect primitives between the rounded corners*
20,1,$1+$1,$2,$3,$4,$5,0*
20,1,$1+$1,$4,$5,$6,$7,0*
20,1,$1+$1,$6,$7,$8,$9,0*
20,1,$1+$1,$8,$9,$2,$3,0*%
G04 Aperture macros list end*
%TA.AperFunction,ComponentPad*%
%ADD10R,1.700000X1.700000*%
%TD*%
%TA.AperFunction,ComponentPad*%
%ADD11C,1.700000*%
%TD*%
%TA.AperFunction,ComponentPad*%
%ADD12C,5.000000*%
%TD*%
%TA.AperFunction,ComponentPad*%
%ADD13C,1.600000*%
%TD*%
%TA.AperFunction,SMDPad,CuDef*%
%ADD14R,2.184400X2.184400*%
%TD*%
%TA.AperFunction,ComponentPad*%
%ADD15RoundRect,0.250000X-1.050000X-1.050000X1.050000X-1.050000X1.050000X1.050000X-1.050000X1.050000X0*%
%TD*%
%TA.AperFunction,ComponentPad*%
%ADD16C,2.600000*%
%TD*%
%TA.AperFunction,ComponentPad*%
%ADD17R,1.574800X1.574800*%
%TD*%
%TA.AperFunction,ComponentPad*%
%ADD18C,1.574800*%
%TD*%
%TA.AperFunction,ComponentPad*%
%ADD19C,2.000000*%
%TD*%
%TA.AperFunction,ComponentPad*%
%ADD20C,6.400000*%
%TD*%
%TA.AperFunction,ComponentPad*%
%ADD21C,2.500000*%
%TD*%
%TA.AperFunction,ComponentPad*%
%ADD22C,1.371600*%
%TD*%
%TA.AperFunction,ComponentPad*%
%ADD23R,1.508000X1.508000*%
%TD*%
%TA.AperFunction,ComponentPad*%
%ADD24C,1.508000*%
%TD*%
%TA.AperFunction,ComponentPad*%
%ADD25C,1.710000*%
%TD*%
%TA.AperFunction,ComponentPad*%
%ADD26R,1.625600X1.625600*%
%TD*%
%TA.AperFunction,ComponentPad*%
%ADD27C,1.625600*%
%TD*%
%TA.AperFunction,SMDPad,CuDef*%
%ADD28RoundRect,0.150000X0.150000X-0.875000X0.150000X0.875000X-0.150000X0.875000X-0.150000X-0.875000X0*%
%TD*%
%TA.AperFunction,ComponentPad*%
%ADD29C,1.346200*%
%TD*%
%TA.AperFunction,ComponentPad*%
%ADD30R,1.100000X1.800000*%
%TD*%
%TA.AperFunction,ComponentPad*%
%ADD31RoundRect,0.275000X0.275000X0.625000X-0.275000X0.625000X-0.275000X-0.625000X0.275000X-0.625000X0*%
%TD*%
%TA.AperFunction,ComponentPad*%
%ADD32C,3.000000*%
%TD*%
%TA.AperFunction,ComponentPad*%
%ADD33RoundRect,0.249999X-0.850001X-0.850001X0.850001X-0.850001X0.850001X0.850001X-0.850001X0.850001X0*%
%TD*%
%TA.AperFunction,ComponentPad*%
%ADD34C,2.200000*%
%TD*%
%TA.AperFunction,ComponentPad*%
%ADD35RoundRect,0.250000X-0.550000X0.550000X-0.550000X-0.550000X0.550000X-0.550000X0.550000X0.550000X0*%
%TD*%
%TA.AperFunction,SMDPad,CuDef*%
%ADD36RoundRect,0.200000X0.200000X-0.750000X0.200000X0.750000X-0.200000X0.750000X-0.200000X-0.750000X0*%
%TD*%
%TA.AperFunction,ComponentPad*%
%ADD37R,1.371600X1.371600*%
%TD*%
%TA.AperFunction,ComponentPad*%
%ADD38RoundRect,0.249999X-0.850001X0.850001X-0.850001X-0.850001X0.850001X-0.850001X0.850001X0.850001X0*%
%TD*%
%TA.AperFunction,ComponentPad*%
%ADD39RoundRect,0.250000X1.350000X-1.350000X1.350000X1.350000X-1.350000X1.350000X-1.350000X-1.350000X0*%
%TD*%
%TA.AperFunction,ComponentPad*%
%ADD40C,3.200000*%
%TD*%
%TA.AperFunction,ComponentPad*%
%ADD41RoundRect,0.250000X1.050000X-1.050000X1.050000X1.050000X-1.050000X1.050000X-1.050000X-1.050000X0*%
%TD*%
%TA.AperFunction,ComponentPad*%
%ADD42R,1.905000X2.000000*%
%TD*%
%TA.AperFunction,ComponentPad*%
%ADD43O,1.905000X2.000000*%
%TD*%
%TA.AperFunction,ComponentPad*%
%ADD44RoundRect,0.275000X-0.275000X-0.625000X0.275000X-0.625000X0.275000X0.625000X-0.275000X0.625000X0*%
%TD*%
%TA.AperFunction,ComponentPad*%
%ADD45RoundRect,0.250000X0.750000X1.250000X-0.750000X1.250000X-0.750000X-1.250000X0.750000X-1.250000X0*%
%TD*%
%TA.AperFunction,ComponentPad*%
%ADD46O,2.000000X3.000000*%
%TD*%
%TA.AperFunction,ComponentPad*%
%ADD47RoundRect,0.250000X-1.350000X1.350000X-1.350000X-1.350000X1.350000X-1.350000X1.350000X1.350000X0*%
%TD*%
%TA.AperFunction,SMDPad,CuDef*%
%ADD48RoundRect,0.150000X0.150000X-0.825000X0.150000X0.825000X-0.150000X0.825000X-0.150000X-0.825000X0*%
%TD*%
%TA.AperFunction,ComponentPad*%
%ADD49C,1.440000*%
%TD*%
%TA.AperFunction,ComponentPad*%
%ADD50RoundRect,0.250000X-0.550000X-0.550000X0.550000X-0.550000X0.550000X0.550000X-0.550000X0.550000X0*%
%TD*%
%TA.AperFunction,ComponentPad*%
%ADD51RoundRect,0.250000X0.550000X-0.550000X0.550000X0.550000X-0.550000X0.550000X-0.550000X-0.550000X0*%
%TD*%
%TA.AperFunction,SMDPad,CuDef*%
%ADD52RoundRect,0.150000X0.825000X0.150000X-0.825000X0.150000X-0.825000X-0.150000X0.825000X-0.150000X0*%
%TD*%
%TA.AperFunction,ComponentPad*%
%ADD53RoundRect,0.250000X0.550000X0.550000X-0.550000X0.550000X-0.550000X-0.550000X0.550000X-0.550000X0*%
%TD*%
%TA.AperFunction,ComponentPad*%
%ADD54R,1.050000X1.500000*%
%TD*%
%TA.AperFunction,ComponentPad*%
%ADD55O,1.050000X1.500000*%
%TD*%
%TA.AperFunction,ComponentPad*%
%ADD56RoundRect,0.250000X1.050000X1.050000X-1.050000X1.050000X-1.050000X-1.050000X1.050000X-1.050000X0*%
%TD*%
%TA.AperFunction,ComponentPad*%
%ADD57R,2.000000X1.905000*%
%TD*%
%TA.AperFunction,ComponentPad*%
%ADD58O,2.000000X1.905000*%
%TD*%
%TA.AperFunction,SMDPad,CuDef*%
%ADD59RoundRect,0.150000X-0.150000X0.825000X-0.150000X-0.825000X0.150000X-0.825000X0.150000X0.825000X0*%
%TD*%
%TA.AperFunction,ComponentPad*%
%ADD60R,1.600000X1.600000*%
%TD*%
%TA.AperFunction,ComponentPad*%
%ADD61O,1.600000X1.600000*%
%TD*%
%TA.AperFunction,ViaPad*%
%ADD62C,0.600000*%
%TD*%
%TA.AperFunction,ViaPad*%
%ADD63C,1.200000*%
%TD*%
%TA.AperFunction,Conductor*%
%ADD64C,2.000000*%
%TD*%
%TA.AperFunction,Conductor*%
%ADD65C,1.500000*%
%TD*%
%TA.AperFunction,Conductor*%
%ADD66C,1.000000*%
%TD*%
%TA.AperFunction,Conductor*%
%ADD67C,0.750000*%
%TD*%
%TA.AperFunction,Conductor*%
%ADD68C,3.000000*%
%TD*%
%TA.AperFunction,Conductor*%
%ADD69C,0.500000*%
%TD*%
%TA.AperFunction,Profile*%
%ADD70C,0.500000*%
%TD*%
%TA.AperFunction,Profile*%
%ADD71C,2.000000*%
%TD*%
G04 APERTURE END LIST*
D10*
%TO.P,J11,1,Pin_1_1*%
%TO.N,+5V*%
X144700000Y-115020000D03*
D11*
%TO.P,J11,2,Pin_2_2*%
%TO.N,ADC0*%
X144700000Y-117560000D03*
%TO.P,J11,3,Pin_3_3*%
%TO.N,apagadoTX*%
X144700000Y-120100000D03*
%TO.P,J11,4,Pin_4_4*%
%TO.N,GND*%
X144700000Y-122640000D03*
%TD*%
D12*
%TO.P,H6,1,1_1*%
%TO.N,unconnected-(H6-Pad1)*%
X129300000Y-76800000D03*
%TD*%
%TO.P,H5,1,1_1*%
%TO.N,unconnected-(H5-Pad1)*%
X129000000Y-128900000D03*
%TD*%
D13*
%TO.P,C20,1*%
%TO.N,GND*%
X166900000Y-69400000D03*
%TO.P,C20,2*%
%TO.N,Net-(D4-K)*%
X166900000Y-66900000D03*
%TD*%
D14*
%TO.P,CR1,1*%
%TO.N,Net-(D2-A)*%
X207200000Y-126991600D03*
%TO.P,CR1,2*%
%TO.N,GND*%
X207200000Y-130700000D03*
%TD*%
D15*
%TO.P,J5,1,1_1*%
%TO.N,GND*%
X186620000Y-141000000D03*
D16*
%TO.P,J5,2,2_2*%
%TO.N,Net-(F6-Pad1)*%
X191700000Y-141000000D03*
%TD*%
D17*
%TO.P,F2,1*%
%TO.N,Net-(JP3-B)*%
X202307800Y-81805400D03*
D18*
%TO.P,F2,2*%
%TO.N,Net-(F2-Pad2)*%
X204492200Y-71594600D03*
%TD*%
D19*
%TO.P,TP12,1,1_1*%
%TO.N,ADC3*%
X174700000Y-100400000D03*
%TD*%
D13*
%TO.P,R10,1*%
%TO.N,F220_IN*%
X114250000Y-134200000D03*
%TO.P,R10,2*%
%TO.N,GND*%
X114250000Y-141820000D03*
%TD*%
D20*
%TO.P,H3,1,1_1*%
%TO.N,Earth*%
X216900000Y-58600000D03*
%TD*%
D21*
%TO.P,TP9,1,1_1*%
%TO.N,DI*%
X97800000Y-124500000D03*
%TD*%
D22*
%TO.P,C23,1*%
%TO.N,Net-(D3-A)*%
X182000000Y-119700000D03*
%TO.P,C23,2*%
%TO.N,GND*%
X177000000Y-119700000D03*
%TD*%
D13*
%TO.P,R16,1*%
%TO.N,Net-(Q7-B)*%
X147700000Y-60800000D03*
%TO.P,R16,2*%
%TO.N,GND*%
X147700000Y-68420000D03*
%TD*%
%TO.P,R14,1*%
%TO.N,Net-(Q6-B)*%
X141700000Y-68400000D03*
%TO.P,R14,2*%
%TO.N,GND*%
X141700000Y-60780000D03*
%TD*%
D23*
%TO.P,U9,1,-Vin_1*%
%TO.N,GND*%
X149500000Y-142120000D03*
D24*
%TO.P,U9,2,+Vin_2*%
%TO.N,+5V*%
X149500000Y-139580000D03*
%TO.P,U9,3,-Vout_3*%
%TO.N,GND_B*%
X149500000Y-137040000D03*
%TO.P,U9,4,+Vout_4*%
%TO.N,+5V_B*%
X149500000Y-134500000D03*
%TD*%
D25*
%TO.P,F3,1*%
%TO.N,Net-(D14-K)*%
X107700000Y-84050000D03*
%TO.P,F3,2*%
%TO.N,Net-(GD1-A+)*%
X108900000Y-78950000D03*
%TD*%
D13*
%TO.P,R20,1*%
%TO.N,Net-(JP4-A)*%
X95990000Y-91400000D03*
%TO.P,R20,2*%
%TO.N,Net-(D14-K)*%
X103610000Y-91400000D03*
%TD*%
D26*
%TO.P,D14,1,K_1*%
%TO.N,Net-(D14-K)*%
X114700000Y-71553200D03*
D27*
%TO.P,D14,2,A_2*%
%TO.N,Earth*%
X114700000Y-57049800D03*
%TD*%
D13*
%TO.P,C19,1*%
%TO.N,Net-(D2-A)*%
X197700000Y-127000000D03*
%TO.P,C19,2*%
%TO.N,GND*%
X197700000Y-129500000D03*
%TD*%
D20*
%TO.P,H4,1,1_1*%
%TO.N,Earth*%
X216900000Y-146400000D03*
%TD*%
D13*
%TO.P,R7,1*%
%TO.N,Net-(Q3-B)*%
X141610000Y-71400000D03*
%TO.P,R7,2*%
%TO.N,Net-(D5-K)*%
X133990000Y-71400000D03*
%TD*%
D28*
%TO.P,U8,1,VDDA_1*%
%TO.N,+5V*%
X93855000Y-118950000D03*
%TO.P,U8,2,GNDA_2*%
%TO.N,GND*%
X95125000Y-118950000D03*
%TO.P,U8,3,IN1_3*%
%TO.N,DE{slash}RE*%
X96395000Y-118950000D03*
%TO.P,U8,4,IN2_4*%
%TO.N,DI*%
X97665000Y-118950000D03*
%TO.P,U8,5,IN3_5*%
%TO.N,GND*%
X98935000Y-118950000D03*
%TO.P,U8,6,OUT4_6*%
%TO.N,RO*%
X100205000Y-118950000D03*
%TO.P,U8,7,ENA_7*%
%TO.N,+5V*%
X101475000Y-118950000D03*
%TO.P,U8,8,GNDA_8*%
%TO.N,GND*%
X102745000Y-118950000D03*
%TO.P,U8,9,GNDB_9*%
%TO.N,GND_B*%
X102745000Y-109650000D03*
%TO.P,U8,10,ENB_10*%
%TO.N,+5V_B*%
X101475000Y-109650000D03*
%TO.P,U8,11,IN4_11*%
%TO.N,Net-(U7-RO)*%
X100205000Y-109650000D03*
%TO.P,U8,12,OUT3_12*%
%TO.N,unconnected-(U8-OUT3-Pad12)*%
X98935000Y-109650000D03*
%TO.P,U8,13,OUT2_13*%
%TO.N,Net-(U7-DI)*%
X97665000Y-109650000D03*
%TO.P,U8,14,OUT1_14*%
%TO.N,Net-(U7-DE)*%
X96395000Y-109650000D03*
%TO.P,U8,15,GNDB_15*%
%TO.N,GND_B*%
X95125000Y-109650000D03*
%TO.P,U8,16,VDDB_16*%
%TO.N,+5V_B*%
X93855000Y-109650000D03*
%TD*%
D14*
%TO.P,CR3,1*%
%TO.N,Net-(JP1-A)*%
X184091600Y-68100000D03*
%TO.P,CR3,2*%
%TO.N,GND*%
X187800000Y-68100000D03*
%TD*%
D21*
%TO.P,TP10,1,1_1*%
%TO.N,RO*%
X101900000Y-124500000D03*
%TD*%
D13*
%TO.P,C4,1*%
%TO.N,+5V*%
X133800000Y-92150000D03*
%TO.P,C4,2*%
%TO.N,GND*%
X133800000Y-89650000D03*
%TD*%
D19*
%TO.P,TP19,1,1_1*%
%TO.N,IN1*%
X118000000Y-120300000D03*
%TD*%
D29*
%TO.P,R24,1*%
%TO.N,Net-(U2-NC2)*%
X79300000Y-78800000D03*
%TO.P,R24,2*%
%TO.N,Net-(J1-Pad1)*%
X77500000Y-86300000D03*
%TD*%
D30*
%TO.P,Q4,1,C_1*%
%TO.N,Net-(D6-K)*%
X164500000Y-86600000D03*
D31*
%TO.P,Q4,2,B_2*%
%TO.N,Net-(Q3-C)*%
X163230000Y-88670000D03*
%TO.P,Q4,3,E_3*%
%TO.N,Net-(D4-K)*%
X161960000Y-86600000D03*
%TD*%
D26*
%TO.P,D15,1,K_1*%
%TO.N,Net-(D14-K)*%
X110853200Y-87600000D03*
D27*
%TO.P,D15,2,A_2*%
%TO.N,Net-(D13-K)*%
X96349800Y-87600000D03*
%TD*%
D19*
%TO.P,U2,1,GND_1*%
%TO.N,GND*%
X112100000Y-104600000D03*
%TO.P,U2,2,IN1_2*%
%TO.N,IN1*%
X112100000Y-102060000D03*
%TO.P,U2,3,IN2_3*%
%TO.N,IN2*%
X112100000Y-99520000D03*
%TO.P,U2,4,VCC_4*%
%TO.N,+5V*%
X112100000Y-96980000D03*
D32*
%TO.P,U2,5,NA2_5*%
%TO.N,unconnected-(U2-NA2-Pad5)*%
X72095000Y-94440000D03*
%TO.P,U2,6,C2_6*%
%TO.N,Net-(U2-C1)*%
X72095000Y-99520000D03*
%TO.P,U2,7,NC2_7*%
%TO.N,Net-(U2-NC2)*%
X72095000Y-104600000D03*
%TO.P,U2,8,NA1_8*%
%TO.N,unconnected-(U2-NA1-Pad8)*%
X72095000Y-109680000D03*
%TO.P,U2,9,C1_9*%
%TO.N,Net-(U2-C1)*%
X72095000Y-114760000D03*
%TO.P,U2,10,NC1_10*%
%TO.N,Net-(U2-NC1)*%
X72095000Y-119840000D03*
%TD*%
D15*
%TO.P,J1,1,1_1*%
%TO.N,Net-(J1-Pad1)*%
X74220000Y-138200000D03*
D16*
%TO.P,J1,2,2_2*%
%TO.N,Net-(U2-C1)*%
X79300000Y-138200000D03*
%TD*%
D33*
%TO.P,D11,1,K_1*%
%TO.N,ADC4*%
X175040000Y-75400000D03*
D34*
%TO.P,D11,2,A_2*%
%TO.N,GND*%
X185200000Y-75400000D03*
%TD*%
D21*
%TO.P,TP21,1,1_1*%
%TO.N,Net-(Q2-C)*%
X150500000Y-67200000D03*
%TD*%
%TO.P,TP4,1,1_1*%
%TO.N,GND*%
X116200000Y-144000000D03*
%TD*%
D35*
%TO.P,C17,1*%
%TO.N,Net-(D2-A)*%
X202100000Y-127000000D03*
D13*
%TO.P,C17,2*%
%TO.N,GND*%
X202100000Y-129000000D03*
%TD*%
%TO.P,R4,1*%
%TO.N,Net-(J1-Pad1)*%
X83650000Y-138300000D03*
%TO.P,R4,2*%
%TO.N,Net-(D1-A)*%
X96350000Y-138300000D03*
%TD*%
%TO.P,C6,1*%
%TO.N,GND_B*%
X95600000Y-97250000D03*
%TO.P,C6,2*%
%TO.N,+5V_B*%
X95600000Y-94750000D03*
%TD*%
D36*
%TO.P,D12,1,K_1*%
%TO.N,Net-(D13-K)*%
X103500000Y-81800000D03*
%TO.P,D12,2,K_2*%
%TO.N,Net-(D14-K)*%
X105400000Y-81800000D03*
%TO.P,D12,3,A_3*%
%TO.N,Earth*%
X104450000Y-78800000D03*
%TD*%
D13*
%TO.P,C5,1*%
%TO.N,GND*%
X194450000Y-78400000D03*
%TO.P,C5,2*%
%TO.N,Net-(U6-FILTER)*%
X196950000Y-78400000D03*
%TD*%
%TO.P,C8,1*%
%TO.N,+5V*%
X91300000Y-116200000D03*
%TO.P,C8,2*%
%TO.N,GND*%
X91300000Y-118700000D03*
%TD*%
D10*
%TO.P,JP1,1,A_1*%
%TO.N,Net-(JP1-A)*%
X166800000Y-61000000D03*
D11*
%TO.P,JP1,2,B_2*%
%TO.N,Net-(D4-K)*%
X166800000Y-63540000D03*
%TD*%
D25*
%TO.P,F4,1*%
%TO.N,Net-(D13-K)*%
X100000000Y-84050000D03*
%TO.P,F4,2*%
%TO.N,Net-(GD1-B-)*%
X101200000Y-78950000D03*
%TD*%
D20*
%TO.P,H2,1,1_1*%
%TO.N,Earth*%
X64100000Y-58600000D03*
%TD*%
D34*
%TO.P,F6,1*%
%TO.N,Net-(F6-Pad1)*%
X189050000Y-130900000D03*
X191550000Y-130900000D03*
X189050000Y-127400000D03*
X191550000Y-127400000D03*
%TO.P,F6,2*%
%TO.N,Net-(D3-A)*%
X189050000Y-121600000D03*
X191550000Y-121600000D03*
X189050000Y-118100000D03*
X191550000Y-118100000D03*
%TD*%
D37*
%TO.P,C16,1*%
%TO.N,GND*%
X177500000Y-140400000D03*
D22*
%TO.P,C16,2*%
%TO.N,Earth*%
X177500000Y-145400000D03*
%TD*%
D10*
%TO.P,JP3,1,A_1*%
%TO.N,+12V*%
X203000000Y-90800000D03*
D11*
%TO.P,JP3,2,B_2*%
%TO.N,Net-(JP3-B)*%
X203000000Y-88260000D03*
%TD*%
D35*
%TO.P,C21,1*%
%TO.N,Net-(D3-A)*%
X179000000Y-127600000D03*
D13*
%TO.P,C21,2*%
%TO.N,GND*%
X179000000Y-129600000D03*
%TD*%
D21*
%TO.P,TP18,1,1_1*%
%TO.N,Net-(D1-A)*%
X92800000Y-142200000D03*
%TD*%
D19*
%TO.P,TP20,1,1_1*%
%TO.N,IN2*%
X118000000Y-116600000D03*
%TD*%
%TO.P,TP24,1,1_1*%
%TO.N,Net-(Q3-B)*%
X141500000Y-74800000D03*
%TD*%
D38*
%TO.P,D1,1,K_1*%
%TO.N,Net-(D1-K)*%
X99300000Y-131020000D03*
D34*
%TO.P,D1,2,A_2*%
%TO.N,Net-(D1-A)*%
X99300000Y-141180000D03*
%TD*%
D38*
%TO.P,D16,1,K_1*%
%TO.N,ADC2*%
X190900000Y-76820000D03*
D34*
%TO.P,D16,2,A_2*%
%TO.N,GND*%
X190900000Y-86980000D03*
%TD*%
D21*
%TO.P,TP8,1,1_1*%
%TO.N,DE{slash}RE*%
X93700000Y-124500000D03*
%TD*%
D30*
%TO.P,Q7,1,C_1*%
%TO.N,Net-(Q7-C)*%
X121000000Y-60200000D03*
D31*
%TO.P,Q7,2,B_2*%
%TO.N,Net-(Q7-B)*%
X119730000Y-62270000D03*
%TO.P,Q7,3,E_3*%
%TO.N,+5V*%
X118460000Y-60200000D03*
%TD*%
D11*
%TO.P,U4,1,VIN_1*%
%TO.N,+12V*%
X169550000Y-102900000D03*
%TO.P,U4,2,GND_2*%
%TO.N,GND*%
X154225000Y-102900000D03*
%TO.P,U4,3,GND_3*%
X154000000Y-142300000D03*
%TO.P,U4,4,VOUT_4*%
%TO.N,+5V*%
X169300000Y-142950000D03*
%TD*%
D13*
%TO.P,R3,1*%
%TO.N,Net-(U2-C1)*%
X83650000Y-134500000D03*
%TO.P,R3,2*%
%TO.N,Net-(D1-K)*%
X96350000Y-134500000D03*
%TD*%
D39*
%TO.P,D8,1,C_1*%
%TO.N,+12V*%
X179200000Y-96400000D03*
D40*
%TO.P,D8,2,A_2*%
%TO.N,Net-(D8-A)*%
X179200000Y-81160000D03*
%TD*%
D41*
%TO.P,J8,1,1_1*%
%TO.N,Net-(F2-Pad2)*%
X211400000Y-71500000D03*
D16*
%TO.P,J8,2,2_2*%
%TO.N,GND*%
X211400000Y-66420000D03*
%TD*%
D13*
%TO.P,C24,1*%
%TO.N,GND*%
X178600000Y-69800000D03*
%TO.P,C24,2*%
%TO.N,+5V*%
X178600000Y-72300000D03*
%TD*%
D42*
%TO.P,Q1,1,G_1*%
%TO.N,Net-(Q1-G)*%
X153660000Y-83250000D03*
D43*
%TO.P,Q1,2,D_2*%
%TO.N,+12V*%
X156200000Y-83250000D03*
%TO.P,Q1,3,S_3*%
%TO.N,Net-(D4-A)*%
X158740000Y-83250000D03*
%TD*%
D21*
%TO.P,TP6,1,1_1*%
%TO.N,Net-(U7-DI)*%
X104000000Y-104800000D03*
%TD*%
D20*
%TO.P,H1,1,1_1*%
%TO.N,Earth*%
X64200000Y-146300000D03*
%TD*%
D13*
%TO.P,C1,1*%
%TO.N,GND*%
X170100000Y-71700000D03*
%TO.P,C1,2*%
%TO.N,Net-(U1-FILTER)*%
X170100000Y-69200000D03*
%TD*%
D14*
%TO.P,CR2,1*%
%TO.N,Net-(D3-A)*%
X184000000Y-127545800D03*
%TO.P,CR2,2*%
%TO.N,GND*%
X184000000Y-131254200D03*
%TD*%
D30*
%TO.P,Q6,1,C_1*%
%TO.N,Net-(Q6-C)*%
X144730000Y-73170000D03*
D44*
%TO.P,Q6,2,B_2*%
%TO.N,Net-(Q6-B)*%
X146000000Y-71100000D03*
%TO.P,Q6,3,E_3*%
%TO.N,GND*%
X147270000Y-73170000D03*
%TD*%
D37*
%TO.P,C7,1*%
%TO.N,GND_B*%
X128500000Y-140400000D03*
D22*
%TO.P,C7,2*%
%TO.N,Earth*%
X128500000Y-145400000D03*
%TD*%
D10*
%TO.P,JP4,1,A_1*%
%TO.N,Net-(JP4-A)*%
X93800000Y-84200000D03*
D11*
%TO.P,JP4,2,B_2*%
%TO.N,Net-(D13-K)*%
X96340000Y-84200000D03*
%TD*%
D45*
%TO.P,GD1,1,A+_1*%
%TO.N,Net-(GD1-A+)*%
X108200000Y-74200000D03*
D46*
%TO.P,GD1,2,GND_2*%
%TO.N,Earth*%
X104400000Y-74200000D03*
%TO.P,GD1,3,B-_3*%
%TO.N,Net-(GD1-B-)*%
X100600000Y-74200000D03*
%TD*%
D41*
%TO.P,J9,1,1_1*%
%TO.N,Net-(F2-Pad2)*%
X211400000Y-83580000D03*
D16*
%TO.P,J9,2,2_2*%
%TO.N,GND*%
X211400000Y-78500000D03*
%TD*%
D26*
%TO.P,D13,1,K_1*%
%TO.N,Net-(D13-K)*%
X94100000Y-71553200D03*
D27*
%TO.P,D13,2,A_2*%
%TO.N,Earth*%
X94100000Y-57049800D03*
%TD*%
D15*
%TO.P,J6,1,1_1*%
%TO.N,GND*%
X203520000Y-141000000D03*
D16*
%TO.P,J6,2,2_2*%
%TO.N,Net-(F5-Pad1)*%
X208600000Y-141000000D03*
%TD*%
D47*
%TO.P,D3,1,C_1*%
%TO.N,+12V*%
X190200000Y-96360000D03*
D40*
%TO.P,D3,2,A_2*%
%TO.N,Net-(D3-A)*%
X190200000Y-111600000D03*
%TD*%
D41*
%TO.P,J4,1,1_1*%
%TO.N,Net-(J1-Pad1)*%
X70400000Y-69930000D03*
D16*
%TO.P,J4,2,2_2*%
%TO.N,Net-(U2-NC1)*%
X70400000Y-64850000D03*
%TD*%
D13*
%TO.P,R23,1*%
%TO.N,Net-(D6-K)*%
X166600000Y-83010000D03*
%TO.P,R23,2*%
%TO.N,Net-(Q5-G)*%
X166600000Y-75390000D03*
%TD*%
D48*
%TO.P,U7,1,RO_1*%
%TO.N,Net-(U7-RO)*%
X97890000Y-99700000D03*
%TO.P,U7,2,~{RE}_2*%
%TO.N,Net-(U7-DE)*%
X99160000Y-99700000D03*
%TO.P,U7,3,DE_3*%
X100430000Y-99700000D03*
%TO.P,U7,4,DI_4*%
%TO.N,Net-(U7-DI)*%
X101700000Y-99700000D03*
%TO.P,U7,5,GND_5*%
%TO.N,GND_B*%
X101700000Y-94750000D03*
%TO.P,U7,6,A_6*%
%TO.N,Net-(D14-K)*%
X100430000Y-94750000D03*
%TO.P,U7,7,B_7*%
%TO.N,Net-(D13-K)*%
X99160000Y-94750000D03*
%TO.P,U7,8,VCC_8*%
%TO.N,+5V_B*%
X97890000Y-94750000D03*
%TD*%
D21*
%TO.P,TP11,1,1_1*%
%TO.N,ADC1*%
X205500000Y-100500000D03*
%TD*%
%TO.P,TP16,1,1_1*%
%TO.N,ADC4*%
X175000000Y-78800000D03*
%TD*%
D49*
%TO.P,RV3,1,1_1*%
%TO.N,GND*%
X158880000Y-97400000D03*
%TO.P,RV3,2,2_2*%
%TO.N,ADC5*%
X156340000Y-97400000D03*
%TO.P,RV3,3,3_3*%
X153800000Y-97400000D03*
%TD*%
D10*
%TO.P,JP2,1,A_1*%
%TO.N,+12V*%
X186000000Y-83600000D03*
D11*
%TO.P,JP2,2,B_2*%
%TO.N,Net-(D8-A)*%
X186000000Y-81060000D03*
%TD*%
D19*
%TO.P,TP14,1,1_1*%
%TO.N,ADC5*%
X149700000Y-94200000D03*
%TD*%
D13*
%TO.P,C25,1*%
%TO.N,GND*%
X196850000Y-87000000D03*
%TO.P,C25,2*%
%TO.N,+5V*%
X194350000Y-87000000D03*
%TD*%
D15*
%TO.P,J10,1,1_1*%
%TO.N,Net-(GD1-B-)*%
X99320000Y-65800000D03*
D16*
%TO.P,J10,2,2_2*%
%TO.N,Earth*%
X104400000Y-65800000D03*
%TO.P,J10,3,3_3*%
%TO.N,Net-(GD1-A+)*%
X109480000Y-65800000D03*
%TD*%
D38*
%TO.P,D4,1,K_1*%
%TO.N,Net-(D4-K)*%
X163300000Y-73020000D03*
D34*
%TO.P,D4,2,A_2*%
%TO.N,Net-(D4-A)*%
X163300000Y-83180000D03*
%TD*%
D50*
%TO.P,C14,1*%
%TO.N,+5V_B*%
X136700000Y-130200000D03*
D13*
%TO.P,C14,2*%
%TO.N,GND_B*%
X138700000Y-130200000D03*
%TD*%
D51*
%TO.P,C13,1*%
%TO.N,+5V*%
X148400000Y-130600000D03*
D13*
%TO.P,C13,2*%
%TO.N,GND*%
X148400000Y-128600000D03*
%TD*%
D34*
%TO.P,F1,1*%
%TO.N,Net-(F1-Pad1)*%
X185600000Y-63600000D03*
X185600000Y-61100000D03*
X182100000Y-63600000D03*
X182100000Y-61100000D03*
%TO.P,F1,2*%
%TO.N,Net-(JP1-A)*%
X176300000Y-63600000D03*
X176300000Y-61100000D03*
X172800000Y-63600000D03*
X172800000Y-61100000D03*
%TD*%
D22*
%TO.P,C15,1*%
%TO.N,Net-(D2-A)*%
X204500000Y-119700000D03*
%TO.P,C15,2*%
%TO.N,GND*%
X199500000Y-119700000D03*
%TD*%
D30*
%TO.P,Q3,1,C_1*%
%TO.N,Net-(Q3-C)*%
X144760000Y-78500000D03*
D44*
%TO.P,Q3,2,B_2*%
%TO.N,Net-(Q3-B)*%
X146030000Y-76430000D03*
%TO.P,Q3,3,E_3*%
%TO.N,Net-(D4-K)*%
X147300000Y-78500000D03*
%TD*%
D13*
%TO.P,R12,1*%
%TO.N,Net-(D6-K)*%
X168600000Y-87990000D03*
%TO.P,R12,2*%
%TO.N,GND*%
X168600000Y-95610000D03*
%TD*%
D21*
%TO.P,TP26,1,1_1*%
%TO.N,ADC2*%
X196000000Y-75100000D03*
%TD*%
D13*
%TO.P,R2,1*%
%TO.N,Net-(D3-A)*%
X183500000Y-111200000D03*
%TO.P,R2,2*%
%TO.N,ADC3*%
X183500000Y-103580000D03*
%TD*%
%TO.P,R11,1*%
%TO.N,Net-(Q3-C)*%
X160100000Y-90100000D03*
%TO.P,R11,2*%
%TO.N,GND*%
X152480000Y-90100000D03*
%TD*%
D49*
%TO.P,RV1,1,1_1*%
%TO.N,ADC1*%
X201100000Y-104720000D03*
%TO.P,RV1,2,2_2*%
X201100000Y-107260000D03*
%TO.P,RV1,3,3_3*%
%TO.N,GND*%
X201100000Y-109800000D03*
%TD*%
D13*
%TO.P,R19,1*%
%TO.N,Net-(D13-K)*%
X92300000Y-91190000D03*
%TO.P,R19,2*%
%TO.N,GND_B*%
X92300000Y-98810000D03*
%TD*%
D47*
%TO.P,D2,1,C_1*%
%TO.N,+12V*%
X212400000Y-96360000D03*
D40*
%TO.P,D2,2,A_2*%
%TO.N,Net-(D2-A)*%
X212400000Y-111600000D03*
%TD*%
D13*
%TO.P,C9,1*%
%TO.N,GND_B*%
X91500000Y-106250000D03*
%TO.P,C9,2*%
%TO.N,+5V_B*%
X91500000Y-108750000D03*
%TD*%
%TO.P,R21,1*%
%TO.N,Earth*%
X124100000Y-148110000D03*
%TO.P,R21,2*%
%TO.N,GND_B*%
X124100000Y-140490000D03*
%TD*%
D41*
%TO.P,J3,1,1_1*%
%TO.N,Net-(J1-Pad1)*%
X70400000Y-86130000D03*
D16*
%TO.P,J3,2,2_2*%
%TO.N,Net-(U2-NC2)*%
X70400000Y-81050000D03*
%TD*%
D50*
%TO.P,U3,1*%
%TO.N,Net-(D1-K)*%
X102200000Y-133820000D03*
D13*
%TO.P,U3,2*%
%TO.N,Net-(D1-A)*%
X102200000Y-136360000D03*
%TO.P,U3,3,NC_3*%
%TO.N,unconnected-(U3-NC-Pad3)*%
X102200000Y-138900000D03*
%TO.P,U3,4*%
%TO.N,F220_IN*%
X109820000Y-138900000D03*
%TO.P,U3,5*%
%TO.N,+5V*%
X109820000Y-136360000D03*
%TO.P,U3,6*%
%TO.N,unconnected-(U3-Pad6)*%
X109820000Y-133820000D03*
%TD*%
%TO.P,R5,1*%
%TO.N,Net-(D4-K)*%
X162020000Y-93100000D03*
%TO.P,R5,2*%
%TO.N,ADC5*%
X154400000Y-93100000D03*
%TD*%
%TO.P,C12,1*%
%TO.N,+5V_B*%
X105200000Y-110100000D03*
%TO.P,C12,2*%
%TO.N,GND_B*%
X105200000Y-107600000D03*
%TD*%
%TO.P,R13,1*%
%TO.N,F220_OUT*%
X138700000Y-60780000D03*
%TO.P,R13,2*%
%TO.N,Net-(Q6-B)*%
X138700000Y-68400000D03*
%TD*%
%TO.P,R22,1*%
%TO.N,Net-(Q2-C)*%
X153700000Y-71080000D03*
%TO.P,R22,2*%
%TO.N,Net-(Q1-G)*%
X153700000Y-78700000D03*
%TD*%
%TO.P,R26,1*%
%TO.N,Earth*%
X181900000Y-148020000D03*
%TO.P,R26,2*%
%TO.N,GND*%
X181900000Y-140400000D03*
%TD*%
D21*
%TO.P,TP1,1,1_1*%
%TO.N,+5V_B*%
X129800000Y-135200000D03*
%TD*%
D52*
%TO.P,U6,1,IP+_1*%
%TO.N,+12V*%
X199300000Y-84500000D03*
%TO.P,U6,2,IP+_2*%
X199300000Y-83230000D03*
%TO.P,U6,3,IP-_3*%
%TO.N,Net-(JP3-B)*%
X199300000Y-81960000D03*
%TO.P,U6,4,IP-_4*%
X199300000Y-80690000D03*
%TO.P,U6,5,GND_5*%
%TO.N,GND*%
X194350000Y-80690000D03*
%TO.P,U6,6,FILTER_6*%
%TO.N,Net-(U6-FILTER)*%
X194350000Y-81960000D03*
%TO.P,U6,7,VIOUT_7*%
%TO.N,ADC2*%
X194350000Y-83230000D03*
%TO.P,U6,8,VCC_8*%
%TO.N,+5V*%
X194350000Y-84500000D03*
%TD*%
D13*
%TO.P,R1,1*%
%TO.N,Net-(D2-A)*%
X205500000Y-111110000D03*
%TO.P,R1,2*%
%TO.N,ADC1*%
X205500000Y-103490000D03*
%TD*%
%TO.P,R15,1*%
%TO.N,Net-(Q6-C)*%
X144700000Y-68400000D03*
%TO.P,R15,2*%
%TO.N,Net-(Q7-B)*%
X144700000Y-60780000D03*
%TD*%
D38*
%TO.P,D6,1,K_1*%
%TO.N,Net-(D6-K)*%
X172800000Y-86220000D03*
D34*
%TO.P,D6,2,A_2*%
%TO.N,+12V*%
X172800000Y-96380000D03*
%TD*%
D38*
%TO.P,D7,1,K_1*%
%TO.N,ADC1*%
X196800000Y-103620000D03*
D34*
%TO.P,D7,2,A_2*%
%TO.N,GND*%
X196800000Y-113780000D03*
%TD*%
D13*
%TO.P,C2,1*%
%TO.N,F220_IN*%
X117600000Y-138850000D03*
%TO.P,C2,2*%
%TO.N,GND*%
X117600000Y-141350000D03*
%TD*%
D21*
%TO.P,TP22,1,1_1*%
%TO.N,Net-(D6-K)*%
X169810000Y-86220000D03*
%TD*%
D53*
%TO.P,D5,1,K_1*%
%TO.N,Net-(D5-K)*%
X131710000Y-71500000D03*
D13*
%TO.P,D5,2,A_2*%
%TO.N,GND*%
X124090000Y-71500000D03*
%TD*%
D35*
%TO.P,C18,1*%
%TO.N,Net-(D4-K)*%
X162600000Y-66944888D03*
D13*
%TO.P,C18,2*%
%TO.N,GND*%
X162600000Y-68944888D03*
%TD*%
D34*
%TO.P,F5,1*%
%TO.N,Net-(F5-Pad1)*%
X211700000Y-130800000D03*
X214200000Y-130800000D03*
X211700000Y-127300000D03*
X214200000Y-127300000D03*
%TO.P,F5,2*%
%TO.N,Net-(D2-A)*%
X211700000Y-121500000D03*
X214200000Y-121500000D03*
X211700000Y-118000000D03*
X214200000Y-118000000D03*
%TD*%
D21*
%TO.P,TP5,1,1_1*%
%TO.N,Net-(U7-RO)*%
X99800000Y-104750000D03*
%TD*%
D13*
%TO.P,R8,1*%
%TO.N,Net-(Q2-B)*%
X156800000Y-71090000D03*
%TO.P,R8,2*%
%TO.N,PWM*%
X156800000Y-78710000D03*
%TD*%
%TO.P,R18,1*%
%TO.N,+5V_B*%
X106300000Y-98610000D03*
%TO.P,R18,2*%
%TO.N,Net-(D14-K)*%
X106300000Y-90990000D03*
%TD*%
D54*
%TO.P,Q2,1,E_1*%
%TO.N,GND*%
X156300000Y-67200000D03*
D55*
%TO.P,Q2,2,B_2*%
%TO.N,Net-(Q2-B)*%
X155030000Y-67200000D03*
%TO.P,Q2,3,C_3*%
%TO.N,Net-(Q2-C)*%
X153760000Y-67200000D03*
%TD*%
D21*
%TO.P,TP3,1,1_1*%
%TO.N,+5V*%
X173400000Y-143100000D03*
%TD*%
%TO.P,TP17,1,1_1*%
%TO.N,Net-(D1-K)*%
X87500000Y-142100000D03*
%TD*%
%TO.P,TP2,1,1_1*%
%TO.N,GND_B*%
X142800000Y-130500000D03*
%TD*%
D38*
%TO.P,D9,1,K_1*%
%TO.N,ADC3*%
X174600000Y-103420000D03*
D34*
%TO.P,D9,2,A_2*%
%TO.N,GND*%
X174600000Y-113580000D03*
%TD*%
D13*
%TO.P,C3,1*%
%TO.N,+5V*%
X134100000Y-115100000D03*
%TO.P,C3,2*%
%TO.N,GND*%
X134100000Y-117600000D03*
%TD*%
D21*
%TO.P,TP25,1,1_1*%
%TO.N,Net-(JP1-A)*%
X160800000Y-61200000D03*
%TD*%
D13*
%TO.P,R9,1*%
%TO.N,GND*%
X158900000Y-63700000D03*
%TO.P,R9,2*%
%TO.N,Net-(Q2-B)*%
X151280000Y-63700000D03*
%TD*%
%TO.P,R6,1*%
%TO.N,+12V*%
X156210000Y-86300000D03*
%TO.P,R6,2*%
%TO.N,Net-(Q2-C)*%
X148590000Y-86300000D03*
%TD*%
D37*
%TO.P,C10,1*%
%TO.N,+5V_B*%
X134300000Y-136300000D03*
D22*
%TO.P,C10,2*%
%TO.N,+5V*%
X134300000Y-141300000D03*
%TD*%
D37*
%TO.P,C11,1*%
%TO.N,GND_B*%
X140000000Y-136300000D03*
D22*
%TO.P,C11,2*%
%TO.N,GND*%
X140000000Y-141300000D03*
%TD*%
D49*
%TO.P,RV2,1,1_1*%
%TO.N,ADC3*%
X179100000Y-104620000D03*
%TO.P,RV2,2,2_2*%
X179100000Y-107160000D03*
%TO.P,RV2,3,3_3*%
%TO.N,GND*%
X179100000Y-109700000D03*
%TD*%
D21*
%TO.P,TP7,1,1_1*%
%TO.N,Net-(U7-DE)*%
X95700000Y-104800000D03*
%TD*%
D56*
%TO.P,J2,1,1_1*%
%TO.N,GND*%
X198000000Y-64000000D03*
D16*
%TO.P,J2,2,2_2*%
%TO.N,Net-(F1-Pad1)*%
X192920000Y-64000000D03*
%TD*%
D57*
%TO.P,Q5,1,G_1*%
%TO.N,Net-(Q5-G)*%
X169650000Y-76660000D03*
D58*
%TO.P,Q5,2,D_2*%
%TO.N,Net-(D4-K)*%
X169650000Y-79200000D03*
%TO.P,Q5,3,S_3*%
%TO.N,Net-(D8-A)*%
X169650000Y-81740000D03*
%TD*%
D19*
%TO.P,TP23,1,1_1*%
%TO.N,Net-(Q3-C)*%
X159000000Y-87300000D03*
%TD*%
D56*
%TO.P,J7,1,1_1*%
%TO.N,GND*%
X133800000Y-63800000D03*
D16*
%TO.P,J7,2,2_2*%
%TO.N,Net-(Q7-C)*%
X128720000Y-63800000D03*
%TD*%
D13*
%TO.P,C22,1*%
%TO.N,GND*%
X174800000Y-130100000D03*
%TO.P,C22,2*%
%TO.N,Net-(D3-A)*%
X174800000Y-127600000D03*
%TD*%
D21*
%TO.P,TP15,1,1_1*%
%TO.N,F220_IN*%
X114300000Y-131400000D03*
%TD*%
D13*
%TO.P,R17,1*%
%TO.N,Net-(Q7-C)*%
X124100000Y-60200000D03*
%TO.P,R17,2*%
%TO.N,GND*%
X124100000Y-67820000D03*
%TD*%
D59*
%TO.P,U1,1,IP+_1*%
%TO.N,Net-(JP1-A)*%
X176305000Y-67425000D03*
%TO.P,U1,2,IP+_2*%
X175035000Y-67425000D03*
%TO.P,U1,3,IP-_3*%
%TO.N,Net-(D4-K)*%
X173765000Y-67425000D03*
%TO.P,U1,4,IP-_4*%
X172495000Y-67425000D03*
%TO.P,U1,5,GND_5*%
%TO.N,GND*%
X172495000Y-72375000D03*
%TO.P,U1,6,FILTER_6*%
%TO.N,Net-(U1-FILTER)*%
X173765000Y-72375000D03*
%TO.P,U1,7,VIOUT_7*%
%TO.N,ADC4*%
X175035000Y-72375000D03*
%TO.P,U1,8,VCC_8*%
%TO.N,+5V*%
X176305000Y-72375000D03*
%TD*%
D29*
%TO.P,R25,1*%
%TO.N,Net-(U2-NC1)*%
X79300000Y-62600000D03*
%TO.P,R25,2*%
%TO.N,Net-(J1-Pad1)*%
X77500000Y-70100000D03*
%TD*%
D38*
%TO.P,D10,1,K_1*%
%TO.N,ADC5*%
X149800000Y-97400000D03*
D34*
%TO.P,D10,2,A_2*%
%TO.N,GND*%
X149800000Y-107560000D03*
%TD*%
D60*
%TO.P,U5,1,D13_1*%
%TO.N,unconnected-(U5-D13-Pad1)*%
X136700000Y-120170000D03*
D61*
%TO.P,U5,2,3V3_2*%
%TO.N,unconnected-(U5-3V3-Pad2)*%
X136700000Y-117630000D03*
%TO.P,U5,3,AREF_3*%
%TO.N,+5V*%
X136700000Y-115090000D03*
%TO.P,U5,4,ADC0_4*%
%TO.N,ADC0*%
X136700000Y-112550000D03*
%TO.P,U5,5,ADC1_5*%
%TO.N,ADC1*%
X136700000Y-110010000D03*
%TO.P,U5,6,ADC2_6*%
%TO.N,ADC2*%
X136700000Y-107470000D03*
%TO.P,U5,7,ADC3_7*%
%TO.N,ADC3*%
X136700000Y-104930000D03*
%TO.P,U5,8,ADC4_8*%
%TO.N,ADC4*%
X136700000Y-102390000D03*
%TO.P,U5,9,ADC5_9*%
%TO.N,ADC5*%
X136700000Y-99850000D03*
%TO.P,U5,10,ADC6_10*%
%TO.N,unconnected-(U5-ADC6-Pad10)*%
X136700000Y-97310000D03*
%TO.P,U5,11,ADC7_11*%
%TO.N,unconnected-(U5-ADC7-Pad11)*%
X136700000Y-94770000D03*
%TO.P,U5,12,5V_12*%
%TO.N,+5V*%
X136700000Y-92230000D03*
%TO.P,U5,13,~{RESET}_13*%
%TO.N,unconnected-(U5-~{RESET}-Pad13)*%
X136700000Y-89690000D03*
%TO.P,U5,14,GND_14*%
%TO.N,GND*%
X136700000Y-87150000D03*
%TO.P,U5,15,VIN_15*%
%TO.N,unconnected-(U5-VIN-Pad15)*%
X136700000Y-84610000D03*
%TO.P,U5,16,D1/TX_16*%
%TO.N,unconnected-(U5-D1{slash}TX-Pad16)*%
X121460000Y-84610000D03*
%TO.P,U5,17,D0/RX_17*%
%TO.N,unconnected-(U5-D0{slash}RX-Pad17)*%
X121460000Y-87150000D03*
%TO.P,U5,18,~{RESET}_18*%
%TO.N,unconnected-(U5-~{RESET}-Pad18)*%
X121460000Y-89690000D03*
%TO.P,U5,19,GND_19*%
%TO.N,GND*%
X121460000Y-92230000D03*
%TO.P,U5,20,D2_20*%
%TO.N,unconnected-(U5-D2-Pad20)*%
X121460000Y-94770000D03*
%TO.P,U5,21,D3_21*%
%TO.N,DE{slash}RE*%
X121460000Y-97310000D03*
%TO.P,U5,22,D4_22*%
%TO.N,DI*%
X121460000Y-99850000D03*
%TO.P,U5,23,D5_23*%
%TO.N,RO*%
X121460000Y-102390000D03*
%TO.P,U5,24,D6_24*%
%TO.N,unconnected-(U5-D6-Pad24)*%
X121460000Y-104930000D03*
%TO.P,U5,25,D7_25*%
%TO.N,F220_OUT*%
X121460000Y-107470000D03*
%TO.P,U5,26,D8_26*%
%TO.N,PWM*%
X121460000Y-110010000D03*
%TO.P,U5,27,D9_27*%
%TO.N,apagadoTX*%
X121460000Y-112550000D03*
%TO.P,U5,28,D10_28*%
%TO.N,F220_IN*%
X121460000Y-115090000D03*
%TO.P,U5,29,D11_29*%
%TO.N,IN2*%
X121460000Y-117630000D03*
%TO.P,U5,30,D12_30*%
%TO.N,IN1*%
X121460000Y-120170000D03*
%TD*%
D62*
%TO.N,GND*%
X98900000Y-120900000D03*
D63*
X106600000Y-124600000D03*
D62*
%TO.N,ADC3*%
X162600000Y-106300000D03*
X169200000Y-106300000D03*
D63*
%TO.N,+5V*%
X165600000Y-95200000D03*
X109300000Y-113400000D03*
X120200000Y-137100000D03*
X184900000Y-90960000D03*
X166450000Y-93350000D03*
X167650000Y-92150000D03*
X182700000Y-90960000D03*
X182600000Y-85500000D03*
X123800000Y-94400000D03*
X182600000Y-87400000D03*
%TO.N,GND_B*%
X106900000Y-118700000D03*
D62*
%TO.N,+5V_B*%
X101475000Y-111000000D03*
D63*
X107975000Y-116900000D03*
D62*
%TO.N,Net-(U7-DI)*%
X97950000Y-107850000D03*
%TO.N,Net-(U7-DE)*%
X99800000Y-101400000D03*
%TO.N,ADC4*%
X161600000Y-105500000D03*
X170800000Y-105500000D03*
D63*
%TO.N,+12V*%
X162000000Y-102900000D03*
X199300000Y-86800000D03*
X162000000Y-100000000D03*
X199300000Y-85700000D03*
X162000000Y-101400000D03*
X199300000Y-87900000D03*
D62*
%TO.N,ADC2*%
X170700000Y-107100000D03*
X161600000Y-107100000D03*
%TO.N,ADC1*%
X169200000Y-108000000D03*
X162600000Y-108000000D03*
%TO.N,PWM*%
X127100000Y-89000000D03*
%TD*%
%TO.N,+5V*%
D64*
X165300000Y-115000000D02*
X165500000Y-115200000D01*
X144700000Y-115020000D02*
X144720000Y-115000000D01*
X144720000Y-115000000D02*
X165300000Y-115000000D01*
%TO.N,+5V_B*%
D65*
X121400000Y-131400000D02*
X125200000Y-135200000D01*
X121400000Y-127900000D02*
X121400000Y-131400000D01*
X110500000Y-117000000D02*
X121400000Y-127900000D01*
X107975000Y-117000000D02*
X110500000Y-117000000D01*
X107975000Y-116900000D02*
X107975000Y-117000000D01*
X125200000Y-135200000D02*
X129800000Y-135200000D01*
%TO.N,GND_B*%
X118900000Y-132600000D02*
X124100000Y-137800000D01*
X118900000Y-128603019D02*
X118900000Y-132600000D01*
X108996981Y-118700000D02*
X118900000Y-128603019D01*
X124100000Y-137800000D02*
X124100000Y-140490000D01*
X106900000Y-118700000D02*
X108996981Y-118700000D01*
%TO.N,+5V_B*%
X134200000Y-136200000D02*
X134300000Y-136300000D01*
X134200000Y-132700000D02*
X134200000Y-136200000D01*
X136700000Y-130200000D02*
X134200000Y-132700000D01*
%TO.N,GND_B*%
X138700000Y-135000000D02*
X140000000Y-136300000D01*
X138700000Y-130200000D02*
X138700000Y-135000000D01*
D66*
X140100000Y-136200000D02*
X140000000Y-136300000D01*
X140100000Y-133200000D02*
X140100000Y-136200000D01*
X142800000Y-130500000D02*
X140100000Y-133200000D01*
%TO.N,GND*%
D65*
X145900000Y-128600000D02*
X148400000Y-128600000D01*
X142300000Y-125000000D02*
X145900000Y-128600000D01*
X134100000Y-123500000D02*
X135600000Y-125000000D01*
X135600000Y-125000000D02*
X142300000Y-125000000D01*
X134100000Y-117600000D02*
X134100000Y-123500000D01*
%TO.N,+5V*%
D66*
X123800000Y-94400000D02*
X123900000Y-94300000D01*
X123900000Y-94300000D02*
X132700000Y-94300000D01*
X132700000Y-94300000D02*
X133800000Y-93200000D01*
X133800000Y-93200000D02*
X133800000Y-92150000D01*
%TO.N,ADC0*%
D67*
X139650000Y-112550000D02*
X144800000Y-117700000D01*
X136700000Y-112550000D02*
X139650000Y-112550000D01*
%TO.N,+5V*%
D68*
X165500000Y-115200000D02*
X165500000Y-133000000D01*
%TO.N,ADC1*%
D69*
X144600000Y-111400000D02*
X143210000Y-110010000D01*
X143210000Y-110010000D02*
X136700000Y-110010000D01*
X160800000Y-108000000D02*
X157400000Y-111400000D01*
X157400000Y-111400000D02*
X144600000Y-111400000D01*
X162600000Y-108000000D02*
X160800000Y-108000000D01*
%TO.N,ADC2*%
X141690100Y-107470000D02*
X136700000Y-107470000D01*
X157000000Y-110700000D02*
X144920100Y-110700000D01*
X161600000Y-107100000D02*
X160600000Y-107100000D01*
X160600000Y-107100000D02*
X157000000Y-110700000D01*
X144920100Y-110700000D02*
X141690100Y-107470000D01*
%TO.N,ADC3*%
X140140050Y-104930000D02*
X136700000Y-104930000D01*
X145210050Y-110000000D02*
X140140050Y-104930000D01*
X160200000Y-106300000D02*
X156500000Y-110000000D01*
X156500000Y-110000000D02*
X145210050Y-110000000D01*
X162600000Y-106300000D02*
X160200000Y-106300000D01*
%TO.N,ADC4*%
X155900000Y-109300000D02*
X145500000Y-109300000D01*
X145500000Y-109300000D02*
X138590000Y-102390000D01*
X159700000Y-105500000D02*
X155900000Y-109300000D01*
X161600000Y-105500000D02*
X159700000Y-105500000D01*
X138590000Y-102390000D02*
X136700000Y-102390000D01*
%TO.N,GND*%
D68*
X190900000Y-90600000D02*
X193000000Y-92700000D01*
X207400000Y-92900000D02*
X207400000Y-79900000D01*
D66*
X203520000Y-134833108D02*
X203520000Y-141000000D01*
X189800000Y-69613808D02*
X189800000Y-68100000D01*
X188896108Y-70517700D02*
X189800000Y-69613808D01*
X184000000Y-131254200D02*
X184000000Y-138380000D01*
X156944888Y-68944888D02*
X162600000Y-68944888D01*
X156300000Y-67200000D02*
X156300000Y-68300000D01*
D64*
X198000000Y-66100000D02*
X198000000Y-64000000D01*
D65*
X127220000Y-92230000D02*
X132300000Y-87150000D01*
D67*
X102745000Y-118950000D02*
X102745000Y-120745000D01*
D69*
X93600000Y-121000000D02*
X91300000Y-118700000D01*
D64*
X189800000Y-68100000D02*
X196000000Y-68100000D01*
D66*
X178600000Y-69800000D02*
X179317700Y-70517700D01*
D68*
X190900000Y-86980000D02*
X190900000Y-90600000D01*
D64*
X187800000Y-68100000D02*
X189800000Y-68100000D01*
D69*
X98935000Y-118950000D02*
X98935000Y-120865000D01*
D68*
X208800000Y-78500000D02*
X211400000Y-78500000D01*
D69*
X194350000Y-80690000D02*
X194350000Y-78500000D01*
X94800000Y-121000000D02*
X93600000Y-121000000D01*
X95125000Y-120675000D02*
X94800000Y-121000000D01*
D66*
X156300000Y-68300000D02*
X156944888Y-68944888D01*
D67*
X102745000Y-120745000D02*
X106600000Y-124600000D01*
D66*
X207200000Y-130700000D02*
X207200000Y-131153108D01*
D64*
X133800000Y-63800000D02*
X133800000Y-60200000D01*
D68*
X196900000Y-92700000D02*
X198300000Y-94100000D01*
D66*
X141700000Y-60780000D02*
X141700000Y-58200000D01*
D64*
X133800000Y-60200000D02*
X135800000Y-58200000D01*
D66*
X184000000Y-138380000D02*
X186620000Y-141000000D01*
X189800000Y-70800000D02*
X189800000Y-69613808D01*
D68*
X206200000Y-94100000D02*
X207400000Y-92900000D01*
D67*
X188076330Y-68100000D02*
X187800000Y-68100000D01*
X172495000Y-72375000D02*
X172495000Y-71395000D01*
X172495000Y-71395000D02*
X172100000Y-71000000D01*
D69*
X194350000Y-78500000D02*
X194450000Y-78400000D01*
D68*
X193000000Y-92700000D02*
X196900000Y-92700000D01*
D66*
X207200000Y-131153108D02*
X203520000Y-134833108D01*
D68*
X198300000Y-94100000D02*
X206200000Y-94100000D01*
D65*
X132300000Y-87150000D02*
X136700000Y-87150000D01*
X121460000Y-92230000D02*
X127220000Y-92230000D01*
D64*
X152400000Y-58200000D02*
X157900000Y-63700000D01*
D68*
X207400000Y-79900000D02*
X208800000Y-78500000D01*
D64*
X141700000Y-58200000D02*
X152400000Y-58200000D01*
D66*
X185200000Y-75400000D02*
X189800000Y-70800000D01*
D64*
X196000000Y-68100000D02*
X198000000Y-66100000D01*
D67*
X172100000Y-71000000D02*
X170800000Y-71000000D01*
D66*
X179317700Y-70517700D02*
X188896108Y-70517700D01*
D69*
X98935000Y-120865000D02*
X98900000Y-120900000D01*
X95125000Y-118950000D02*
X95125000Y-120675000D01*
D67*
X170800000Y-71000000D02*
X170100000Y-71700000D01*
D64*
X196900000Y-89600000D02*
X196900000Y-87050000D01*
D68*
X196900000Y-89600000D02*
X196900000Y-92700000D01*
D64*
X135800000Y-58200000D02*
X141700000Y-58200000D01*
X196900000Y-87050000D02*
X196850000Y-87000000D01*
X157900000Y-63700000D02*
X158900000Y-63700000D01*
%TO.N,Net-(D4-K)*%
D66*
X161960000Y-87000000D02*
X161960000Y-93040000D01*
X173765000Y-66365000D02*
X173300000Y-65900000D01*
X150000000Y-78100000D02*
X155080000Y-73020000D01*
X173300000Y-65900000D02*
X172100000Y-65900000D01*
X169650000Y-79200000D02*
X162800000Y-79200000D01*
X155080000Y-73020000D02*
X163300000Y-73020000D01*
X173765000Y-67425000D02*
X173765000Y-66365000D01*
X161960000Y-84385585D02*
X161960000Y-87000000D01*
D67*
X172495000Y-66195000D02*
X171850000Y-65550000D01*
X172495000Y-67425000D02*
X172495000Y-66195000D01*
D64*
X169160000Y-65900000D02*
X172100000Y-65900000D01*
D66*
X147300000Y-78100000D02*
X150000000Y-78100000D01*
D64*
X166800000Y-63540000D02*
X169160000Y-65900000D01*
D66*
X162800000Y-79200000D02*
X161500000Y-80500000D01*
X172135000Y-65865000D02*
X172100000Y-65900000D01*
X161500000Y-80500000D02*
X161500000Y-83925585D01*
X161500000Y-83925585D02*
X161960000Y-84385585D01*
X161960000Y-93040000D02*
X162020000Y-93100000D01*
D67*
X172000000Y-65400000D02*
X171850000Y-65550000D01*
X171850000Y-65550000D02*
X171800000Y-65500000D01*
%TO.N,Net-(D2-A)*%
D64*
X207200000Y-126991600D02*
X207200000Y-125800000D01*
X207200000Y-126991600D02*
X207200000Y-125831386D01*
X207200000Y-125800000D02*
X211500000Y-121500000D01*
X211500000Y-121500000D02*
X211700000Y-121500000D01*
%TO.N,Net-(JP3-B)*%
D66*
X201192400Y-80690000D02*
X202307800Y-81805400D01*
X199300000Y-81960000D02*
X202153200Y-81960000D01*
X199300000Y-80690000D02*
X201192400Y-80690000D01*
X202153200Y-81960000D02*
X202307800Y-81805400D01*
%TO.N,ADC3*%
D69*
X171720000Y-106300000D02*
X174600000Y-103420000D01*
X169200000Y-106300000D02*
X171720000Y-106300000D01*
%TO.N,Earth*%
D66*
X104450000Y-78800000D02*
X104450000Y-74250000D01*
X104450000Y-74250000D02*
X104400000Y-74200000D01*
%TO.N,DI*%
D69*
X97665000Y-118950000D02*
X97665000Y-124365000D01*
X99600000Y-115600000D02*
X97665000Y-117535000D01*
X97665000Y-124365000D02*
X97800000Y-124500000D01*
X118500000Y-105400000D02*
X116000000Y-107900000D01*
X121460000Y-99850000D02*
X119450000Y-99850000D01*
X118500000Y-100800000D02*
X118500000Y-105400000D01*
X104500000Y-115600000D02*
X99600000Y-115600000D01*
X119450000Y-99850000D02*
X118500000Y-100800000D01*
X116000000Y-107900000D02*
X112200000Y-107900000D01*
X97665000Y-117535000D02*
X97665000Y-118950000D01*
X112200000Y-107900000D02*
X104500000Y-115600000D01*
%TO.N,Net-(D3-A)*%
D64*
X184000000Y-124453600D02*
X186853600Y-121600000D01*
X184000000Y-127545800D02*
X184000000Y-124453600D01*
X186853600Y-121600000D02*
X189050000Y-121600000D01*
%TO.N,Net-(Q7-B)*%
D66*
X119730000Y-67330000D02*
X119730000Y-61870000D01*
X122200000Y-69800000D02*
X119730000Y-67330000D01*
X144700000Y-60780000D02*
X144700000Y-63100000D01*
X133200000Y-69800000D02*
X122200000Y-69800000D01*
X137900000Y-65100000D02*
X133200000Y-69800000D01*
X144700000Y-63100000D02*
X142700000Y-65100000D01*
X142700000Y-65100000D02*
X137900000Y-65100000D01*
%TO.N,Net-(Q6-B)*%
X146000000Y-70500000D02*
X145500000Y-70000000D01*
X146000000Y-71500000D02*
X146000000Y-70500000D01*
X143300000Y-70000000D02*
X141700000Y-68400000D01*
X145500000Y-70000000D02*
X143300000Y-70000000D01*
%TO.N,+5V*%
D64*
X182600000Y-87400000D02*
X182600000Y-90860000D01*
X182600000Y-90860000D02*
X182700000Y-90960000D01*
X149500000Y-139580000D02*
X165930000Y-139580000D01*
D68*
X165500000Y-133000000D02*
X169300000Y-136800000D01*
X165500000Y-107700000D02*
X165500000Y-115200000D01*
D66*
X182600000Y-85500000D02*
X182600000Y-87400000D01*
D68*
X165600000Y-108800000D02*
X165600000Y-94400000D01*
D69*
X194350000Y-84500000D02*
X194350000Y-87000000D01*
D65*
X109820000Y-136360000D02*
X119460000Y-136360000D01*
X119460000Y-136360000D02*
X120200000Y-137100000D01*
D69*
X109300000Y-113400000D02*
X108800000Y-113400000D01*
D64*
X165930000Y-139580000D02*
X169300000Y-142950000D01*
D67*
X178600000Y-73700000D02*
X178600000Y-72300000D01*
D69*
X108800000Y-113400000D02*
X105100000Y-117100000D01*
D67*
X178100000Y-74200000D02*
X178600000Y-73700000D01*
D69*
X93855000Y-118950000D02*
X93855000Y-117155000D01*
D67*
X177000000Y-74200000D02*
X178100000Y-74200000D01*
D69*
X105100000Y-117100000D02*
X102100000Y-117100000D01*
X102100000Y-117100000D02*
X101475000Y-117725000D01*
D67*
X176305000Y-72375000D02*
X176305000Y-73505000D01*
D68*
X169300000Y-136800000D02*
X169300000Y-142950000D01*
X165600000Y-94400000D02*
X168200000Y-91800000D01*
D69*
X101475000Y-117725000D02*
X101475000Y-118950000D01*
X93855000Y-117155000D02*
X92900000Y-116200000D01*
D64*
X182700000Y-90960000D02*
X184900000Y-90960000D01*
D69*
X92900000Y-116200000D02*
X91300000Y-116200000D01*
D67*
X176305000Y-73505000D02*
X177000000Y-74200000D01*
%TO.N,GND_B*%
D66*
X101700000Y-94750000D02*
X101700000Y-96300000D01*
D67*
X95125000Y-109650000D02*
X95125000Y-112125000D01*
D66*
X94900000Y-97950000D02*
X95600000Y-97250000D01*
D67*
X102745000Y-112055000D02*
X102745000Y-109650000D01*
D66*
X103600000Y-107600000D02*
X105400000Y-107600000D01*
D67*
X95125000Y-112125000D02*
X95700000Y-112700000D01*
D66*
X101700000Y-95900000D02*
X101700000Y-94750000D01*
X105400000Y-107600000D02*
X107000000Y-106000000D01*
X103200000Y-99400000D02*
X103200000Y-97400000D01*
D67*
X95125000Y-107725000D02*
X93650000Y-106250000D01*
D66*
X102745000Y-108455000D02*
X103600000Y-107600000D01*
X101700000Y-96300000D02*
X100750000Y-97250000D01*
X107000000Y-103200000D02*
X103200000Y-99400000D01*
X103200000Y-97400000D02*
X101700000Y-95900000D01*
X107000000Y-106000000D02*
X107000000Y-103200000D01*
D67*
X95125000Y-109650000D02*
X95125000Y-107725000D01*
D66*
X100750000Y-97250000D02*
X95600000Y-97250000D01*
D67*
X93650000Y-106250000D02*
X91500000Y-106250000D01*
X95700000Y-112700000D02*
X102100000Y-112700000D01*
D66*
X102745000Y-109650000D02*
X102745000Y-108455000D01*
D67*
X102100000Y-112700000D02*
X102745000Y-112055000D01*
%TO.N,+5V_B*%
X93855000Y-109650000D02*
X93855000Y-112198502D01*
X105200000Y-112100000D02*
X105200000Y-110100000D01*
D66*
X95600000Y-94750000D02*
X97890000Y-94750000D01*
D67*
X93855000Y-109650000D02*
X92400000Y-109650000D01*
X95556498Y-113900000D02*
X103400000Y-113900000D01*
X92400000Y-109650000D02*
X91500000Y-108750000D01*
X101475000Y-111000000D02*
X101475000Y-109650000D01*
X103400000Y-113900000D02*
X105200000Y-112100000D01*
X93855000Y-112198502D02*
X95556498Y-113900000D01*
D66*
X133200000Y-135200000D02*
X134300000Y-136300000D01*
X129800000Y-135200000D02*
X133200000Y-135200000D01*
%TO.N,Net-(D14-K)*%
X106050000Y-84050000D02*
X107700000Y-84050000D01*
D69*
X100430000Y-94750000D02*
X100430000Y-93070000D01*
X100430000Y-93070000D02*
X102100000Y-91400000D01*
D66*
X105400000Y-81800000D02*
X105400000Y-83400000D01*
X105400000Y-83400000D02*
X106050000Y-84050000D01*
D69*
X102100000Y-91400000D02*
X103610000Y-91400000D01*
%TO.N,Net-(JP4-A)*%
D66*
X93800000Y-89210000D02*
X93800000Y-84200000D01*
X95990000Y-91400000D02*
X93800000Y-89210000D01*
%TO.N,DE{slash}RE*%
D69*
X117600000Y-104800000D02*
X115500000Y-106900000D01*
X96395000Y-121805000D02*
X93700000Y-124500000D01*
X117600000Y-99700000D02*
X117600000Y-104800000D01*
X115500000Y-106900000D02*
X112100000Y-106900000D01*
X121460000Y-97310000D02*
X119990000Y-97310000D01*
X96395000Y-117605000D02*
X96395000Y-118950000D01*
X119990000Y-97310000D02*
X117600000Y-99700000D01*
X104100000Y-114900000D02*
X99100000Y-114900000D01*
X112100000Y-106900000D02*
X104100000Y-114900000D01*
X96395000Y-118950000D02*
X96395000Y-121805000D01*
X99100000Y-114900000D02*
X96395000Y-117605000D01*
%TO.N,RO*%
X100205000Y-122805000D02*
X101900000Y-124500000D01*
X116279898Y-109020102D02*
X112069848Y-109020102D01*
X119300000Y-103100000D02*
X119300000Y-106000000D01*
X119300000Y-106000000D02*
X116279898Y-109020102D01*
X101400000Y-116300000D02*
X100200000Y-117500000D01*
X120010000Y-102390000D02*
X119300000Y-103100000D01*
X100205000Y-118950000D02*
X100205000Y-122805000D01*
X112069848Y-109020102D02*
X104789949Y-116300000D01*
X100200000Y-117500000D02*
X100205000Y-117505000D01*
X104789949Y-116300000D02*
X101400000Y-116300000D01*
X100205000Y-117505000D02*
X100205000Y-118950000D01*
X121460000Y-102390000D02*
X120010000Y-102390000D01*
%TO.N,Net-(U7-RO)*%
D67*
X100205000Y-109650000D02*
X100205000Y-105155000D01*
X100205000Y-105155000D02*
X99800000Y-104750000D01*
X99800000Y-104345000D02*
X97890000Y-102435000D01*
X97890000Y-102435000D02*
X97890000Y-99700000D01*
X99800000Y-104750000D02*
X99800000Y-104345000D01*
D69*
X99805000Y-104750000D02*
X99800000Y-104750000D01*
%TO.N,Net-(U7-DI)*%
X104005000Y-104650000D02*
X104005000Y-104750000D01*
D67*
X101700000Y-99700000D02*
X101700000Y-101000000D01*
X97950000Y-107850000D02*
X97665000Y-108135000D01*
X97665000Y-108135000D02*
X97665000Y-109650000D01*
X104000000Y-103300000D02*
X104000000Y-104800000D01*
X101700000Y-101000000D02*
X104000000Y-103300000D01*
%TO.N,Net-(U7-DE)*%
D69*
X96395000Y-104860000D02*
X96505000Y-104750000D01*
D67*
X96395000Y-107651497D02*
X96400000Y-107646497D01*
X96400000Y-107646497D02*
X96400000Y-106900000D01*
D69*
X99800000Y-101400000D02*
X99800000Y-99800000D01*
D67*
X96395000Y-109650000D02*
X96395000Y-107651497D01*
D69*
X100430000Y-99700000D02*
X99900000Y-99700000D01*
X99900000Y-99700000D02*
X99160000Y-99700000D01*
D67*
X95700000Y-105555000D02*
X96395000Y-104860000D01*
X96400000Y-106900000D02*
X95700000Y-106200000D01*
X95700000Y-106200000D02*
X95700000Y-105555000D01*
%TO.N,Net-(JP1-A)*%
D66*
X176305000Y-63605000D02*
X176300000Y-63600000D01*
X175035000Y-67425000D02*
X175035000Y-64865000D01*
D64*
X184091600Y-68100000D02*
X180800000Y-68100000D01*
D66*
X176305000Y-67425000D02*
X176305000Y-63605000D01*
X175035000Y-64865000D02*
X176300000Y-63600000D01*
D64*
X180800000Y-68100000D02*
X176300000Y-63600000D01*
%TO.N,Net-(D13-K)*%
D69*
X99160000Y-88860000D02*
X97900000Y-87600000D01*
X97900000Y-87600000D02*
X96349800Y-87600000D01*
D66*
X102750000Y-84050000D02*
X100000000Y-84050000D01*
X103500000Y-83300000D02*
X102750000Y-84050000D01*
X103500000Y-81800000D02*
X103500000Y-83300000D01*
D69*
X99160000Y-94750000D02*
X99160000Y-88860000D01*
%TO.N,Net-(U2-C1)*%
D68*
X78860000Y-114760000D02*
X72095000Y-114760000D01*
X79200000Y-138100000D02*
X79200000Y-102500000D01*
X76220000Y-99520000D02*
X72095000Y-99520000D01*
X79200000Y-102500000D02*
X76220000Y-99520000D01*
X78900000Y-114800000D02*
X78860000Y-114760000D01*
X79300000Y-138200000D02*
X79200000Y-138100000D01*
%TO.N,ADC4*%
D69*
X172200000Y-99700000D02*
X175000000Y-96900000D01*
X171200000Y-105500000D02*
X172200000Y-104500000D01*
D66*
X175035000Y-72375000D02*
X175035000Y-75395000D01*
D69*
X170800000Y-105500000D02*
X171200000Y-105500000D01*
X172200000Y-104500000D02*
X172200000Y-99700000D01*
D66*
X175035000Y-75395000D02*
X175040000Y-75400000D01*
X175000000Y-78800000D02*
X175000000Y-96900000D01*
%TO.N,Net-(U6-FILTER)*%
D69*
X196140000Y-81960000D02*
X196950000Y-81150000D01*
X194350000Y-81960000D02*
X196140000Y-81960000D01*
X196950000Y-81150000D02*
X196950000Y-78400000D01*
%TO.N,+12V*%
D64*
X179200000Y-85200000D02*
X179200000Y-96400000D01*
X186000000Y-83600000D02*
X180800000Y-83600000D01*
X162000000Y-97100000D02*
X162000000Y-102900000D01*
X156210000Y-91310000D02*
X162000000Y-97100000D01*
X156210000Y-89410000D02*
X156210000Y-91310000D01*
X180800000Y-83600000D02*
X179200000Y-85200000D01*
D66*
X199300000Y-85700000D02*
X199300000Y-87900000D01*
D64*
X156210000Y-86300000D02*
X156210000Y-89410000D01*
D66*
X199300000Y-83230000D02*
X199300000Y-85700000D01*
%TO.N,ADC2*%
D67*
X190900000Y-76200000D02*
X192000000Y-75100000D01*
D69*
X173089950Y-107100000D02*
X177489950Y-111500000D01*
D67*
X190900000Y-76820000D02*
X190900000Y-76200000D01*
X192400000Y-79300000D02*
X190900000Y-77800000D01*
X194350000Y-83230000D02*
X192830000Y-83230000D01*
X192830000Y-83230000D02*
X192400000Y-82800000D01*
D69*
X170700000Y-107100000D02*
X173089950Y-107100000D01*
X179510050Y-111500000D02*
X188150000Y-102860050D01*
X190900000Y-82600000D02*
X190900000Y-76820000D01*
X188150000Y-85350000D02*
X190900000Y-82600000D01*
X177489950Y-111500000D02*
X179510050Y-111500000D01*
D67*
X190900000Y-77800000D02*
X190900000Y-76820000D01*
X192000000Y-75100000D02*
X196000000Y-75100000D01*
D69*
X188150000Y-102860050D02*
X188150000Y-85350000D01*
D67*
X192400000Y-82800000D02*
X192400000Y-79300000D01*
%TO.N,Net-(D8-A)*%
D64*
X185900000Y-81160000D02*
X186000000Y-81060000D01*
D68*
X179200000Y-81160000D02*
X179310000Y-81050000D01*
D64*
X179200000Y-81160000D02*
X185900000Y-81160000D01*
%TO.N,Net-(U1-FILTER)*%
D67*
X172700000Y-69200000D02*
X170100000Y-69200000D01*
X173765000Y-72375000D02*
X173765000Y-70265000D01*
X173765000Y-70265000D02*
X172700000Y-69200000D01*
%TO.N,ADC1*%
D69*
X173000000Y-108000000D02*
X177200000Y-112200000D01*
X169200000Y-108000000D02*
X173000000Y-108000000D01*
X177200000Y-112200000D02*
X179800000Y-112200000D01*
X179800000Y-112200000D02*
X188380000Y-103620000D01*
X188380000Y-103620000D02*
X196800000Y-103620000D01*
%TO.N,ADC5*%
X136700000Y-99850000D02*
X147350000Y-99850000D01*
X147350000Y-99850000D02*
X149800000Y-97400000D01*
D66*
X149700000Y-94200000D02*
X149700000Y-97300000D01*
X149700000Y-97300000D02*
X149800000Y-97400000D01*
%TO.N,PWM*%
D67*
X127100000Y-89000000D02*
X127100000Y-83700000D01*
X154310000Y-81200000D02*
X156800000Y-78710000D01*
X127100000Y-83700000D02*
X129600000Y-81200000D01*
X129600000Y-81200000D02*
X154310000Y-81200000D01*
%TD*%
%TA.AperFunction,Conductor*%
%TO.N,+5V*%
G36*
X171128374Y-108967747D02*
G01*
X171233699Y-108980659D01*
X171265039Y-108988760D01*
X171355808Y-109025418D01*
X171383987Y-109041357D01*
X171462178Y-109100266D01*
X171485267Y-109122952D01*
X171545546Y-109200099D01*
X171561975Y-109227989D01*
X171600227Y-109318106D01*
X171608878Y-109349305D01*
X171623638Y-109454365D01*
X171624839Y-109470543D01*
X171934934Y-145311924D01*
X171933994Y-145328275D01*
X171920798Y-145434561D01*
X171912531Y-145466185D01*
X171875151Y-145557669D01*
X171858908Y-145586032D01*
X171798924Y-145664569D01*
X171775834Y-145687704D01*
X171697413Y-145747839D01*
X171669079Y-145764137D01*
X171577666Y-145801692D01*
X171546065Y-145810018D01*
X171439800Y-145823420D01*
X171423454Y-145824391D01*
X164074964Y-145774924D01*
X164055768Y-145773298D01*
X163931629Y-145752978D01*
X163895141Y-145740977D01*
X163791890Y-145688104D01*
X163760825Y-145665512D01*
X163678705Y-145583573D01*
X163656043Y-145552557D01*
X163602940Y-145449417D01*
X163590859Y-145412955D01*
X163570266Y-145288861D01*
X163568599Y-145269685D01*
X163547099Y-142863428D01*
X168200000Y-142863428D01*
X168200000Y-143036571D01*
X168227085Y-143207584D01*
X168280592Y-143372259D01*
X168359196Y-143526525D01*
X168363709Y-143532736D01*
X168363709Y-143532737D01*
X168817037Y-143079409D01*
X168834075Y-143142993D01*
X168899901Y-143257007D01*
X168992993Y-143350099D01*
X169107007Y-143415925D01*
X169170589Y-143432962D01*
X168717261Y-143886289D01*
X168717262Y-143886290D01*
X168723471Y-143890801D01*
X168877742Y-143969408D01*
X169042415Y-144022914D01*
X169213429Y-144050000D01*
X169386571Y-144050000D01*
X169557584Y-144022914D01*
X169722257Y-143969408D01*
X169876525Y-143890803D01*
X169882736Y-143886289D01*
X169882737Y-143886289D01*
X169429410Y-143432962D01*
X169492993Y-143415925D01*
X169607007Y-143350099D01*
X169700099Y-143257007D01*
X169765925Y-143142993D01*
X169782962Y-143079409D01*
X170236289Y-143532736D01*
X170240803Y-143526525D01*
X170319408Y-143372257D01*
X170372914Y-143207584D01*
X170400000Y-143036571D01*
X170400000Y-142863428D01*
X170372914Y-142692415D01*
X170319408Y-142527742D01*
X170240801Y-142373471D01*
X170236290Y-142367262D01*
X170236289Y-142367261D01*
X169782962Y-142820589D01*
X169765925Y-142757007D01*
X169700099Y-142642993D01*
X169607007Y-142549901D01*
X169492993Y-142484075D01*
X169429409Y-142467037D01*
X169882737Y-142013709D01*
X169876525Y-142009196D01*
X169722259Y-141930592D01*
X169557584Y-141877085D01*
X169386571Y-141850000D01*
X169213429Y-141850000D01*
X169042415Y-141877085D01*
X168877740Y-141930592D01*
X168723480Y-142009193D01*
X168723463Y-142009203D01*
X168717261Y-142013708D01*
X168717261Y-142013709D01*
X169170590Y-142467037D01*
X169107007Y-142484075D01*
X168992993Y-142549901D01*
X168899901Y-142642993D01*
X168834075Y-142757007D01*
X168817037Y-142820590D01*
X168363709Y-142367261D01*
X168363708Y-142367261D01*
X168359203Y-142373463D01*
X168359193Y-142373480D01*
X168280592Y-142527740D01*
X168227085Y-142692415D01*
X168200000Y-142863428D01*
X163547099Y-142863428D01*
X163539467Y-142009196D01*
X163504010Y-138040832D01*
X163249403Y-109545224D01*
X163250318Y-109529049D01*
X163263225Y-109423744D01*
X163271319Y-109392420D01*
X163307971Y-109301649D01*
X163323900Y-109273482D01*
X163382794Y-109195293D01*
X163405471Y-109172207D01*
X163482598Y-109111923D01*
X163510472Y-109095497D01*
X163600571Y-109057230D01*
X163631749Y-109048576D01*
X163736804Y-109033790D01*
X163752966Y-109032586D01*
X171112197Y-108966832D01*
X171128374Y-108967747D01*
G37*
%TD.AperFunction*%
%TD*%
%TA.AperFunction,Conductor*%
%TO.N,GND*%
G36*
X139603979Y-140205021D02*
G01*
X139612611Y-140207555D01*
X139624865Y-140215429D01*
X139639042Y-140218779D01*
X139653669Y-140233937D01*
X139671392Y-140245325D01*
X139677444Y-140258574D01*
X139687559Y-140269057D01*
X139691669Y-140289718D01*
X139700421Y-140308879D01*
X139698348Y-140323297D01*
X139701191Y-140337584D01*
X139693478Y-140357186D01*
X139690482Y-140378038D01*
X139680478Y-140390227D01*
X139675610Y-140402603D01*
X139650212Y-140427111D01*
X139646056Y-140430108D01*
X139620982Y-140444091D01*
X139612322Y-140447679D01*
X139556732Y-140470704D01*
X139537264Y-140483711D01*
X139537264Y-140483712D01*
X139793775Y-140740222D01*
X139827260Y-140801544D01*
X139822276Y-140871236D01*
X139780405Y-140927170D01*
X139768097Y-140935288D01*
X139734875Y-140954469D01*
X139734866Y-140954476D01*
X139654476Y-141034866D01*
X139654470Y-141034875D01*
X139635290Y-141068095D01*
X139584723Y-141116310D01*
X139516116Y-141129532D01*
X139451251Y-141103564D01*
X139440223Y-141093775D01*
X139183712Y-140837264D01*
X139183711Y-140837264D01*
X139170704Y-140856732D01*
X139100162Y-141027036D01*
X139100156Y-141027061D01*
X139064200Y-141207824D01*
X139064200Y-141207827D01*
X139064200Y-141392172D01*
X139064200Y-141392174D01*
X139064199Y-141392174D01*
X139100156Y-141572937D01*
X139100162Y-141572964D01*
X139170700Y-141743261D01*
X139170706Y-141743272D01*
X139183710Y-141762732D01*
X139183711Y-141762733D01*
X139440224Y-141506219D01*
X139501543Y-141472737D01*
X139571235Y-141477721D01*
X139627169Y-141519592D01*
X139635288Y-141531901D01*
X139635891Y-141532945D01*
X139654474Y-141565131D01*
X139734869Y-141645526D01*
X139734872Y-141645527D01*
X139734875Y-141645530D01*
X139768093Y-141664709D01*
X139816308Y-141715276D01*
X139829530Y-141783884D01*
X139803562Y-141848748D01*
X139793773Y-141859776D01*
X139537263Y-142116285D01*
X139537264Y-142116285D01*
X139537264Y-142116286D01*
X139537265Y-142116287D01*
X139556725Y-142129291D01*
X139556733Y-142129295D01*
X139727036Y-142199837D01*
X139727044Y-142199839D01*
X139907827Y-142235799D01*
X139907831Y-142235800D01*
X140092169Y-142235800D01*
X140092172Y-142235799D01*
X140272959Y-142199839D01*
X140443269Y-142129294D01*
X140462733Y-142116286D01*
X140206223Y-141859775D01*
X140172739Y-141798454D01*
X140177723Y-141728762D01*
X140219595Y-141672829D01*
X140231900Y-141664711D01*
X140265131Y-141645526D01*
X140345526Y-141565131D01*
X140364709Y-141531904D01*
X140415276Y-141483689D01*
X140483883Y-141470466D01*
X140548748Y-141496434D01*
X140559777Y-141506224D01*
X140816285Y-141762733D01*
X140816286Y-141762733D01*
X140829294Y-141743269D01*
X140899837Y-141572963D01*
X140899839Y-141572955D01*
X140935799Y-141392172D01*
X140935800Y-141392169D01*
X140935800Y-141207831D01*
X140935799Y-141207827D01*
X140901397Y-141034875D01*
X140899844Y-141027069D01*
X140899842Y-141027061D01*
X140899839Y-141027044D01*
X140899837Y-141027036D01*
X140829295Y-140856733D01*
X140829291Y-140856725D01*
X140816287Y-140837265D01*
X140816286Y-140837264D01*
X140816285Y-140837264D01*
X140559776Y-141093773D01*
X140498453Y-141127258D01*
X140428761Y-141122274D01*
X140372828Y-141080402D01*
X140364709Y-141068093D01*
X140345530Y-141034875D01*
X140345527Y-141034872D01*
X140345526Y-141034869D01*
X140265131Y-140954474D01*
X140231901Y-140935288D01*
X140183688Y-140884722D01*
X140170466Y-140816115D01*
X140196434Y-140751251D01*
X140206215Y-140740230D01*
X140462734Y-140483712D01*
X140443265Y-140470703D01*
X140443262Y-140470701D01*
X140443259Y-140470700D01*
X140382137Y-140445383D01*
X140380437Y-140444013D01*
X140378274Y-140443706D01*
X140351788Y-140427377D01*
X140344778Y-140421728D01*
X140334609Y-140407083D01*
X140327733Y-140401542D01*
X140320972Y-140387441D01*
X140304931Y-140364339D01*
X140302436Y-140294514D01*
X140338088Y-140234424D01*
X140394084Y-140204498D01*
X140399072Y-140203320D01*
X140407412Y-140202348D01*
X140409713Y-140201293D01*
X140412759Y-140201725D01*
X140427573Y-140200000D01*
X144185364Y-140200000D01*
X144195085Y-140200382D01*
X144204775Y-140201144D01*
X144214452Y-140202289D01*
X144294573Y-140214979D01*
X144313489Y-140219520D01*
X144331819Y-140225475D01*
X144349791Y-140232918D01*
X144408926Y-140263049D01*
X144425506Y-140273209D01*
X144441115Y-140284551D01*
X144455902Y-140297181D01*
X144502816Y-140344095D01*
X144515451Y-140358888D01*
X144516040Y-140359698D01*
X144526785Y-140374487D01*
X144536952Y-140391078D01*
X144567075Y-140450198D01*
X144574520Y-140468171D01*
X144580479Y-140486509D01*
X144585022Y-140505434D01*
X144592179Y-140550623D01*
X144594899Y-140567796D01*
X144597710Y-140585544D01*
X144598854Y-140595209D01*
X144599617Y-140604900D01*
X144600000Y-140614633D01*
X144600000Y-141000000D01*
X148440064Y-141000000D01*
X148467591Y-141003958D01*
X148474998Y-141005023D01*
X148488066Y-141008860D01*
X148546844Y-141046634D01*
X148575870Y-141110189D01*
X148568918Y-141172218D01*
X148565962Y-141179930D01*
X148553278Y-141204441D01*
X148510504Y-141268454D01*
X148510503Y-141268461D01*
X148510499Y-141268476D01*
X148496000Y-141341369D01*
X148496000Y-141341371D01*
X148496000Y-141870000D01*
X148887750Y-141870000D01*
X148954789Y-141889685D01*
X149000544Y-141942489D01*
X149010488Y-142011647D01*
X149007524Y-142026095D01*
X149000000Y-142054171D01*
X149000000Y-142185828D01*
X149007524Y-142213905D01*
X149005863Y-142283755D01*
X148966701Y-142341618D01*
X148902473Y-142369123D01*
X148887750Y-142370000D01*
X148496000Y-142370000D01*
X148496000Y-142898629D01*
X148510503Y-142971539D01*
X148510504Y-142971543D01*
X148510505Y-142971544D01*
X148565760Y-143054239D01*
X148648455Y-143109494D01*
X148648459Y-143109496D01*
X148713731Y-143122479D01*
X148716465Y-143123203D01*
X148721373Y-143124000D01*
X148721374Y-143124000D01*
X149250000Y-143124000D01*
X149250000Y-142732250D01*
X149269685Y-142665211D01*
X149322489Y-142619456D01*
X149391647Y-142609512D01*
X149406093Y-142612475D01*
X149434174Y-142620000D01*
X149565825Y-142620000D01*
X149565826Y-142620000D01*
X149593905Y-142612476D01*
X149663755Y-142614137D01*
X149721618Y-142653299D01*
X149749123Y-142717527D01*
X149750000Y-142732250D01*
X149750000Y-143124000D01*
X150278626Y-143124000D01*
X150278807Y-143124000D01*
X150280804Y-143123566D01*
X150351540Y-143109496D01*
X150351544Y-143109494D01*
X150386815Y-143085928D01*
X150434239Y-143054239D01*
X150489494Y-142971544D01*
X150489496Y-142971540D01*
X150503566Y-142900804D01*
X150504000Y-142898807D01*
X150504000Y-142370000D01*
X150112250Y-142370000D01*
X150045211Y-142350315D01*
X149999456Y-142297511D01*
X149989512Y-142228353D01*
X149992476Y-142213905D01*
X149996245Y-142199838D01*
X150000000Y-142185826D01*
X150000000Y-142054174D01*
X149992476Y-142026094D01*
X149994137Y-141956245D01*
X150033299Y-141898382D01*
X150097527Y-141870877D01*
X150112250Y-141870000D01*
X150504000Y-141870000D01*
X150504000Y-141346506D01*
X150504000Y-141341373D01*
X150503999Y-141341371D01*
X150489496Y-141268459D01*
X150489495Y-141268455D01*
X150442156Y-141197609D01*
X150437496Y-141186388D01*
X150437141Y-141183117D01*
X150433674Y-141175870D01*
X150429605Y-141162872D01*
X150428362Y-141093014D01*
X150465086Y-141033573D01*
X150520506Y-141004901D01*
X150528569Y-141003071D01*
X150555996Y-141000000D01*
X153640578Y-141000000D01*
X153653641Y-141003836D01*
X153675514Y-141005023D01*
X153682182Y-141006981D01*
X153697180Y-141016620D01*
X153707617Y-141019685D01*
X153714740Y-141027906D01*
X153740960Y-141044757D01*
X153769984Y-141108313D01*
X153760040Y-141177471D01*
X153733701Y-141208309D01*
X153726686Y-141220097D01*
X153721366Y-141222750D01*
X153715768Y-141229306D01*
X153710833Y-141232578D01*
X153680630Y-141247161D01*
X153642917Y-141259414D01*
X153577740Y-141280592D01*
X153577738Y-141280592D01*
X153577738Y-141280593D01*
X153577734Y-141280594D01*
X153423491Y-141359187D01*
X153423473Y-141359196D01*
X153423459Y-141359205D01*
X153417261Y-141363707D01*
X153417261Y-141363708D01*
X153417261Y-141363709D01*
X153627949Y-141574397D01*
X153743850Y-141690297D01*
X153777335Y-141751620D01*
X153772351Y-141821311D01*
X153730480Y-141877245D01*
X153718171Y-141885364D01*
X153692996Y-141899899D01*
X153692990Y-141899903D01*
X153599903Y-141992990D01*
X153599899Y-141992996D01*
X153585364Y-142018171D01*
X153534796Y-142066385D01*
X153466189Y-142079607D01*
X153401325Y-142053638D01*
X153390297Y-142043850D01*
X153288936Y-141942489D01*
X153063709Y-141717261D01*
X153063708Y-141717261D01*
X153059205Y-141723459D01*
X153059196Y-141723473D01*
X153059187Y-141723491D01*
X152980594Y-141877734D01*
X152980592Y-141877738D01*
X152980592Y-141877740D01*
X152927085Y-142042415D01*
X152927084Y-142042418D01*
X152927084Y-142042420D01*
X152900000Y-142213423D01*
X152900000Y-142386575D01*
X152916855Y-142492993D01*
X152927085Y-142557584D01*
X152980592Y-142722259D01*
X152980593Y-142722260D01*
X152980594Y-142722264D01*
X153050193Y-142858856D01*
X153055067Y-142879157D01*
X153063709Y-142882737D01*
X153390297Y-142556149D01*
X153451620Y-142522664D01*
X153521311Y-142527648D01*
X153577245Y-142569519D01*
X153585365Y-142581830D01*
X153599901Y-142607007D01*
X153692993Y-142700099D01*
X153718167Y-142714633D01*
X153766382Y-142765199D01*
X153779606Y-142833806D01*
X153753638Y-142898671D01*
X153743848Y-142909701D01*
X153417260Y-143236288D01*
X153417261Y-143236288D01*
X153417261Y-143236289D01*
X153417262Y-143236290D01*
X153423471Y-143240801D01*
X153577742Y-143319408D01*
X153742415Y-143372914D01*
X153913429Y-143400000D01*
X154086570Y-143400000D01*
X154086571Y-143400000D01*
X154257584Y-143372914D01*
X154422257Y-143319408D01*
X154558858Y-143249805D01*
X154579156Y-143244931D01*
X154582737Y-143236288D01*
X154256150Y-142909702D01*
X154222665Y-142848379D01*
X154227649Y-142778688D01*
X154269520Y-142722754D01*
X154281822Y-142714639D01*
X154307007Y-142700099D01*
X154400099Y-142607007D01*
X154414634Y-142581830D01*
X154465199Y-142533616D01*
X154533805Y-142520391D01*
X154598671Y-142546358D01*
X154609702Y-142556149D01*
X154936288Y-142882736D01*
X154936288Y-142882735D01*
X154936289Y-142882736D01*
X154940803Y-142876525D01*
X155019408Y-142722257D01*
X155072914Y-142557584D01*
X155100000Y-142386571D01*
X155100000Y-142213428D01*
X155072914Y-142042415D01*
X155019408Y-141877742D01*
X154940801Y-141723471D01*
X154936290Y-141717262D01*
X154936289Y-141717261D01*
X154936288Y-141717261D01*
X154609701Y-142043848D01*
X154548378Y-142077333D01*
X154478686Y-142072349D01*
X154422753Y-142030477D01*
X154414633Y-142018167D01*
X154410869Y-142011647D01*
X154400099Y-141992993D01*
X154307007Y-141899901D01*
X154281830Y-141885365D01*
X154233614Y-141834798D01*
X154220392Y-141766191D01*
X154246360Y-141701326D01*
X154256149Y-141690297D01*
X154582737Y-141363709D01*
X154576525Y-141359196D01*
X154576519Y-141359192D01*
X154422265Y-141280594D01*
X154422261Y-141280593D01*
X154422259Y-141280592D01*
X154355284Y-141258830D01*
X154320229Y-141247440D01*
X154308987Y-141239752D01*
X154288555Y-141231866D01*
X154282818Y-141227943D01*
X154271533Y-141214142D01*
X154262554Y-141208002D01*
X154258319Y-141197981D01*
X154238591Y-141173854D01*
X154230627Y-141104439D01*
X154261456Y-141041739D01*
X154296024Y-141020560D01*
X154306350Y-141011507D01*
X154312239Y-141010625D01*
X154319594Y-141006118D01*
X154325303Y-141004530D01*
X154358516Y-141000000D01*
X162416232Y-141000000D01*
X162425559Y-141000351D01*
X162434877Y-141001055D01*
X162444140Y-141002107D01*
X162456317Y-141003958D01*
X162550946Y-141018340D01*
X162569150Y-141022532D01*
X162586843Y-141028038D01*
X162604205Y-141034914D01*
X162688599Y-141075943D01*
X162704730Y-141085350D01*
X162719995Y-141095868D01*
X162734540Y-141107600D01*
X162743812Y-141116310D01*
X162802927Y-141171846D01*
X162815544Y-141185631D01*
X162826990Y-141200205D01*
X162837387Y-141215721D01*
X162852216Y-141241924D01*
X162852217Y-141241931D01*
X162852219Y-141241931D01*
X162883602Y-141297392D01*
X162891556Y-141314309D01*
X162898151Y-141331618D01*
X162903468Y-141349523D01*
X162926328Y-141455084D01*
X162927959Y-141464277D01*
X162929241Y-141473520D01*
X162930176Y-141482817D01*
X162998942Y-142583084D01*
X162999001Y-142584110D01*
X162999045Y-142584922D01*
X162999091Y-142585823D01*
X162999619Y-142597084D01*
X162999694Y-142599013D01*
X162999756Y-142600994D01*
X162999802Y-142602935D01*
X162999978Y-142614197D01*
X162999989Y-142615158D01*
X162999996Y-142616046D01*
X163000000Y-142617023D01*
X163000000Y-148825607D01*
X162999734Y-148833721D01*
X162999205Y-148841788D01*
X162998413Y-148849837D01*
X162986192Y-148942795D01*
X162983038Y-148958677D01*
X162982113Y-148962135D01*
X162978886Y-148974199D01*
X162978879Y-148974224D01*
X162973678Y-148989569D01*
X162942531Y-149064881D01*
X162935377Y-149079412D01*
X162927339Y-149093358D01*
X162918352Y-149106831D01*
X162868789Y-149171548D01*
X162858124Y-149183735D01*
X162846761Y-149195124D01*
X162834594Y-149205821D01*
X162769993Y-149255524D01*
X162756536Y-149264542D01*
X162742609Y-149272610D01*
X162728096Y-149279796D01*
X162652844Y-149311114D01*
X162637515Y-149316347D01*
X162626839Y-149319228D01*
X162621982Y-149320540D01*
X162606105Y-149323730D01*
X162513176Y-149336157D01*
X162505127Y-149336967D01*
X162497058Y-149337514D01*
X162488947Y-149337798D01*
X106411791Y-149462419D01*
X106403693Y-149462172D01*
X106395640Y-149461663D01*
X106387604Y-149460892D01*
X106294795Y-149448925D01*
X106278930Y-149445816D01*
X106263401Y-149441707D01*
X106248081Y-149436562D01*
X106172811Y-149405696D01*
X106158280Y-149398598D01*
X106144332Y-149390618D01*
X106130859Y-149381696D01*
X106073112Y-149337789D01*
X106066106Y-149332462D01*
X106053906Y-149321863D01*
X106042487Y-149310554D01*
X106031767Y-149298454D01*
X105981901Y-149234173D01*
X105972848Y-149220785D01*
X105964730Y-149206908D01*
X105957502Y-149192467D01*
X105951402Y-149177991D01*
X105941914Y-149155477D01*
X105925905Y-149117490D01*
X105920612Y-149102217D01*
X105916352Y-149086728D01*
X105913092Y-149070904D01*
X105900221Y-148978181D01*
X105899377Y-148970197D01*
X105898788Y-148962119D01*
X105898464Y-148954071D01*
X105892938Y-148213471D01*
X123049499Y-148213471D01*
X123089864Y-148416394D01*
X123089868Y-148416412D01*
X123089870Y-148416420D01*
X123169058Y-148607596D01*
X123284023Y-148779655D01*
X123284027Y-148779661D01*
X123430336Y-148925970D01*
X123430340Y-148925973D01*
X123430342Y-148925975D01*
X123430345Y-148925977D01*
X123430349Y-148925980D01*
X123430348Y-148925980D01*
X123430411Y-148926032D01*
X123430448Y-148926046D01*
X123602402Y-149040941D01*
X123793580Y-149120130D01*
X123984540Y-149158114D01*
X123993559Y-149159908D01*
X123995794Y-149160409D01*
X123996532Y-149160500D01*
X124203466Y-149160500D01*
X124207586Y-149160500D01*
X124215435Y-149158118D01*
X124406420Y-149120130D01*
X124597598Y-149040941D01*
X124769655Y-148925977D01*
X124915977Y-148779655D01*
X125030941Y-148607598D01*
X125110130Y-148416420D01*
X125150500Y-148213465D01*
X125150500Y-148006535D01*
X125110130Y-147803580D01*
X125030941Y-147612402D01*
X124916046Y-147440449D01*
X124916036Y-147440417D01*
X124915980Y-147440348D01*
X124915980Y-147440349D01*
X124915977Y-147440345D01*
X124915975Y-147440342D01*
X124915973Y-147440340D01*
X124915970Y-147440336D01*
X124769662Y-147294028D01*
X124769655Y-147294022D01*
X124683626Y-147236540D01*
X124683625Y-147236540D01*
X124597604Y-147179062D01*
X124597595Y-147179057D01*
X124474010Y-147127867D01*
X124406420Y-147099870D01*
X124406412Y-147099868D01*
X124406404Y-147099866D01*
X124406394Y-147099864D01*
X124203471Y-147059500D01*
X124203469Y-147059500D01*
X124203465Y-147059500D01*
X123996535Y-147059500D01*
X123996530Y-147059500D01*
X123996528Y-147059500D01*
X123793604Y-147099864D01*
X123793579Y-147099870D01*
X123602404Y-147179057D01*
X123430337Y-147294027D01*
X123284027Y-147440337D01*
X123169057Y-147612404D01*
X123089870Y-147803579D01*
X123089864Y-147803604D01*
X123049500Y-148006527D01*
X123049500Y-148006530D01*
X123049500Y-148213469D01*
X123049500Y-148213471D01*
X123049499Y-148213471D01*
X105892938Y-148213471D01*
X105860620Y-143881941D01*
X114700000Y-143881941D01*
X114700000Y-144118057D01*
X114735584Y-144342723D01*
X114736934Y-144351247D01*
X114808096Y-144570260D01*
X114809898Y-144575804D01*
X114917086Y-144786172D01*
X114917087Y-144786174D01*
X114977337Y-144869103D01*
X114977339Y-144869105D01*
X114977339Y-144869104D01*
X114977340Y-144869105D01*
X115517093Y-144329351D01*
X115578414Y-144295868D01*
X115648105Y-144300852D01*
X115704039Y-144342723D01*
X115712158Y-144355032D01*
X115715942Y-144361586D01*
X115719881Y-144368408D01*
X115831592Y-144480119D01*
X115844964Y-144487839D01*
X115893179Y-144538407D01*
X115906401Y-144607014D01*
X115880433Y-144671879D01*
X115870644Y-144682907D01*
X115330892Y-145222657D01*
X115330893Y-145222657D01*
X115330893Y-145222658D01*
X115413828Y-145282914D01*
X115624197Y-145390102D01*
X115755782Y-145432857D01*
X115785252Y-145453007D01*
X115848749Y-145463064D01*
X115848752Y-145463065D01*
X115848751Y-145463065D01*
X116081948Y-145500000D01*
X116318051Y-145500000D01*
X116318052Y-145500000D01*
X116534169Y-145465770D01*
X127558437Y-145465770D01*
X127599677Y-145673091D01*
X127599678Y-145673097D01*
X127599685Y-145673118D01*
X127670254Y-145843490D01*
X127670258Y-145843498D01*
X127670260Y-145843501D01*
X127670265Y-145843510D01*
X127670270Y-145843517D01*
X127772732Y-145996861D01*
X127903134Y-146127263D01*
X127903140Y-146127268D01*
X127903144Y-146127271D01*
X128056489Y-146229734D01*
X128056495Y-146229737D01*
X128056496Y-146229738D01*
X128221664Y-146298153D01*
X128222214Y-146298386D01*
X128222359Y-146298504D01*
X128225687Y-146300079D01*
X128407777Y-146336300D01*
X128592219Y-146336300D01*
X128592220Y-146336300D01*
X128616558Y-146331458D01*
X128713915Y-146312092D01*
X128713916Y-146312092D01*
X128728814Y-146309128D01*
X128773109Y-146300318D01*
X128943504Y-146229738D01*
X129096856Y-146127271D01*
X129227271Y-145996856D01*
X129329738Y-145843504D01*
X129400318Y-145673109D01*
X129436300Y-145492217D01*
X129436300Y-145307783D01*
X129436300Y-145307780D01*
X129436300Y-145307777D01*
X129400102Y-145125804D01*
X129398386Y-145122214D01*
X129398153Y-145121664D01*
X129329738Y-144956496D01*
X129329737Y-144956495D01*
X129329734Y-144956489D01*
X129227271Y-144803144D01*
X129227268Y-144803140D01*
X129227263Y-144803134D01*
X129096861Y-144672732D01*
X128998508Y-144607014D01*
X128943510Y-144570265D01*
X128943501Y-144570260D01*
X128943498Y-144570258D01*
X128943490Y-144570254D01*
X128773118Y-144499685D01*
X128773098Y-144499678D01*
X128773090Y-144499676D01*
X128592223Y-144463700D01*
X128592219Y-144463700D01*
X128592217Y-144463700D01*
X128407783Y-144463700D01*
X128407781Y-144463700D01*
X128407776Y-144463700D01*
X128226908Y-144499676D01*
X128226900Y-144499678D01*
X128226880Y-144499685D01*
X128056508Y-144570254D01*
X128056481Y-144570270D01*
X127903137Y-144672732D01*
X127772732Y-144803137D01*
X127670270Y-144956481D01*
X127670254Y-144956508D01*
X127599685Y-145126880D01*
X127599678Y-145126900D01*
X127599676Y-145126908D01*
X127563700Y-145307775D01*
X127563700Y-145447850D01*
X127558437Y-145465770D01*
X116534169Y-145465770D01*
X116551247Y-145463065D01*
X116775802Y-145390102D01*
X116986163Y-145282918D01*
X116986169Y-145282914D01*
X117041886Y-145242432D01*
X117047649Y-145239124D01*
X117063900Y-145235222D01*
X117069105Y-145222657D01*
X116529354Y-144682907D01*
X116495869Y-144621584D01*
X116500853Y-144551893D01*
X116542724Y-144495959D01*
X116555022Y-144487846D01*
X116568408Y-144480119D01*
X116680119Y-144368408D01*
X116687839Y-144355035D01*
X116738402Y-144306821D01*
X116807009Y-144293596D01*
X116871875Y-144319562D01*
X116882907Y-144329354D01*
X117422657Y-144869105D01*
X117422657Y-144869104D01*
X117422658Y-144869105D01*
X117422658Y-144869104D01*
X117436126Y-144863525D01*
X117442343Y-144842355D01*
X117446340Y-144836509D01*
X117454103Y-144825822D01*
X117482914Y-144786169D01*
X117482918Y-144786163D01*
X117590102Y-144575802D01*
X117663065Y-144351247D01*
X117700000Y-144118052D01*
X117700000Y-143881947D01*
X117663065Y-143648752D01*
X117590102Y-143424197D01*
X117482914Y-143213828D01*
X117446338Y-143163487D01*
X117436799Y-143136750D01*
X117422657Y-143130892D01*
X116882907Y-143670644D01*
X116821584Y-143704129D01*
X116751893Y-143699145D01*
X116695959Y-143657274D01*
X116687839Y-143644964D01*
X116680119Y-143631592D01*
X116568408Y-143519881D01*
X116555035Y-143512160D01*
X116506819Y-143461595D01*
X116493595Y-143392988D01*
X116519562Y-143328123D01*
X116529346Y-143317099D01*
X117069105Y-142777340D01*
X117069104Y-142777338D01*
X117064856Y-142774252D01*
X116986174Y-142717087D01*
X116986172Y-142717086D01*
X116775806Y-142609898D01*
X116702024Y-142585925D01*
X116644215Y-142567141D01*
X116614746Y-142546991D01*
X116318057Y-142500000D01*
X116318052Y-142500000D01*
X116081948Y-142500000D01*
X116081943Y-142500000D01*
X115848755Y-142536933D01*
X115848752Y-142536934D01*
X115698289Y-142585823D01*
X115624194Y-142609898D01*
X115413825Y-142717086D01*
X115330894Y-142777339D01*
X115330893Y-142777340D01*
X115870645Y-143317092D01*
X115904130Y-143378415D01*
X115899146Y-143448107D01*
X115857274Y-143504040D01*
X115844968Y-143512157D01*
X115831595Y-143519879D01*
X115831592Y-143519881D01*
X115831589Y-143519883D01*
X115719883Y-143631589D01*
X115719881Y-143631592D01*
X115712159Y-143644967D01*
X115661590Y-143693181D01*
X115592983Y-143706402D01*
X115528119Y-143680433D01*
X115517092Y-143670645D01*
X114977340Y-143130893D01*
X114977339Y-143130894D01*
X114917086Y-143213825D01*
X114809898Y-143424194D01*
X114736933Y-143648755D01*
X114700000Y-143881941D01*
X105860620Y-143881941D01*
X105844464Y-141716574D01*
X113200000Y-141716574D01*
X113200000Y-141923424D01*
X113240342Y-142126240D01*
X113240350Y-142126275D01*
X113319498Y-142317355D01*
X113319500Y-142317359D01*
X113351377Y-142365067D01*
X113351378Y-142365067D01*
X113713502Y-142002942D01*
X113774823Y-141969459D01*
X113844514Y-141974443D01*
X113900448Y-142016314D01*
X113908567Y-142028624D01*
X113929915Y-142065599D01*
X113929919Y-142065604D01*
X113929920Y-142065606D01*
X114004394Y-142140080D01*
X114004395Y-142140081D01*
X114004397Y-142140082D01*
X114041373Y-142161430D01*
X114089588Y-142211996D01*
X114102812Y-142280603D01*
X114076844Y-142345468D01*
X114067054Y-142356498D01*
X113704930Y-142718619D01*
X113704931Y-142718619D01*
X113704931Y-142718620D01*
X113704932Y-142718621D01*
X113752633Y-142750495D01*
X113752639Y-142750498D01*
X113943725Y-142829649D01*
X113943733Y-142829651D01*
X113943752Y-142829654D01*
X113943757Y-142829656D01*
X114143608Y-142869408D01*
X114145843Y-142869909D01*
X114146581Y-142870000D01*
X114353417Y-142870000D01*
X114353418Y-142870000D01*
X114358318Y-142869204D01*
X114361039Y-142868483D01*
X114556266Y-142829651D01*
X114556274Y-142829649D01*
X114747366Y-142750495D01*
X114790760Y-142721499D01*
X114795066Y-142718621D01*
X114795067Y-142718620D01*
X114432945Y-142356498D01*
X114399460Y-142295175D01*
X114404444Y-142225483D01*
X114446316Y-142169550D01*
X114458618Y-142161434D01*
X114495606Y-142140080D01*
X114570080Y-142065606D01*
X114591430Y-142028625D01*
X114641995Y-141980411D01*
X114710602Y-141967187D01*
X114775467Y-141993154D01*
X114786498Y-142002945D01*
X115148619Y-142365067D01*
X115148620Y-142365067D01*
X115148621Y-142365066D01*
X115180495Y-142317366D01*
X115247769Y-142154956D01*
X115247769Y-142154955D01*
X115259650Y-142126270D01*
X115259651Y-142126266D01*
X115298787Y-141929509D01*
X115299123Y-141928020D01*
X115299307Y-141927688D01*
X115300000Y-141923418D01*
X115300000Y-141716581D01*
X115299909Y-141715843D01*
X115299408Y-141713608D01*
X115259656Y-141513757D01*
X115259654Y-141513752D01*
X115259651Y-141513733D01*
X115259649Y-141513725D01*
X115180498Y-141322639D01*
X115171642Y-141309385D01*
X115171641Y-141309383D01*
X115148621Y-141274932D01*
X115148620Y-141274931D01*
X115148619Y-141274931D01*
X114786497Y-141637053D01*
X114725174Y-141670538D01*
X114655482Y-141665554D01*
X114599549Y-141623682D01*
X114591430Y-141611374D01*
X114570080Y-141574394D01*
X114495606Y-141499920D01*
X114495605Y-141499919D01*
X114495602Y-141499917D01*
X114458626Y-141478569D01*
X114410410Y-141428002D01*
X114397188Y-141359395D01*
X114423156Y-141294530D01*
X114432945Y-141283501D01*
X114520892Y-141195554D01*
X114795067Y-140921378D01*
X114795067Y-140921377D01*
X114747359Y-140889500D01*
X114747356Y-140889498D01*
X114747355Y-140889498D01*
X114556275Y-140810350D01*
X114556240Y-140810342D01*
X114353424Y-140770000D01*
X114353420Y-140770000D01*
X114146579Y-140770000D01*
X114146574Y-140770000D01*
X113943758Y-140810342D01*
X113943725Y-140810350D01*
X113752636Y-140889502D01*
X113752633Y-140889503D01*
X113752631Y-140889505D01*
X113734919Y-140901340D01*
X113704932Y-140921377D01*
X113704932Y-140921378D01*
X114067055Y-141283501D01*
X114100540Y-141344824D01*
X114095556Y-141414516D01*
X114053684Y-141470449D01*
X114041374Y-141478569D01*
X114004397Y-141499917D01*
X114004392Y-141499921D01*
X113929921Y-141574392D01*
X113929917Y-141574397D01*
X113908569Y-141611374D01*
X113858002Y-141659590D01*
X113789395Y-141672812D01*
X113724530Y-141646844D01*
X113713501Y-141637055D01*
X113351378Y-141274932D01*
X113351377Y-141274932D01*
X113326189Y-141312629D01*
X113319502Y-141322636D01*
X113240350Y-141513725D01*
X113240342Y-141513758D01*
X113200000Y-141716574D01*
X105844464Y-141716574D01*
X105838532Y-140921573D01*
X105838738Y-140913457D01*
X105839208Y-140905376D01*
X105839943Y-140897308D01*
X105844978Y-140856733D01*
X105851503Y-140804135D01*
X105854548Y-140788210D01*
X105858603Y-140772611D01*
X105863702Y-140757213D01*
X105883571Y-140708213D01*
X105894375Y-140681567D01*
X105901435Y-140666978D01*
X105909388Y-140652961D01*
X105918297Y-140639411D01*
X105967512Y-140574272D01*
X105978102Y-140562010D01*
X105989430Y-140550513D01*
X106001541Y-140539734D01*
X106004099Y-140537742D01*
X106065929Y-140489559D01*
X106079318Y-140480467D01*
X106093241Y-140472289D01*
X106107707Y-140465021D01*
X106182920Y-140433208D01*
X106198195Y-140427895D01*
X106213766Y-140423597D01*
X106229613Y-140420322D01*
X106322655Y-140407365D01*
X106330672Y-140406515D01*
X106338778Y-140405923D01*
X106346834Y-140405598D01*
X116911664Y-140326772D01*
X116946629Y-140331536D01*
X116960708Y-140335556D01*
X117019764Y-140372894D01*
X117048891Y-140433949D01*
X117051230Y-140447674D01*
X117051233Y-140447679D01*
X117417055Y-140813501D01*
X117450540Y-140874824D01*
X117445556Y-140944516D01*
X117403684Y-141000449D01*
X117391374Y-141008569D01*
X117354397Y-141029917D01*
X117354392Y-141029921D01*
X117279921Y-141104392D01*
X117279917Y-141104397D01*
X117258569Y-141141374D01*
X117208002Y-141189590D01*
X117139395Y-141202812D01*
X117074530Y-141176844D01*
X117063501Y-141167055D01*
X116701378Y-140804932D01*
X116701377Y-140804932D01*
X116669505Y-140852631D01*
X116669503Y-140852633D01*
X116669502Y-140852636D01*
X116590350Y-141043725D01*
X116590342Y-141043758D01*
X116550000Y-141246574D01*
X116550000Y-141453424D01*
X116590342Y-141656240D01*
X116590350Y-141656275D01*
X116664297Y-141834798D01*
X116669500Y-141847359D01*
X116701377Y-141895067D01*
X116701378Y-141895067D01*
X117063502Y-141532942D01*
X117124823Y-141499459D01*
X117194514Y-141504443D01*
X117250448Y-141546314D01*
X117258567Y-141558624D01*
X117279915Y-141595599D01*
X117279919Y-141595604D01*
X117279920Y-141595606D01*
X117354394Y-141670080D01*
X117354395Y-141670081D01*
X117354397Y-141670082D01*
X117391373Y-141691430D01*
X117439588Y-141741996D01*
X117452812Y-141810603D01*
X117426844Y-141875468D01*
X117417054Y-141886498D01*
X117054931Y-142248619D01*
X117054931Y-142248620D01*
X117054932Y-142248621D01*
X117102633Y-142280495D01*
X117102639Y-142280498D01*
X117293725Y-142359649D01*
X117293733Y-142359651D01*
X117293752Y-142359654D01*
X117293757Y-142359656D01*
X117493608Y-142399408D01*
X117495843Y-142399909D01*
X117496581Y-142400000D01*
X117703417Y-142400000D01*
X117703418Y-142400000D01*
X117708318Y-142399204D01*
X117711039Y-142398483D01*
X117906266Y-142359651D01*
X117906274Y-142359649D01*
X118097366Y-142280495D01*
X118145066Y-142248621D01*
X118145067Y-142248620D01*
X117782945Y-141886498D01*
X117749460Y-141825175D01*
X117754444Y-141755483D01*
X117796316Y-141699550D01*
X117808618Y-141691434D01*
X117845606Y-141670080D01*
X117920080Y-141595606D01*
X117941430Y-141558625D01*
X117991995Y-141510411D01*
X118060602Y-141497187D01*
X118125467Y-141523154D01*
X118136498Y-141532945D01*
X118498619Y-141895066D01*
X118498620Y-141895067D01*
X118498621Y-141895066D01*
X118530495Y-141847366D01*
X118609649Y-141656274D01*
X118609651Y-141656266D01*
X118648483Y-141461039D01*
X118649204Y-141458318D01*
X118650000Y-141453418D01*
X118650000Y-141246581D01*
X118649909Y-141245843D01*
X118649408Y-141243608D01*
X118609656Y-141043757D01*
X118609654Y-141043752D01*
X118609651Y-141043733D01*
X118609649Y-141043725D01*
X118530498Y-140852639D01*
X118530495Y-140852633D01*
X118498621Y-140804932D01*
X118498620Y-140804931D01*
X118498619Y-140804931D01*
X118136497Y-141167053D01*
X118075174Y-141200538D01*
X118005482Y-141195554D01*
X117949549Y-141153682D01*
X117941430Y-141141374D01*
X117920080Y-141104394D01*
X117845606Y-141029920D01*
X117845605Y-141029919D01*
X117845602Y-141029917D01*
X117808626Y-141008569D01*
X117760410Y-140958002D01*
X117747188Y-140889395D01*
X117773156Y-140824530D01*
X117782945Y-140813501D01*
X117884167Y-140712279D01*
X118145574Y-140450870D01*
X118151313Y-140420608D01*
X118158713Y-140406149D01*
X118161324Y-140390116D01*
X118174301Y-140375690D01*
X118183142Y-140358416D01*
X118197666Y-140349717D01*
X118208053Y-140338172D01*
X118240414Y-140324114D01*
X118252081Y-140320922D01*
X118283860Y-140316534D01*
X119987622Y-140303822D01*
X119995725Y-140304027D01*
X120003793Y-140304496D01*
X120011866Y-140305230D01*
X120105096Y-140316802D01*
X120121009Y-140319844D01*
X120136619Y-140323903D01*
X120152009Y-140329002D01*
X120189218Y-140344095D01*
X120227689Y-140359700D01*
X120242283Y-140366764D01*
X120256307Y-140374726D01*
X120269847Y-140383631D01*
X120334999Y-140432875D01*
X120347262Y-140443473D01*
X120358738Y-140454783D01*
X120369525Y-140466906D01*
X120419706Y-140531339D01*
X120428815Y-140544762D01*
X120436963Y-140558644D01*
X120444244Y-140573146D01*
X120476031Y-140648370D01*
X120481355Y-140663696D01*
X120485635Y-140679229D01*
X120488912Y-140695118D01*
X120501826Y-140788142D01*
X120502677Y-140796200D01*
X120503254Y-140804139D01*
X120503265Y-140804291D01*
X120503587Y-140812398D01*
X120505520Y-141088280D01*
X120505520Y-141088281D01*
X120518189Y-142897506D01*
X120518189Y-142897505D01*
X120518190Y-142897506D01*
X120518190Y-142897505D01*
X120518191Y-142897507D01*
X120518447Y-142897505D01*
X120518514Y-142897505D01*
X120518521Y-142897505D01*
X120639339Y-142897082D01*
X120641319Y-142896644D01*
X121007783Y-142894077D01*
X121010362Y-142894059D01*
X121010367Y-142894060D01*
X121018176Y-142894005D01*
X121018179Y-142894006D01*
X138103902Y-142774352D01*
X138103902Y-142774351D01*
X138127685Y-142774185D01*
X138127699Y-142774185D01*
X138132330Y-142774153D01*
X138132335Y-142774152D01*
X138155002Y-142773994D01*
X138155006Y-142773992D01*
X138600496Y-142770874D01*
X138600097Y-140712255D01*
X138600362Y-140704157D01*
X138600891Y-140696074D01*
X138601684Y-140688007D01*
X138602839Y-140679229D01*
X138613926Y-140594902D01*
X138617084Y-140579009D01*
X138621257Y-140563426D01*
X138626459Y-140548094D01*
X138657704Y-140472630D01*
X138664866Y-140458102D01*
X138672929Y-140444133D01*
X138681928Y-140430662D01*
X138731626Y-140365879D01*
X138742307Y-140353696D01*
X138753721Y-140342280D01*
X138765899Y-140331599D01*
X138830676Y-140281886D01*
X138844154Y-140272880D01*
X138848832Y-140270178D01*
X138858120Y-140264815D01*
X138872647Y-140257649D01*
X138910370Y-140242022D01*
X138948090Y-140226394D01*
X138963437Y-140221185D01*
X138971690Y-140218973D01*
X138979008Y-140217013D01*
X138994906Y-140213849D01*
X139069240Y-140204062D01*
X139088048Y-140201586D01*
X139096081Y-140200796D01*
X139104185Y-140200264D01*
X139112278Y-140200000D01*
X139569052Y-140200000D01*
X139603979Y-140205021D01*
G37*
%TD.AperFunction*%
%TD*%
%TA.AperFunction,Conductor*%
%TO.N,GND*%
G36*
X178056834Y-128805023D02*
G01*
X178069902Y-128808860D01*
X178081692Y-128816437D01*
X178095363Y-128819539D01*
X178110505Y-128834954D01*
X178128680Y-128846634D01*
X178134502Y-128859382D01*
X178144326Y-128869383D01*
X178148730Y-128890535D01*
X178157706Y-128910189D01*
X178155997Y-128925439D01*
X178158568Y-128937785D01*
X178150759Y-128972204D01*
X178147804Y-128979916D01*
X178135115Y-129004440D01*
X178069503Y-129102633D01*
X178069502Y-129102635D01*
X177990350Y-129293725D01*
X177990342Y-129293758D01*
X177950000Y-129496574D01*
X177950000Y-129703424D01*
X177990342Y-129906240D01*
X177990350Y-129906275D01*
X178069497Y-130097355D01*
X178069509Y-130097373D01*
X178101377Y-130145067D01*
X178463502Y-129782941D01*
X178524823Y-129749458D01*
X178594514Y-129754442D01*
X178650448Y-129796313D01*
X178658568Y-129808624D01*
X178679917Y-129845602D01*
X178679919Y-129845605D01*
X178679920Y-129845606D01*
X178754394Y-129920080D01*
X178754395Y-129920081D01*
X178754397Y-129920082D01*
X178791373Y-129941430D01*
X178839588Y-129991996D01*
X178852812Y-130060603D01*
X178826844Y-130125468D01*
X178817054Y-130136498D01*
X178454931Y-130498619D01*
X178454931Y-130498620D01*
X178454932Y-130498621D01*
X178502633Y-130530495D01*
X178502639Y-130530498D01*
X178693725Y-130609649D01*
X178693733Y-130609651D01*
X178693752Y-130609654D01*
X178693757Y-130609656D01*
X178893608Y-130649408D01*
X178895843Y-130649909D01*
X178896581Y-130650000D01*
X179103417Y-130650000D01*
X179103418Y-130650000D01*
X179108318Y-130649204D01*
X179111039Y-130648483D01*
X179306266Y-130609651D01*
X179306274Y-130609649D01*
X179497366Y-130530495D01*
X179545066Y-130498621D01*
X179545067Y-130498620D01*
X179182945Y-130136498D01*
X179149460Y-130075175D01*
X179154444Y-130005483D01*
X179196316Y-129949550D01*
X179208618Y-129941434D01*
X179245606Y-129920080D01*
X179320080Y-129845606D01*
X179341430Y-129808625D01*
X179391995Y-129760411D01*
X179460602Y-129747187D01*
X179525467Y-129773154D01*
X179536498Y-129782945D01*
X179898619Y-130145066D01*
X179898620Y-130145067D01*
X179898621Y-130145066D01*
X179930495Y-130097366D01*
X180009649Y-129906274D01*
X180009651Y-129906266D01*
X180048483Y-129711039D01*
X180049204Y-129708318D01*
X180050000Y-129703418D01*
X180050000Y-129496581D01*
X180049909Y-129495843D01*
X180049408Y-129493608D01*
X180009656Y-129293757D01*
X180009654Y-129293752D01*
X180009651Y-129293733D01*
X180009649Y-129293725D01*
X179930499Y-129102641D01*
X179930494Y-129102631D01*
X179867074Y-129007716D01*
X179851842Y-128975878D01*
X179847772Y-128962880D01*
X179846524Y-128893022D01*
X179883243Y-128833579D01*
X179938670Y-128804901D01*
X179946733Y-128803071D01*
X179974160Y-128800000D01*
X181187821Y-128800000D01*
X181195903Y-128800264D01*
X181204033Y-128800797D01*
X181212074Y-128801589D01*
X181305173Y-128813846D01*
X181321065Y-128817007D01*
X181336645Y-128821181D01*
X181351995Y-128826392D01*
X181427411Y-128857630D01*
X181441953Y-128864802D01*
X181455914Y-128872862D01*
X181469401Y-128881874D01*
X181477425Y-128888031D01*
X181534154Y-128931561D01*
X181546348Y-128942255D01*
X181557742Y-128953649D01*
X181568437Y-128965844D01*
X181618126Y-129030600D01*
X181627137Y-129044086D01*
X181635194Y-129058041D01*
X181642368Y-129072589D01*
X181673603Y-129147998D01*
X181678815Y-129163351D01*
X181682988Y-129178922D01*
X181686154Y-129194836D01*
X181698409Y-129287921D01*
X181699204Y-129295982D01*
X181699734Y-129304080D01*
X181700000Y-129312178D01*
X181700000Y-129800000D01*
X181940471Y-129800000D01*
X181975406Y-129805023D01*
X181990404Y-129809427D01*
X182049155Y-129847172D01*
X182049179Y-129847200D01*
X182049182Y-129847202D01*
X182049183Y-129847204D01*
X182050342Y-129848541D01*
X182077818Y-129903402D01*
X182079463Y-129910960D01*
X182082300Y-129937331D01*
X182082300Y-132143200D01*
X182515971Y-132143200D01*
X182550906Y-132148223D01*
X182565904Y-132152627D01*
X182624655Y-132190372D01*
X182624679Y-132190400D01*
X182624682Y-132190402D01*
X182624683Y-132190404D01*
X182625842Y-132191741D01*
X182653318Y-132246602D01*
X182654963Y-132254160D01*
X182657800Y-132280531D01*
X182657800Y-132371029D01*
X182672303Y-132443939D01*
X182672304Y-132443943D01*
X182672305Y-132443944D01*
X182727560Y-132526639D01*
X182810255Y-132581894D01*
X182810259Y-132581896D01*
X182875531Y-132594879D01*
X182878265Y-132595603D01*
X182883173Y-132596400D01*
X182883174Y-132596400D01*
X183750000Y-132596400D01*
X183750000Y-131396029D01*
X183755023Y-131361093D01*
X183759427Y-131346095D01*
X183797172Y-131287344D01*
X183797200Y-131287319D01*
X183797199Y-131287319D01*
X183798541Y-131286156D01*
X183853420Y-131258677D01*
X183860979Y-131257033D01*
X183887332Y-131254200D01*
X184108171Y-131254200D01*
X184143106Y-131259223D01*
X184158104Y-131263627D01*
X184216855Y-131301372D01*
X184216879Y-131301400D01*
X184216882Y-131301402D01*
X184216883Y-131301404D01*
X184218042Y-131302741D01*
X184245518Y-131357602D01*
X184247163Y-131365160D01*
X184250000Y-131391531D01*
X184250000Y-132596400D01*
X185116826Y-132596400D01*
X185117007Y-132596400D01*
X185119004Y-132595966D01*
X185189740Y-132581896D01*
X185189744Y-132581894D01*
X185272439Y-132526639D01*
X185327694Y-132443944D01*
X185327696Y-132443940D01*
X185342199Y-132371028D01*
X185342200Y-132371026D01*
X185342200Y-132283473D01*
X185342239Y-132281919D01*
X185342978Y-132279617D01*
X185347223Y-132250093D01*
X185351627Y-132235095D01*
X185362915Y-132217524D01*
X185363599Y-132215395D01*
X185365052Y-132214198D01*
X185389372Y-132176344D01*
X185390741Y-132175157D01*
X185445620Y-132147677D01*
X185453179Y-132146033D01*
X185479532Y-132143200D01*
X185917700Y-132143200D01*
X185917700Y-129941829D01*
X185917758Y-129941429D01*
X185922723Y-129906893D01*
X185922903Y-129906282D01*
X185927127Y-129891894D01*
X185964872Y-129833144D01*
X185964900Y-129833119D01*
X185964899Y-129833119D01*
X185966241Y-129831956D01*
X186021120Y-129804477D01*
X186028679Y-129802833D01*
X186055032Y-129800000D01*
X186287821Y-129800000D01*
X186295903Y-129800264D01*
X186304033Y-129800797D01*
X186312074Y-129801589D01*
X186405173Y-129813846D01*
X186421065Y-129817007D01*
X186436645Y-129821181D01*
X186451995Y-129826392D01*
X186527411Y-129857630D01*
X186541953Y-129864802D01*
X186555914Y-129872862D01*
X186569401Y-129881874D01*
X186619194Y-129920082D01*
X186634154Y-129931561D01*
X186646348Y-129942255D01*
X186657742Y-129953649D01*
X186668437Y-129965844D01*
X186718126Y-130030600D01*
X186727137Y-130044086D01*
X186735194Y-130058041D01*
X186742368Y-130072589D01*
X186773603Y-130147998D01*
X186778815Y-130163351D01*
X186782988Y-130178922D01*
X186786154Y-130194836D01*
X186798409Y-130287921D01*
X186799204Y-130295982D01*
X186799734Y-130304080D01*
X186800000Y-130312178D01*
X186800000Y-137800000D01*
X188187821Y-137800000D01*
X188195903Y-137800264D01*
X188204033Y-137800797D01*
X188212074Y-137801589D01*
X188305173Y-137813846D01*
X188321065Y-137817007D01*
X188336645Y-137821181D01*
X188351995Y-137826392D01*
X188427411Y-137857630D01*
X188441953Y-137864802D01*
X188455914Y-137872862D01*
X188469403Y-137881875D01*
X188534154Y-137931561D01*
X188546348Y-137942255D01*
X188557742Y-137953649D01*
X188568437Y-137965844D01*
X188618126Y-138030600D01*
X188627137Y-138044086D01*
X188635194Y-138058041D01*
X188642368Y-138072589D01*
X188673603Y-138147998D01*
X188678815Y-138163351D01*
X188682988Y-138178922D01*
X188686154Y-138194836D01*
X188698409Y-138287921D01*
X188699204Y-138295982D01*
X188699734Y-138304080D01*
X188700000Y-138312178D01*
X188700000Y-145725598D01*
X188680315Y-145792637D01*
X188627511Y-145838392D01*
X188576764Y-145849595D01*
X187322771Y-145857325D01*
X180915880Y-145896818D01*
X180907735Y-145896600D01*
X180899601Y-145896115D01*
X180891481Y-145895362D01*
X180797923Y-145883574D01*
X180781923Y-145880479D01*
X180766256Y-145876364D01*
X180750802Y-145871198D01*
X180674916Y-145840150D01*
X180660275Y-145833003D01*
X180646219Y-145824958D01*
X180632638Y-145815951D01*
X180567440Y-145766247D01*
X180555162Y-145755542D01*
X180543680Y-145744119D01*
X180532903Y-145731885D01*
X180527765Y-145725215D01*
X180527765Y-145725216D01*
X180482861Y-145666927D01*
X180473794Y-145653404D01*
X180465670Y-145639375D01*
X180458465Y-145624803D01*
X180427020Y-145549041D01*
X180421783Y-145533630D01*
X180417588Y-145517980D01*
X180414413Y-145501997D01*
X180402152Y-145408496D01*
X180401359Y-145400394D01*
X180400832Y-145392263D01*
X180400572Y-145384121D01*
X180402885Y-143303297D01*
X180402884Y-143303293D01*
X180403438Y-142805114D01*
X179905260Y-142802747D01*
X179559645Y-142801104D01*
X176302264Y-142785627D01*
X176294153Y-142785322D01*
X176286092Y-142784755D01*
X176278023Y-142783922D01*
X176184997Y-142771225D01*
X176169103Y-142767985D01*
X176153553Y-142763739D01*
X176138219Y-142758452D01*
X176062961Y-142726859D01*
X176048445Y-142719614D01*
X176034528Y-142711490D01*
X176021095Y-142702422D01*
X175956564Y-142652417D01*
X175944428Y-142641671D01*
X175933078Y-142630212D01*
X175922444Y-142617969D01*
X175873070Y-142552987D01*
X175864127Y-142539466D01*
X175856123Y-142525450D01*
X175849027Y-142510884D01*
X175818143Y-142435309D01*
X175813012Y-142419957D01*
X175808909Y-142404350D01*
X175805824Y-142388447D01*
X175794006Y-142295255D01*
X175793252Y-142287196D01*
X175792762Y-142279124D01*
X175792535Y-142271022D01*
X175795724Y-141600001D01*
X175797624Y-141200023D01*
X175800000Y-140700000D01*
X175314271Y-140697719D01*
X175314258Y-140697717D01*
X173438322Y-140688912D01*
X173434810Y-140688895D01*
X172732389Y-140685595D01*
X172724334Y-140685295D01*
X172717015Y-140684783D01*
X172716297Y-140684733D01*
X172708266Y-140683909D01*
X172615755Y-140671357D01*
X172599952Y-140668155D01*
X172584486Y-140663958D01*
X172569224Y-140658729D01*
X172494309Y-140627480D01*
X172479857Y-140620315D01*
X172465993Y-140612278D01*
X172452595Y-140603298D01*
X172388244Y-140553815D01*
X172376123Y-140543171D01*
X172364798Y-140531839D01*
X172354165Y-140519716D01*
X172305879Y-140456848D01*
X172304720Y-140455338D01*
X172295748Y-140441935D01*
X172287719Y-140428066D01*
X172280563Y-140413613D01*
X172274893Y-140399998D01*
X172249348Y-140338660D01*
X172244139Y-140323426D01*
X172239949Y-140307954D01*
X172236756Y-140292152D01*
X172231441Y-140252812D01*
X172224251Y-140199587D01*
X172223433Y-140191570D01*
X172223419Y-140191374D01*
X172222877Y-140183554D01*
X172222582Y-140175500D01*
X172222480Y-140150877D01*
X172220578Y-139689571D01*
X176564200Y-139689571D01*
X176564200Y-140150000D01*
X176958355Y-140150000D01*
X177025394Y-140169685D01*
X177071149Y-140222489D01*
X177081093Y-140291647D01*
X177078130Y-140306093D01*
X177068200Y-140343152D01*
X177068200Y-140456847D01*
X177078130Y-140493907D01*
X177076467Y-140563757D01*
X177037304Y-140621619D01*
X176973075Y-140649123D01*
X176958355Y-140650000D01*
X176564200Y-140650000D01*
X176564200Y-141110429D01*
X176578703Y-141183339D01*
X176578704Y-141183343D01*
X176597039Y-141210783D01*
X176633960Y-141266039D01*
X176716655Y-141321294D01*
X176716659Y-141321296D01*
X176781931Y-141334279D01*
X176784665Y-141335003D01*
X176789573Y-141335800D01*
X176789574Y-141335800D01*
X177250000Y-141335800D01*
X177250000Y-140941644D01*
X177269685Y-140874605D01*
X177322489Y-140828850D01*
X177391647Y-140818906D01*
X177406082Y-140821867D01*
X177443152Y-140831800D01*
X177556846Y-140831800D01*
X177556848Y-140831800D01*
X177593907Y-140821870D01*
X177663755Y-140823531D01*
X177721618Y-140862693D01*
X177749123Y-140926921D01*
X177750000Y-140941644D01*
X177750000Y-141335800D01*
X178210426Y-141335800D01*
X178210607Y-141335800D01*
X178212604Y-141335366D01*
X178283340Y-141321296D01*
X178283344Y-141321294D01*
X178366039Y-141266039D01*
X178406220Y-141205903D01*
X178421216Y-141183463D01*
X178421235Y-141183434D01*
X178421295Y-141183344D01*
X178421296Y-141183340D01*
X178435374Y-141112561D01*
X178435800Y-141110605D01*
X178435800Y-140650000D01*
X178041645Y-140650000D01*
X177974606Y-140630315D01*
X177928851Y-140577511D01*
X177917667Y-140523674D01*
X177917951Y-140508533D01*
X177931800Y-140456848D01*
X177931800Y-140343152D01*
X177921756Y-140305668D01*
X177921927Y-140296574D01*
X180850000Y-140296574D01*
X180850000Y-140503424D01*
X180890342Y-140706240D01*
X180890350Y-140706275D01*
X180954275Y-140860603D01*
X180969500Y-140897359D01*
X181001377Y-140945067D01*
X181001378Y-140945067D01*
X181363502Y-140582942D01*
X181424823Y-140549459D01*
X181494514Y-140554443D01*
X181550448Y-140596314D01*
X181558567Y-140608624D01*
X181579915Y-140645599D01*
X181579919Y-140645604D01*
X181579920Y-140645606D01*
X181654394Y-140720080D01*
X181654395Y-140720081D01*
X181654397Y-140720082D01*
X181691373Y-140741430D01*
X181739588Y-140791996D01*
X181752812Y-140860603D01*
X181726844Y-140925468D01*
X181717054Y-140936498D01*
X181354930Y-141298619D01*
X181354931Y-141298619D01*
X181354931Y-141298620D01*
X181354932Y-141298621D01*
X181402633Y-141330495D01*
X181402639Y-141330498D01*
X181593725Y-141409649D01*
X181593733Y-141409651D01*
X181593752Y-141409654D01*
X181593757Y-141409656D01*
X181793608Y-141449408D01*
X181795843Y-141449909D01*
X181796581Y-141450000D01*
X182003417Y-141450000D01*
X182003418Y-141450000D01*
X182008318Y-141449204D01*
X182011039Y-141448483D01*
X182206266Y-141409651D01*
X182206274Y-141409649D01*
X182397366Y-141330495D01*
X182445066Y-141298621D01*
X182445067Y-141298620D01*
X182082945Y-140936498D01*
X182049460Y-140875175D01*
X182054444Y-140805483D01*
X182096316Y-140749550D01*
X182108618Y-140741434D01*
X182145606Y-140720080D01*
X182220080Y-140645606D01*
X182241430Y-140608625D01*
X182291995Y-140560411D01*
X182360602Y-140547187D01*
X182425467Y-140573154D01*
X182436498Y-140582945D01*
X182798619Y-140945067D01*
X182798620Y-140945067D01*
X182798621Y-140945066D01*
X182830495Y-140897366D01*
X182909649Y-140706274D01*
X182909651Y-140706266D01*
X182948483Y-140511039D01*
X182949204Y-140508318D01*
X182950000Y-140503418D01*
X182950000Y-140296581D01*
X182949909Y-140295843D01*
X182949408Y-140293608D01*
X182909656Y-140093757D01*
X182909654Y-140093752D01*
X182909651Y-140093733D01*
X182909649Y-140093725D01*
X182848585Y-139946304D01*
X182848584Y-139946302D01*
X182830500Y-139902642D01*
X182830495Y-139902633D01*
X182830170Y-139902146D01*
X185070000Y-139902146D01*
X185070000Y-139902155D01*
X185070000Y-140750000D01*
X185855899Y-140750000D01*
X185922938Y-140769685D01*
X185968693Y-140822489D01*
X185978637Y-140891647D01*
X185977517Y-140898190D01*
X185970000Y-140935982D01*
X185970000Y-141064017D01*
X185977517Y-141101810D01*
X185971288Y-141171401D01*
X185928425Y-141226578D01*
X185862535Y-141249822D01*
X185855899Y-141250000D01*
X185070000Y-141250000D01*
X185070000Y-142097852D01*
X185076400Y-142157370D01*
X185076401Y-142157372D01*
X185076403Y-142157379D01*
X185120303Y-142275083D01*
X185126646Y-142292088D01*
X185126648Y-142292091D01*
X185212807Y-142407185D01*
X185212809Y-142407187D01*
X185212812Y-142407190D01*
X185327906Y-142493350D01*
X185327913Y-142493354D01*
X185462620Y-142543596D01*
X185462627Y-142543598D01*
X185469468Y-142544333D01*
X185522138Y-142549998D01*
X185522155Y-142549999D01*
X185522172Y-142550000D01*
X186370000Y-142550000D01*
X186370000Y-141764100D01*
X186389685Y-141697061D01*
X186442489Y-141651306D01*
X186511647Y-141641362D01*
X186518172Y-141642479D01*
X186555981Y-141650000D01*
X186684019Y-141650000D01*
X186721808Y-141642483D01*
X186791399Y-141648710D01*
X186846577Y-141691572D01*
X186869822Y-141757461D01*
X186870000Y-141764100D01*
X186870000Y-142550000D01*
X187717828Y-142550000D01*
X187717836Y-142550000D01*
X187717847Y-142549999D01*
X187753560Y-142546158D01*
X187777372Y-142543598D01*
X187777379Y-142543596D01*
X187912086Y-142493354D01*
X187912093Y-142493350D01*
X188027187Y-142407190D01*
X188027190Y-142407187D01*
X188113350Y-142292093D01*
X188113354Y-142292086D01*
X188163596Y-142157379D01*
X188163598Y-142157372D01*
X188165069Y-142143689D01*
X188169998Y-142097860D01*
X188170000Y-142097827D01*
X188170000Y-141250000D01*
X187384101Y-141250000D01*
X187317062Y-141230315D01*
X187271307Y-141177511D01*
X187261363Y-141108353D01*
X187262483Y-141101810D01*
X187270000Y-141064017D01*
X187270000Y-140935982D01*
X187262483Y-140898190D01*
X187268712Y-140828599D01*
X187311575Y-140773422D01*
X187377465Y-140750178D01*
X187384101Y-140750000D01*
X188170000Y-140750000D01*
X188170000Y-139902172D01*
X188169998Y-139902138D01*
X188163598Y-139842628D01*
X188163596Y-139842621D01*
X188163596Y-139842620D01*
X188113354Y-139707913D01*
X188113350Y-139707906D01*
X188045039Y-139616655D01*
X188027191Y-139592813D01*
X188027185Y-139592807D01*
X187948581Y-139533964D01*
X187912093Y-139506649D01*
X187912088Y-139506646D01*
X187912089Y-139506646D01*
X187777377Y-139456402D01*
X187777370Y-139456400D01*
X187717852Y-139450000D01*
X187717844Y-139450000D01*
X186870000Y-139450000D01*
X186870000Y-140235899D01*
X186850315Y-140302938D01*
X186797511Y-140348693D01*
X186728353Y-140358637D01*
X186721810Y-140357517D01*
X186701876Y-140353552D01*
X186684019Y-140350000D01*
X186684018Y-140350000D01*
X186555982Y-140350000D01*
X186555981Y-140350000D01*
X186518190Y-140357517D01*
X186448599Y-140351288D01*
X186393422Y-140308425D01*
X186370178Y-140242535D01*
X186370000Y-140235899D01*
X186370000Y-139450000D01*
X185522155Y-139450000D01*
X185522146Y-139450000D01*
X185462628Y-139456400D01*
X185462621Y-139456402D01*
X185327910Y-139506646D01*
X185327907Y-139506648D01*
X185212813Y-139592807D01*
X185212807Y-139592813D01*
X185126648Y-139707907D01*
X185126646Y-139707910D01*
X185076402Y-139842621D01*
X185076400Y-139842628D01*
X185070000Y-139902146D01*
X182830170Y-139902146D01*
X182798621Y-139854932D01*
X182798620Y-139854931D01*
X182798619Y-139854931D01*
X182436497Y-140217053D01*
X182375174Y-140250538D01*
X182305482Y-140245554D01*
X182249549Y-140203682D01*
X182241430Y-140191374D01*
X182220080Y-140154394D01*
X182145606Y-140079920D01*
X182145605Y-140079919D01*
X182145602Y-140079917D01*
X182108626Y-140058569D01*
X182060410Y-140008002D01*
X182047188Y-139939395D01*
X182073156Y-139874530D01*
X182082945Y-139863501D01*
X182103826Y-139842620D01*
X182445067Y-139501378D01*
X182445067Y-139501377D01*
X182397359Y-139469500D01*
X182397356Y-139469498D01*
X182397355Y-139469498D01*
X182206275Y-139390350D01*
X182206240Y-139390342D01*
X182003424Y-139350000D01*
X182003420Y-139350000D01*
X181796579Y-139350000D01*
X181796574Y-139350000D01*
X181593758Y-139390342D01*
X181593725Y-139390350D01*
X181402636Y-139469502D01*
X181402633Y-139469503D01*
X181402631Y-139469505D01*
X181354932Y-139501377D01*
X181354932Y-139501378D01*
X181717055Y-139863501D01*
X181750540Y-139924824D01*
X181745556Y-139994516D01*
X181703684Y-140050449D01*
X181691374Y-140058569D01*
X181654397Y-140079917D01*
X181654392Y-140079921D01*
X181579921Y-140154392D01*
X181579917Y-140154397D01*
X181558569Y-140191374D01*
X181508002Y-140239590D01*
X181439395Y-140252812D01*
X181374530Y-140226844D01*
X181363501Y-140217055D01*
X181001378Y-139854932D01*
X181001377Y-139854932D01*
X180969519Y-139902611D01*
X180969502Y-139902636D01*
X180890350Y-140093725D01*
X180890342Y-140093758D01*
X180850000Y-140296574D01*
X177921927Y-140296574D01*
X177922085Y-140288161D01*
X177922314Y-140287429D01*
X177923532Y-140236246D01*
X177962694Y-140178383D01*
X178026922Y-140150877D01*
X178041645Y-140150000D01*
X178435800Y-140150000D01*
X178435800Y-139690360D01*
X178435800Y-139689573D01*
X178435799Y-139689571D01*
X178421296Y-139616659D01*
X178421295Y-139616656D01*
X178421176Y-139616478D01*
X178421175Y-139616476D01*
X178366039Y-139533960D01*
X178325166Y-139506649D01*
X178283343Y-139478704D01*
X178283337Y-139478702D01*
X178234509Y-139468990D01*
X178210427Y-139464200D01*
X178210426Y-139464200D01*
X177750000Y-139464200D01*
X177750000Y-139858355D01*
X177730315Y-139925394D01*
X177677511Y-139971149D01*
X177608353Y-139981093D01*
X177593910Y-139978130D01*
X177556848Y-139968200D01*
X177556847Y-139968200D01*
X177443152Y-139968200D01*
X177406092Y-139978129D01*
X177336243Y-139976467D01*
X177278381Y-139937304D01*
X177250877Y-139873075D01*
X177250000Y-139858355D01*
X177250000Y-139464200D01*
X176789573Y-139464200D01*
X176775071Y-139467084D01*
X176716660Y-139478702D01*
X176716655Y-139478704D01*
X176633960Y-139533960D01*
X176578704Y-139616655D01*
X176578703Y-139616659D01*
X176564200Y-139689571D01*
X172220578Y-139689571D01*
X172204400Y-135766707D01*
X172180601Y-129996574D01*
X173750000Y-129996574D01*
X173750000Y-130203424D01*
X173790342Y-130406240D01*
X173790350Y-130406275D01*
X173841804Y-130530495D01*
X173869500Y-130597359D01*
X173901377Y-130645067D01*
X173901378Y-130645067D01*
X174263502Y-130282942D01*
X174324823Y-130249459D01*
X174394514Y-130254443D01*
X174450448Y-130296314D01*
X174458567Y-130308624D01*
X174479915Y-130345599D01*
X174479919Y-130345604D01*
X174479920Y-130345606D01*
X174554394Y-130420080D01*
X174554395Y-130420081D01*
X174554397Y-130420082D01*
X174591373Y-130441430D01*
X174639588Y-130491996D01*
X174652812Y-130560603D01*
X174626844Y-130625468D01*
X174617054Y-130636498D01*
X174254930Y-130998619D01*
X174254931Y-130998619D01*
X174254931Y-130998620D01*
X174254932Y-130998621D01*
X174302633Y-131030495D01*
X174302639Y-131030498D01*
X174493725Y-131109649D01*
X174493733Y-131109651D01*
X174493752Y-131109654D01*
X174493757Y-131109656D01*
X174693608Y-131149408D01*
X174695843Y-131149909D01*
X174696581Y-131150000D01*
X174903417Y-131150000D01*
X174903418Y-131150000D01*
X174908318Y-131149204D01*
X174911039Y-131148483D01*
X175106266Y-131109651D01*
X175106274Y-131109649D01*
X175297366Y-131030495D01*
X175345066Y-130998621D01*
X175345067Y-130998620D01*
X174982945Y-130636498D01*
X174949460Y-130575175D01*
X174954444Y-130505483D01*
X174996316Y-130449550D01*
X175008618Y-130441434D01*
X175045606Y-130420080D01*
X175120080Y-130345606D01*
X175141430Y-130308625D01*
X175191995Y-130260411D01*
X175260602Y-130247187D01*
X175325467Y-130273154D01*
X175336498Y-130282945D01*
X175698619Y-130645066D01*
X175698620Y-130645067D01*
X175698621Y-130645066D01*
X175730495Y-130597366D01*
X175809648Y-130406276D01*
X175809651Y-130406266D01*
X175848483Y-130211039D01*
X175849204Y-130208318D01*
X175850000Y-130203418D01*
X175850000Y-129996581D01*
X175849909Y-129995843D01*
X175849408Y-129993608D01*
X175809656Y-129793757D01*
X175809654Y-129793752D01*
X175809651Y-129793733D01*
X175809649Y-129793725D01*
X175730498Y-129602639D01*
X175730495Y-129602633D01*
X175698621Y-129554932D01*
X175698620Y-129554931D01*
X175698619Y-129554931D01*
X175336497Y-129917053D01*
X175275174Y-129950538D01*
X175205482Y-129945554D01*
X175149549Y-129903682D01*
X175141430Y-129891374D01*
X175120080Y-129854394D01*
X175045606Y-129779920D01*
X175045605Y-129779919D01*
X175045602Y-129779917D01*
X175008626Y-129758569D01*
X174960410Y-129708002D01*
X174947188Y-129639395D01*
X174973156Y-129574530D01*
X174982945Y-129563501D01*
X175254506Y-129291939D01*
X175345067Y-129201378D01*
X175345067Y-129201377D01*
X175297359Y-129169500D01*
X175297356Y-129169498D01*
X175297355Y-129169498D01*
X175106275Y-129090350D01*
X175106240Y-129090342D01*
X174903424Y-129050000D01*
X174903420Y-129050000D01*
X174696579Y-129050000D01*
X174696574Y-129050000D01*
X174493758Y-129090342D01*
X174493725Y-129090350D01*
X174302636Y-129169502D01*
X174302633Y-129169503D01*
X174302631Y-129169505D01*
X174301323Y-129170379D01*
X174254932Y-129201377D01*
X174254932Y-129201378D01*
X174617055Y-129563501D01*
X174650540Y-129624824D01*
X174645556Y-129694516D01*
X174603684Y-129750449D01*
X174591374Y-129758569D01*
X174554397Y-129779917D01*
X174554392Y-129779921D01*
X174479921Y-129854392D01*
X174479917Y-129854397D01*
X174458569Y-129891374D01*
X174408002Y-129939590D01*
X174339395Y-129952812D01*
X174274530Y-129926844D01*
X174263501Y-129917055D01*
X173901378Y-129554932D01*
X173901377Y-129554932D01*
X173869505Y-129602631D01*
X173869503Y-129602633D01*
X173869502Y-129602636D01*
X173790350Y-129793725D01*
X173790342Y-129793758D01*
X173750000Y-129996574D01*
X172180601Y-129996574D01*
X172177807Y-129319266D01*
X172178040Y-129311168D01*
X172178537Y-129303085D01*
X172179298Y-129295017D01*
X172191172Y-129201855D01*
X172194265Y-129185966D01*
X172198376Y-129170368D01*
X172203520Y-129155008D01*
X172234455Y-129079447D01*
X172241554Y-129064900D01*
X172249568Y-129050886D01*
X172258510Y-129037384D01*
X172307944Y-128972406D01*
X172318582Y-128960174D01*
X172329930Y-128948731D01*
X172342078Y-128937990D01*
X172343992Y-128936509D01*
X172406636Y-128888028D01*
X172420077Y-128878967D01*
X172434008Y-128870847D01*
X172448507Y-128863622D01*
X172523815Y-128832064D01*
X172539122Y-128826797D01*
X172554700Y-128822554D01*
X172570558Y-128819331D01*
X172663649Y-128806685D01*
X172671692Y-128805860D01*
X172674843Y-128805640D01*
X172679767Y-128805298D01*
X172687866Y-128804999D01*
X173302037Y-128802466D01*
X173891505Y-128800034D01*
X173894334Y-128800216D01*
X173898032Y-128800082D01*
X173902539Y-128800000D01*
X178021900Y-128800000D01*
X178056834Y-128805023D01*
G37*
%TD.AperFunction*%
%TD*%
%TA.AperFunction,Conductor*%
%TO.N,GND*%
G36*
X201206769Y-128219685D02*
G01*
X201252524Y-128272489D01*
X201262468Y-128341647D01*
X201242832Y-128392891D01*
X201169505Y-128502631D01*
X201169500Y-128502641D01*
X201090350Y-128693725D01*
X201090348Y-128693733D01*
X201050000Y-128896579D01*
X201050000Y-129103420D01*
X201090348Y-129306266D01*
X201090350Y-129306274D01*
X201169500Y-129497359D01*
X201201377Y-129545067D01*
X201700000Y-129046444D01*
X201700000Y-129052661D01*
X201727259Y-129154394D01*
X201779920Y-129245606D01*
X201854394Y-129320080D01*
X201945606Y-129372741D01*
X202047339Y-129400000D01*
X202053554Y-129400000D01*
X201554931Y-129898620D01*
X201554932Y-129898621D01*
X201602633Y-129930495D01*
X201602639Y-129930498D01*
X201793725Y-130009649D01*
X201793733Y-130009651D01*
X201996579Y-130049999D01*
X201996583Y-130050000D01*
X202203417Y-130050000D01*
X202203420Y-130049999D01*
X202406266Y-130009651D01*
X202406274Y-130009649D01*
X202597366Y-129930495D01*
X202645066Y-129898621D01*
X202645067Y-129898620D01*
X202146447Y-129400000D01*
X202152661Y-129400000D01*
X202254394Y-129372741D01*
X202345606Y-129320080D01*
X202420080Y-129245606D01*
X202472741Y-129154394D01*
X202500000Y-129052661D01*
X202500000Y-129046447D01*
X202998620Y-129545067D01*
X202998621Y-129545066D01*
X203030495Y-129497366D01*
X203109649Y-129306274D01*
X203109651Y-129306266D01*
X203149999Y-129103420D01*
X203150000Y-129103417D01*
X203150000Y-128896583D01*
X203149999Y-128896579D01*
X203109651Y-128693733D01*
X203109649Y-128693725D01*
X203030499Y-128502641D01*
X203030494Y-128502631D01*
X202957168Y-128392891D01*
X202936290Y-128326213D01*
X202954775Y-128258833D01*
X203006753Y-128212143D01*
X203060270Y-128200000D01*
X204391874Y-128200000D01*
X204408059Y-128201061D01*
X204513223Y-128214906D01*
X204544491Y-128223284D01*
X204634918Y-128260740D01*
X204662952Y-128276925D01*
X204740602Y-128336509D01*
X204763491Y-128359398D01*
X204823074Y-128437048D01*
X204839259Y-128465081D01*
X204876715Y-128555508D01*
X204885093Y-128586775D01*
X204898939Y-128691939D01*
X204900000Y-128708125D01*
X204900000Y-129200000D01*
X205158300Y-129200000D01*
X205225339Y-129219685D01*
X205271094Y-129272489D01*
X205282300Y-129324000D01*
X205282300Y-131589000D01*
X205733800Y-131589000D01*
X205800839Y-131608685D01*
X205846594Y-131661489D01*
X205857800Y-131713000D01*
X205857800Y-131816828D01*
X205872303Y-131889740D01*
X205872305Y-131889744D01*
X205927560Y-131972439D01*
X206010255Y-132027694D01*
X206010259Y-132027696D01*
X206083171Y-132042199D01*
X206083174Y-132042200D01*
X206950000Y-132042200D01*
X206950000Y-130824000D01*
X206969685Y-130756961D01*
X207022489Y-130711206D01*
X207074000Y-130700000D01*
X207326000Y-130700000D01*
X207393039Y-130719685D01*
X207438794Y-130772489D01*
X207450000Y-130824000D01*
X207450000Y-132042200D01*
X208316826Y-132042200D01*
X208316828Y-132042199D01*
X208389740Y-132027696D01*
X208389744Y-132027694D01*
X208472439Y-131972439D01*
X208527694Y-131889744D01*
X208527696Y-131889740D01*
X208542199Y-131816828D01*
X208542200Y-131816826D01*
X208542200Y-131713000D01*
X208561885Y-131645961D01*
X208614689Y-131600206D01*
X208666200Y-131589000D01*
X209117700Y-131589000D01*
X209117700Y-129353282D01*
X209118392Y-129350924D01*
X209117791Y-129348543D01*
X209128183Y-129317580D01*
X209137385Y-129286243D01*
X209139241Y-129284634D01*
X209140023Y-129282305D01*
X209165517Y-129261865D01*
X209190189Y-129240488D01*
X209192619Y-129240138D01*
X209194537Y-129238601D01*
X209227030Y-129235190D01*
X209259347Y-129230544D01*
X209262338Y-129231484D01*
X209264025Y-129231308D01*
X209297481Y-129242537D01*
X209381666Y-129284943D01*
X209412882Y-129307330D01*
X209495558Y-129388744D01*
X209518425Y-129419614D01*
X209572211Y-129522423D01*
X209584531Y-129558811D01*
X209605930Y-129682789D01*
X209607722Y-129701973D01*
X209692062Y-135184103D01*
X209691232Y-135200459D01*
X209678752Y-135306829D01*
X209670698Y-135338508D01*
X209633934Y-135430243D01*
X209617882Y-135458716D01*
X209558427Y-135537656D01*
X209535494Y-135560945D01*
X209496488Y-135591274D01*
X209457480Y-135621605D01*
X209429260Y-135638092D01*
X209338100Y-135676263D01*
X209306550Y-135684803D01*
X209231878Y-135694731D01*
X209200386Y-135698918D01*
X209184045Y-135700000D01*
X205615817Y-135700000D01*
X205608692Y-137817037D01*
X205583198Y-145392045D01*
X205582083Y-145408224D01*
X205567890Y-145513317D01*
X205559411Y-145544549D01*
X205521665Y-145634837D01*
X205505392Y-145662812D01*
X205445573Y-145740252D01*
X205422615Y-145763064D01*
X205344792Y-145822388D01*
X205316713Y-145838482D01*
X205226188Y-145875648D01*
X205194903Y-145883927D01*
X205089715Y-145897449D01*
X205073529Y-145898460D01*
X191500336Y-145857324D01*
X188700064Y-145848836D01*
X188700000Y-145848836D01*
X188700000Y-143600000D01*
X189174496Y-143600847D01*
X189174502Y-143600848D01*
X189199106Y-143600891D01*
X189199107Y-143600892D01*
X195972458Y-143612996D01*
X195972460Y-143612995D01*
X195982503Y-143613013D01*
X195982503Y-143613012D01*
X196472457Y-143613889D01*
X196479089Y-139902155D01*
X201970000Y-139902155D01*
X201970000Y-140750000D01*
X202919999Y-140750000D01*
X202894979Y-140810402D01*
X202870000Y-140935981D01*
X202870000Y-141064019D01*
X202894979Y-141189598D01*
X202919999Y-141250000D01*
X201970000Y-141250000D01*
X201970000Y-142097844D01*
X201976401Y-142157372D01*
X201976403Y-142157379D01*
X202026645Y-142292086D01*
X202026649Y-142292093D01*
X202112809Y-142407187D01*
X202112812Y-142407190D01*
X202227906Y-142493350D01*
X202227913Y-142493354D01*
X202362620Y-142543596D01*
X202362627Y-142543598D01*
X202422155Y-142549999D01*
X202422172Y-142550000D01*
X203270000Y-142550000D01*
X203270000Y-141600001D01*
X203330402Y-141625021D01*
X203455981Y-141650000D01*
X203584019Y-141650000D01*
X203709598Y-141625021D01*
X203770000Y-141600001D01*
X203770000Y-142550000D01*
X204617828Y-142550000D01*
X204617844Y-142549999D01*
X204677372Y-142543598D01*
X204677379Y-142543596D01*
X204812086Y-142493354D01*
X204812093Y-142493350D01*
X204927187Y-142407190D01*
X204927190Y-142407187D01*
X205013350Y-142292093D01*
X205013354Y-142292086D01*
X205063596Y-142157379D01*
X205063598Y-142157372D01*
X205069999Y-142097844D01*
X205070000Y-142097827D01*
X205070000Y-141250000D01*
X204120001Y-141250000D01*
X204145021Y-141189598D01*
X204170000Y-141064019D01*
X204170000Y-140935981D01*
X204145021Y-140810402D01*
X204120001Y-140750000D01*
X205070000Y-140750000D01*
X205070000Y-139902172D01*
X205069999Y-139902155D01*
X205063598Y-139842627D01*
X205063596Y-139842620D01*
X205013354Y-139707913D01*
X205013350Y-139707906D01*
X204927190Y-139592812D01*
X204927187Y-139592809D01*
X204812093Y-139506649D01*
X204812086Y-139506645D01*
X204677379Y-139456403D01*
X204677372Y-139456401D01*
X204617844Y-139450000D01*
X203770000Y-139450000D01*
X203770000Y-140399998D01*
X203709598Y-140374979D01*
X203584019Y-140350000D01*
X203455981Y-140350000D01*
X203330402Y-140374979D01*
X203270000Y-140399998D01*
X203270000Y-139450000D01*
X202422155Y-139450000D01*
X202362627Y-139456401D01*
X202362620Y-139456403D01*
X202227913Y-139506645D01*
X202227906Y-139506649D01*
X202112812Y-139592809D01*
X202112809Y-139592812D01*
X202026649Y-139707906D01*
X202026645Y-139707913D01*
X201976403Y-139842620D01*
X201976401Y-139842627D01*
X201970000Y-139902155D01*
X196479089Y-139902155D01*
X196496850Y-129962289D01*
X196516655Y-129895288D01*
X196569540Y-129849628D01*
X196638716Y-129839808D01*
X196702220Y-129868946D01*
X196735411Y-129915061D01*
X196769500Y-129997359D01*
X196801377Y-130045067D01*
X196801378Y-130045067D01*
X197300000Y-129546445D01*
X197300000Y-129552661D01*
X197327259Y-129654394D01*
X197379920Y-129745606D01*
X197454394Y-129820080D01*
X197545606Y-129872741D01*
X197647339Y-129900000D01*
X197653554Y-129900000D01*
X197154931Y-130398620D01*
X197154932Y-130398621D01*
X197202633Y-130430495D01*
X197202639Y-130430498D01*
X197393725Y-130509649D01*
X197393733Y-130509651D01*
X197596579Y-130549999D01*
X197596583Y-130550000D01*
X197803417Y-130550000D01*
X197803420Y-130549999D01*
X198006266Y-130509651D01*
X198006274Y-130509649D01*
X198197366Y-130430495D01*
X198245066Y-130398621D01*
X198245067Y-130398620D01*
X197746447Y-129900000D01*
X197752661Y-129900000D01*
X197854394Y-129872741D01*
X197945606Y-129820080D01*
X198020080Y-129745606D01*
X198072741Y-129654394D01*
X198100000Y-129552661D01*
X198100000Y-129546447D01*
X198598620Y-130045067D01*
X198598621Y-130045066D01*
X198630495Y-129997366D01*
X198709648Y-129806276D01*
X198709651Y-129806266D01*
X198749999Y-129603420D01*
X198750000Y-129603417D01*
X198750000Y-129396583D01*
X198749999Y-129396579D01*
X198709651Y-129193733D01*
X198709649Y-129193725D01*
X198630498Y-129002639D01*
X198630495Y-129002633D01*
X198598621Y-128954932D01*
X198598620Y-128954931D01*
X198100000Y-129453552D01*
X198100000Y-129447339D01*
X198072741Y-129345606D01*
X198020080Y-129254394D01*
X197945606Y-129179920D01*
X197854394Y-129127259D01*
X197752661Y-129100000D01*
X197746447Y-129100000D01*
X198245067Y-128601378D01*
X198245067Y-128601377D01*
X198197359Y-128569500D01*
X198006274Y-128490350D01*
X198006266Y-128490348D01*
X197803420Y-128450000D01*
X197596579Y-128450000D01*
X197393733Y-128490348D01*
X197393725Y-128490350D01*
X197202641Y-128569500D01*
X197202631Y-128569505D01*
X197154932Y-128601377D01*
X197154932Y-128601378D01*
X197653554Y-129100000D01*
X197647339Y-129100000D01*
X197545606Y-129127259D01*
X197454394Y-129179920D01*
X197379920Y-129254394D01*
X197327259Y-129345606D01*
X197300000Y-129447339D01*
X197300000Y-129453554D01*
X196801378Y-128954932D01*
X196801377Y-128954932D01*
X196769505Y-129002631D01*
X196769497Y-129002646D01*
X196737070Y-129080931D01*
X196693229Y-129135334D01*
X196626934Y-129157398D01*
X196559235Y-129140118D01*
X196511625Y-129088980D01*
X196498510Y-129033258D01*
X196499093Y-128707210D01*
X196500180Y-128691061D01*
X196514183Y-128586031D01*
X196522596Y-128554818D01*
X196560133Y-128464537D01*
X196576331Y-128436560D01*
X196635933Y-128359052D01*
X196658810Y-128336216D01*
X196736421Y-128276754D01*
X196764433Y-128260605D01*
X196809603Y-128241918D01*
X196854776Y-128223231D01*
X196886001Y-128214873D01*
X196974961Y-128203175D01*
X196991063Y-128201058D01*
X197007229Y-128200000D01*
X201139730Y-128200000D01*
X201206769Y-128219685D01*
G37*
%TD.AperFunction*%
%TD*%
D70*
X60500000Y-55000000D02*
X220500000Y-55000000D01*
X220500000Y-150000000D01*
X60500000Y-150000000D01*
X60500000Y-55000000D01*
D71*
X88100000Y-61300000D02*
X88250000Y-128725000D01*
X88250000Y-128725000D02*
X104550000Y-128675000D01*
X104603368Y-144799381D02*
X104600000Y-128600000D01*
M02*
