%TF.GenerationSoftware,KiCad,Pcbnew,10.0.3*%
%TF.CreationDate,2026-09-08T09:59:45-03:00*%
%TF.ProjectId,Placa Control Fuentes y Carga,506c6163-6120-4436-9f6e-74726f6c2046,rev?*%
%TF.SameCoordinates,Original*%
%TF.FileFunction,Soldermask,Top*%
%TF.FilePolarity,Negative*%
%FSLAX46Y46*%
G04 Gerber Fmt 4.6, Leading zero omitted, Abs format (unit mm)*
G04 Created by KiCad (PCBNEW 10.0.3) date 2026-09-08 09:59:45*
%MOMM*%
%LPD*%
G01*
G04 APERTURE LIST*
G04 Aperture macros list*
%AMRoundRect*
0 Rectangle with rounded corners*
0 $1 Rounding radius*
0 $2 $3 $4 $5 $6 $7 $8 $9 X,Y pos of 4 corners*
0 Add a 4 corners polygon primitive as box body*
4,1,4,$2,$3,$4,$5,$6,$7,$8,$9,$2,$3,0*
0 Add four circle primitives for the rounded corners*
1,1,$1+$1,$2,$3*
1,1,$1+$1,$4,$5*
1,1,$1+$1,$6,$7*
1,1,$1+$1,$8,$9*
0 Add four rect primitives between the rounded corners*
20,1,$1+$1,$2,$3,$4,$5,0*
20,1,$1+$1,$4,$5,$6,$7,0*
20,1,$1+$1,$6,$7,$8,$9,0*
20,1,$1+$1,$8,$9,$2,$3,0*%
G04 Aperture macros list end*
%ADD10C,1.600000*%
%ADD11R,2.184400X2.184400*%
%ADD12RoundRect,0.250000X-1.050000X-1.050000X1.050000X-1.050000X1.050000X1.050000X-1.050000X1.050000X0*%
%ADD13C,2.600000*%
%ADD14R,1.574800X1.574800*%
%ADD15C,1.574800*%
%ADD16C,2.000000*%
%ADD17C,6.400000*%
%ADD18C,2.500000*%
%ADD19C,1.371600*%
%ADD20RoundRect,0.102000X0.754000X-0.754000X0.754000X0.754000X-0.754000X0.754000X-0.754000X-0.754000X0*%
%ADD21C,1.712000*%
%ADD22C,1.710000*%
%ADD23R,1.625600X1.625600*%
%ADD24C,1.625600*%
%ADD25RoundRect,0.150000X0.150000X-0.875000X0.150000X0.875000X-0.150000X0.875000X-0.150000X-0.875000X0*%
%ADD26C,1.346200*%
%ADD27R,1.100000X1.800000*%
%ADD28RoundRect,0.275000X0.275000X0.625000X-0.275000X0.625000X-0.275000X-0.625000X0.275000X-0.625000X0*%
%ADD29C,3.000000*%
%ADD30RoundRect,0.249999X-0.850001X-0.850001X0.850001X-0.850001X0.850001X0.850001X-0.850001X0.850001X0*%
%ADD31C,2.200000*%
%ADD32RoundRect,0.250000X-0.550000X0.550000X-0.550000X-0.550000X0.550000X-0.550000X0.550000X0.550000X0*%
%ADD33RoundRect,0.200000X0.200000X-0.750000X0.200000X0.750000X-0.200000X0.750000X-0.200000X-0.750000X0*%
%ADD34R,1.700000X1.700000*%
%ADD35C,1.700000*%
%ADD36C,2.400000*%
%ADD37R,1.371600X1.371600*%
%ADD38RoundRect,0.249999X-0.850001X0.850001X-0.850001X-0.850001X0.850001X-0.850001X0.850001X0.850001X0*%
%ADD39RoundRect,0.250000X1.350000X-1.350000X1.350000X1.350000X-1.350000X1.350000X-1.350000X-1.350000X0*%
%ADD40C,3.200000*%
%ADD41RoundRect,0.250000X1.050000X-1.050000X1.050000X1.050000X-1.050000X1.050000X-1.050000X-1.050000X0*%
%ADD42R,1.905000X2.000000*%
%ADD43O,1.905000X2.000000*%
%ADD44RoundRect,0.275000X-0.275000X-0.625000X0.275000X-0.625000X0.275000X0.625000X-0.275000X0.625000X0*%
%ADD45RoundRect,0.250000X0.750000X1.250000X-0.750000X1.250000X-0.750000X-1.250000X0.750000X-1.250000X0*%
%ADD46O,2.000000X3.000000*%
%ADD47RoundRect,0.250000X-1.350000X1.350000X-1.350000X-1.350000X1.350000X-1.350000X1.350000X1.350000X0*%
%ADD48RoundRect,0.150000X0.150000X-0.825000X0.150000X0.825000X-0.150000X0.825000X-0.150000X-0.825000X0*%
%ADD49C,1.440000*%
%ADD50RoundRect,0.250000X-0.550000X-0.550000X0.550000X-0.550000X0.550000X0.550000X-0.550000X0.550000X0*%
%ADD51RoundRect,0.250000X0.550000X-0.550000X0.550000X0.550000X-0.550000X0.550000X-0.550000X-0.550000X0*%
%ADD52RoundRect,0.150000X0.825000X0.150000X-0.825000X0.150000X-0.825000X-0.150000X0.825000X-0.150000X0*%
%ADD53RoundRect,0.250000X0.550000X0.550000X-0.550000X0.550000X-0.550000X-0.550000X0.550000X-0.550000X0*%
%ADD54R,1.050000X1.500000*%
%ADD55O,1.050000X1.500000*%
%ADD56RoundRect,0.250000X1.050000X1.050000X-1.050000X1.050000X-1.050000X-1.050000X1.050000X-1.050000X0*%
%ADD57R,2.000000X1.905000*%
%ADD58O,2.000000X1.905000*%
%ADD59RoundRect,0.150000X-0.150000X0.825000X-0.150000X-0.825000X0.150000X-0.825000X0.150000X0.825000X0*%
%ADD60R,1.600000X1.600000*%
%ADD61O,1.600000X1.600000*%
%TA.AperFunction,Profile*%
%ADD62C,0.500000*%
%TD*%
%TA.AperFunction,Profile*%
%ADD63C,2.000000*%
%TD*%
G04 APERTURE END LIST*
D10*
%TO.C,C20*%
X166900000Y-69400000D03*
X166900000Y-66900000D03*
%TD*%
D11*
%TO.C,CR1*%
X207200000Y-126991600D03*
X207200000Y-130700000D03*
%TD*%
D12*
%TO.C,J5*%
X186620000Y-141000000D03*
D13*
X191700000Y-141000000D03*
%TD*%
D14*
%TO.C,F2*%
X202307800Y-81805400D03*
D15*
X204492200Y-71594600D03*
%TD*%
D16*
%TO.C,TP12*%
X174700000Y-100400000D03*
%TD*%
D10*
%TO.C,R10*%
X114250000Y-134200000D03*
X114250000Y-141820000D03*
%TD*%
D17*
%TO.C,H3*%
X216900000Y-58600000D03*
%TD*%
D18*
%TO.C,TP9*%
X97800000Y-124500000D03*
%TD*%
D19*
%TO.C,C23*%
X182000000Y-119700000D03*
X177000000Y-119700000D03*
%TD*%
D10*
%TO.C,R16*%
X147700000Y-60800000D03*
X147700000Y-68420000D03*
%TD*%
%TO.C,R14*%
X141700000Y-68400000D03*
X141700000Y-60780000D03*
%TD*%
D20*
%TO.C,U9*%
X149500000Y-142120000D03*
D21*
X149500000Y-139580000D03*
X149500000Y-137040000D03*
X149500000Y-134500000D03*
%TD*%
D22*
%TO.C,F3*%
X107700000Y-84050000D03*
X108900000Y-78950000D03*
%TD*%
D10*
%TO.C,R20*%
X95990000Y-91400000D03*
X103610000Y-91400000D03*
%TD*%
D23*
%TO.C,D14*%
X114700000Y-71553200D03*
D24*
X114700000Y-57049800D03*
%TD*%
D10*
%TO.C,C19*%
X197700000Y-127000000D03*
X197700000Y-129500000D03*
%TD*%
D17*
%TO.C,H4*%
X216900000Y-146400000D03*
%TD*%
D10*
%TO.C,R7*%
X141610000Y-71400000D03*
X133990000Y-71400000D03*
%TD*%
D25*
%TO.C,U8*%
X93855000Y-118950000D03*
X95125000Y-118950000D03*
X96395000Y-118950000D03*
X97665000Y-118950000D03*
X98935000Y-118950000D03*
X100205000Y-118950000D03*
X101475000Y-118950000D03*
X102745000Y-118950000D03*
X102745000Y-109650000D03*
X101475000Y-109650000D03*
X100205000Y-109650000D03*
X98935000Y-109650000D03*
X97665000Y-109650000D03*
X96395000Y-109650000D03*
X95125000Y-109650000D03*
X93855000Y-109650000D03*
%TD*%
D11*
%TO.C,CR3*%
X184091600Y-68100000D03*
X187800000Y-68100000D03*
%TD*%
D18*
%TO.C,TP10*%
X101900000Y-124500000D03*
%TD*%
D10*
%TO.C,C4*%
X133800000Y-92150000D03*
X133800000Y-89650000D03*
%TD*%
D16*
%TO.C,TP19*%
X118000000Y-120300000D03*
%TD*%
D26*
%TO.C,R24*%
X79300000Y-78800000D03*
X77500000Y-86300000D03*
%TD*%
D27*
%TO.C,Q4*%
X164500000Y-86600000D03*
D28*
X163230000Y-88670000D03*
X161960000Y-86600000D03*
%TD*%
D23*
%TO.C,D15*%
X110853200Y-87600000D03*
D24*
X96349800Y-87600000D03*
%TD*%
D18*
%TO.C,U2*%
X112475000Y-91860000D03*
X112475000Y-125360000D03*
D16*
X112100000Y-104600000D03*
X112100000Y-102060000D03*
X112100000Y-99520000D03*
X112100000Y-96980000D03*
D29*
X72095000Y-94440000D03*
X72095000Y-99520000D03*
X72095000Y-104600000D03*
X72095000Y-109680000D03*
X72095000Y-114760000D03*
X72095000Y-119840000D03*
%TD*%
D12*
%TO.C,J1*%
X74220000Y-138200000D03*
D13*
X79300000Y-138200000D03*
%TD*%
D30*
%TO.C,D11*%
X175040000Y-75400000D03*
D31*
X185200000Y-75400000D03*
%TD*%
D18*
%TO.C,TP21*%
X150500000Y-67200000D03*
%TD*%
%TO.C,TP4*%
X116200000Y-144000000D03*
%TD*%
D32*
%TO.C,C17*%
X202100000Y-127000000D03*
D10*
X202100000Y-129000000D03*
%TD*%
%TO.C,R4*%
X83650000Y-138300000D03*
X96350000Y-138300000D03*
%TD*%
%TO.C,C6*%
X95600000Y-97250000D03*
X95600000Y-94750000D03*
%TD*%
D33*
%TO.C,D12*%
X103500000Y-81800000D03*
X105400000Y-81800000D03*
X104450000Y-78800000D03*
%TD*%
D10*
%TO.C,C5*%
X194450000Y-78400000D03*
X196950000Y-78400000D03*
%TD*%
%TO.C,C8*%
X91300000Y-116200000D03*
X91300000Y-118700000D03*
%TD*%
D34*
%TO.C,JP1*%
X166800000Y-61000000D03*
D35*
X166800000Y-63540000D03*
%TD*%
D22*
%TO.C,F4*%
X100000000Y-84050000D03*
X101200000Y-78950000D03*
%TD*%
D17*
%TO.C,H2*%
X64100000Y-58600000D03*
%TD*%
D36*
%TO.C,F6*%
X190300000Y-124500000D03*
D31*
X189050000Y-130900000D03*
X191550000Y-130900000D03*
X189050000Y-127400000D03*
X191550000Y-127400000D03*
X189050000Y-121600000D03*
X191550000Y-121600000D03*
X189050000Y-118100000D03*
X191550000Y-118100000D03*
%TD*%
D37*
%TO.C,C16*%
X177500000Y-140400000D03*
D19*
X177500000Y-145400000D03*
%TD*%
D34*
%TO.C,JP3*%
X203000000Y-90800000D03*
D35*
X203000000Y-88260000D03*
%TD*%
D32*
%TO.C,C21*%
X179000000Y-127600000D03*
D10*
X179000000Y-129600000D03*
%TD*%
D18*
%TO.C,TP18*%
X92800000Y-142200000D03*
%TD*%
D16*
%TO.C,TP20*%
X118000000Y-116600000D03*
%TD*%
%TO.C,TP24*%
X141500000Y-74800000D03*
%TD*%
D38*
%TO.C,D1*%
X99300000Y-131020000D03*
D31*
X99300000Y-141180000D03*
%TD*%
D38*
%TO.C,D16*%
X190900000Y-76820000D03*
D31*
X190900000Y-86980000D03*
%TD*%
D18*
%TO.C,TP8*%
X93700000Y-124500000D03*
%TD*%
D27*
%TO.C,Q7*%
X121000000Y-60200000D03*
D28*
X119730000Y-62270000D03*
X118460000Y-60200000D03*
%TD*%
D35*
%TO.C,U4*%
X169550000Y-102900000D03*
X154225000Y-102900000D03*
X154000000Y-142300000D03*
X169300000Y-142950000D03*
%TD*%
D10*
%TO.C,R3*%
X83650000Y-134500000D03*
X96350000Y-134500000D03*
%TD*%
D39*
%TO.C,D8*%
X179200000Y-96400000D03*
D40*
X179200000Y-81160000D03*
%TD*%
D41*
%TO.C,J8*%
X211400000Y-71500000D03*
D13*
X211400000Y-66420000D03*
%TD*%
D10*
%TO.C,C24*%
X178600000Y-69800000D03*
X178600000Y-72300000D03*
%TD*%
D42*
%TO.C,Q1*%
X153660000Y-83250000D03*
D43*
X156200000Y-83250000D03*
X158740000Y-83250000D03*
%TD*%
D18*
%TO.C,TP6*%
X104000000Y-104800000D03*
%TD*%
D17*
%TO.C,H1*%
X64200000Y-146300000D03*
%TD*%
D10*
%TO.C,C1*%
X170100000Y-71700000D03*
X170100000Y-69200000D03*
%TD*%
D11*
%TO.C,CR2*%
X184000000Y-127545800D03*
X184000000Y-131254200D03*
%TD*%
D27*
%TO.C,Q6*%
X144730000Y-73170000D03*
D44*
X146000000Y-71100000D03*
X147270000Y-73170000D03*
%TD*%
D37*
%TO.C,C7*%
X128500000Y-140400000D03*
D19*
X128500000Y-145400000D03*
%TD*%
D34*
%TO.C,JP4*%
X93800000Y-84200000D03*
D35*
X96340000Y-84200000D03*
%TD*%
D45*
%TO.C,GD1*%
X108200000Y-74200000D03*
D46*
X104400000Y-74200000D03*
X100600000Y-74200000D03*
%TD*%
D41*
%TO.C,J9*%
X211400000Y-83580000D03*
D13*
X211400000Y-78500000D03*
%TD*%
D23*
%TO.C,D13*%
X94100000Y-71553200D03*
D24*
X94100000Y-57049800D03*
%TD*%
D12*
%TO.C,J6*%
X203520000Y-141000000D03*
D13*
X208600000Y-141000000D03*
%TD*%
D47*
%TO.C,D3*%
X190200000Y-96360000D03*
D40*
X190200000Y-111600000D03*
%TD*%
D41*
%TO.C,J4*%
X70400000Y-69930000D03*
D13*
X70400000Y-64850000D03*
%TD*%
D10*
%TO.C,R23*%
X166600000Y-83010000D03*
X166600000Y-75390000D03*
%TD*%
D48*
%TO.C,U7*%
X97890000Y-99700000D03*
X99160000Y-99700000D03*
X100430000Y-99700000D03*
X101700000Y-99700000D03*
X101700000Y-94750000D03*
X100430000Y-94750000D03*
X99160000Y-94750000D03*
X97890000Y-94750000D03*
%TD*%
D18*
%TO.C,TP11*%
X205500000Y-100500000D03*
%TD*%
%TO.C,TP16*%
X175000000Y-78800000D03*
%TD*%
D49*
%TO.C,RV3*%
X158880000Y-97400000D03*
X156340000Y-97400000D03*
X153800000Y-97400000D03*
%TD*%
D34*
%TO.C,JP2*%
X186000000Y-83600000D03*
D35*
X186000000Y-81060000D03*
%TD*%
D16*
%TO.C,TP14*%
X149700000Y-94200000D03*
%TD*%
D10*
%TO.C,C25*%
X196850000Y-87000000D03*
X194350000Y-87000000D03*
%TD*%
D12*
%TO.C,J10*%
X99320000Y-65800000D03*
D13*
X104400000Y-65800000D03*
X109480000Y-65800000D03*
%TD*%
D38*
%TO.C,D4*%
X163300000Y-73020000D03*
D31*
X163300000Y-83180000D03*
%TD*%
D50*
%TO.C,C14*%
X134200000Y-130200000D03*
D10*
X136200000Y-130200000D03*
%TD*%
D51*
%TO.C,C13*%
X148400000Y-130600000D03*
D10*
X148400000Y-128600000D03*
%TD*%
D36*
%TO.C,F1*%
X179200000Y-62350000D03*
D31*
X185600000Y-63600000D03*
X185600000Y-61100000D03*
X182100000Y-63600000D03*
X182100000Y-61100000D03*
X176300000Y-63600000D03*
X176300000Y-61100000D03*
X172800000Y-63600000D03*
X172800000Y-61100000D03*
%TD*%
D19*
%TO.C,C15*%
X204500000Y-119700000D03*
X199500000Y-119700000D03*
%TD*%
D27*
%TO.C,Q3*%
X144760000Y-78500000D03*
D44*
X146030000Y-76430000D03*
X147300000Y-78500000D03*
%TD*%
D10*
%TO.C,R12*%
X168600000Y-87990000D03*
X168600000Y-95610000D03*
%TD*%
D18*
%TO.C,TP26*%
X196000000Y-75100000D03*
%TD*%
D10*
%TO.C,R2*%
X183500000Y-111200000D03*
X183500000Y-103580000D03*
%TD*%
%TO.C,R11*%
X160100000Y-90100000D03*
X152480000Y-90100000D03*
%TD*%
D49*
%TO.C,RV1*%
X201100000Y-104720000D03*
X201100000Y-107260000D03*
X201100000Y-109800000D03*
%TD*%
D10*
%TO.C,R19*%
X92300000Y-91190000D03*
X92300000Y-98810000D03*
%TD*%
D47*
%TO.C,D2*%
X212400000Y-96360000D03*
D40*
X212400000Y-111600000D03*
%TD*%
D10*
%TO.C,C9*%
X91500000Y-106250000D03*
X91500000Y-108750000D03*
%TD*%
%TO.C,R21*%
X124100000Y-148110000D03*
X124100000Y-140490000D03*
%TD*%
D41*
%TO.C,J3*%
X70400000Y-86130000D03*
D13*
X70400000Y-81050000D03*
%TD*%
D50*
%TO.C,U3*%
X102200000Y-133820000D03*
D10*
X102200000Y-136360000D03*
X102200000Y-138900000D03*
X109820000Y-138900000D03*
X109820000Y-136360000D03*
X109820000Y-133820000D03*
%TD*%
%TO.C,R5*%
X162020000Y-93100000D03*
X154400000Y-93100000D03*
%TD*%
%TO.C,C12*%
X105200000Y-110100000D03*
X105200000Y-107600000D03*
%TD*%
%TO.C,R13*%
X138700000Y-60780000D03*
X138700000Y-68400000D03*
%TD*%
%TO.C,R22*%
X153700000Y-71080000D03*
X153700000Y-78700000D03*
%TD*%
%TO.C,R26*%
X181900000Y-148020000D03*
X181900000Y-140400000D03*
%TD*%
D18*
%TO.C,TP1*%
X129800000Y-135200000D03*
%TD*%
D52*
%TO.C,U6*%
X199300000Y-84500000D03*
X199300000Y-83230000D03*
X199300000Y-81960000D03*
X199300000Y-80690000D03*
X194350000Y-80690000D03*
X194350000Y-81960000D03*
X194350000Y-83230000D03*
X194350000Y-84500000D03*
%TD*%
D10*
%TO.C,R1*%
X205500000Y-111110000D03*
X205500000Y-103490000D03*
%TD*%
%TO.C,R15*%
X144700000Y-68400000D03*
X144700000Y-60780000D03*
%TD*%
D38*
%TO.C,D6*%
X172800000Y-86220000D03*
D31*
X172800000Y-96380000D03*
%TD*%
D38*
%TO.C,D7*%
X196800000Y-103620000D03*
D31*
X196800000Y-113780000D03*
%TD*%
D10*
%TO.C,C2*%
X117600000Y-138850000D03*
X117600000Y-141350000D03*
%TD*%
D18*
%TO.C,TP22*%
X169810000Y-86220000D03*
%TD*%
D53*
%TO.C,D5*%
X131710000Y-71500000D03*
D10*
X124090000Y-71500000D03*
%TD*%
D32*
%TO.C,C18*%
X162600000Y-66944888D03*
D10*
X162600000Y-68944888D03*
%TD*%
D36*
%TO.C,F5*%
X212950000Y-124400000D03*
D31*
X211700000Y-130800000D03*
X214200000Y-130800000D03*
X211700000Y-127300000D03*
X214200000Y-127300000D03*
X211700000Y-121500000D03*
X214200000Y-121500000D03*
X211700000Y-118000000D03*
X214200000Y-118000000D03*
%TD*%
D18*
%TO.C,TP5*%
X99800000Y-104750000D03*
%TD*%
D10*
%TO.C,R8*%
X156800000Y-71090000D03*
X156800000Y-78710000D03*
%TD*%
%TO.C,R18*%
X106300000Y-98610000D03*
X106300000Y-90990000D03*
%TD*%
D54*
%TO.C,Q2*%
X156300000Y-67200000D03*
D55*
X155030000Y-67200000D03*
X153760000Y-67200000D03*
%TD*%
D18*
%TO.C,TP3*%
X173400000Y-143100000D03*
%TD*%
%TO.C,TP17*%
X87500000Y-142100000D03*
%TD*%
%TO.C,TP2*%
X140100000Y-131100000D03*
%TD*%
D38*
%TO.C,D9*%
X174600000Y-103420000D03*
D31*
X174600000Y-113580000D03*
%TD*%
D10*
%TO.C,C3*%
X134100000Y-115100000D03*
X134100000Y-117600000D03*
%TD*%
D18*
%TO.C,TP25*%
X160800000Y-61200000D03*
%TD*%
D10*
%TO.C,R9*%
X158900000Y-63700000D03*
X151280000Y-63700000D03*
%TD*%
%TO.C,R6*%
X156210000Y-86300000D03*
X148590000Y-86300000D03*
%TD*%
D37*
%TO.C,C10*%
X134300000Y-136300000D03*
D19*
X134300000Y-141300000D03*
%TD*%
D37*
%TO.C,C11*%
X140000000Y-136300000D03*
D19*
X140000000Y-141300000D03*
%TD*%
D49*
%TO.C,RV2*%
X179100000Y-104620000D03*
X179100000Y-107160000D03*
X179100000Y-109700000D03*
%TD*%
D18*
%TO.C,TP7*%
X95700000Y-104800000D03*
%TD*%
D56*
%TO.C,J2*%
X198000000Y-64000000D03*
D13*
X192920000Y-64000000D03*
%TD*%
D57*
%TO.C,Q5*%
X169650000Y-76660000D03*
D58*
X169650000Y-79200000D03*
X169650000Y-81740000D03*
%TD*%
D16*
%TO.C,TP23*%
X159000000Y-87300000D03*
%TD*%
D56*
%TO.C,J7*%
X133800000Y-63800000D03*
D13*
X128720000Y-63800000D03*
%TD*%
D10*
%TO.C,C22*%
X174800000Y-130100000D03*
X174800000Y-127600000D03*
%TD*%
D18*
%TO.C,TP15*%
X114300000Y-131400000D03*
%TD*%
D10*
%TO.C,R17*%
X124100000Y-60200000D03*
X124100000Y-67820000D03*
%TD*%
D59*
%TO.C,U1*%
X176305000Y-67425000D03*
X175035000Y-67425000D03*
X173765000Y-67425000D03*
X172495000Y-67425000D03*
X172495000Y-72375000D03*
X173765000Y-72375000D03*
X175035000Y-72375000D03*
X176305000Y-72375000D03*
%TD*%
D26*
%TO.C,R25*%
X79300000Y-62600000D03*
X77500000Y-70100000D03*
%TD*%
D60*
%TO.C,U5*%
X136700000Y-120170000D03*
D61*
X136700000Y-117630000D03*
X136700000Y-115090000D03*
X136700000Y-112550000D03*
X136700000Y-110010000D03*
X136700000Y-107470000D03*
X136700000Y-104930000D03*
X136700000Y-102390000D03*
X136700000Y-99850000D03*
X136700000Y-97310000D03*
X136700000Y-94770000D03*
X136700000Y-92230000D03*
X136700000Y-89690000D03*
X136700000Y-87150000D03*
X136700000Y-84610000D03*
X121460000Y-84610000D03*
X121460000Y-87150000D03*
X121460000Y-89690000D03*
X121460000Y-92230000D03*
X121460000Y-94770000D03*
X121460000Y-97310000D03*
X121460000Y-99850000D03*
X121460000Y-102390000D03*
X121460000Y-104930000D03*
X121460000Y-107470000D03*
X121460000Y-110010000D03*
X121460000Y-112550000D03*
X121460000Y-115090000D03*
X121460000Y-117630000D03*
X121460000Y-120170000D03*
%TD*%
D38*
%TO.C,D10*%
X149800000Y-97400000D03*
D31*
X149800000Y-107560000D03*
%TD*%
D62*
X60500000Y-55000000D02*
X220500000Y-55000000D01*
X220500000Y-150000000D01*
X60500000Y-150000000D01*
X60500000Y-55000000D01*
D63*
X88100000Y-61300000D02*
X88250000Y-128725000D01*
X88250000Y-128725000D02*
X104550000Y-128675000D01*
X104603368Y-144799381D02*
X104600000Y-128600000D01*
M02*
