%TF.GenerationSoftware,KiCad,Pcbnew,10.0.3*%
%TF.CreationDate,2026-09-07T17:28:37-03:00*%
%TF.ProjectId,Placa Control Fuentes y Carga,506c6163-6120-4436-9f6e-74726f6c2046,rev?*%
%TF.SameCoordinates,Original*%
%TF.FileFunction,Other,User*%
%FSLAX46Y46*%
G04 Gerber Fmt 4.6, Leading zero omitted, Abs format (unit mm)*
G04 Created by KiCad (PCBNEW 10.0.3) date 2026-09-07 17:28:37*
%MOMM*%
%LPD*%
G01*
G04 APERTURE LIST*
%ADD10C,0.050000*%
%ADD11C,0.152400*%
%ADD12C,0.025400*%
G04 APERTURE END LIST*
%TO.C,R12*%
D10*
X167100000Y-86940000D02*
X170100000Y-86940000D01*
X170100000Y-96660000D01*
X167100000Y-96660000D01*
X167100000Y-86940000D01*
%TO.C,R11*%
X151430000Y-88600000D02*
X161150000Y-88600000D01*
X161150000Y-91600000D01*
X151430000Y-91600000D01*
X151430000Y-88600000D01*
%TO.C,Q7*%
X117000000Y-58590000D02*
X117000000Y-63650000D01*
X117000000Y-58590000D02*
X122460000Y-58590000D01*
X122460000Y-63650000D02*
X117000000Y-63650000D01*
X122460000Y-63650000D02*
X122460000Y-58590000D01*
%TO.C,R15*%
X143200000Y-59730000D02*
X146200000Y-59730000D01*
X146200000Y-69450000D01*
X143200000Y-69450000D01*
X143200000Y-59730000D01*
%TO.C,R17*%
X122600000Y-59150000D02*
X125600000Y-59150000D01*
X125600000Y-68870000D01*
X122600000Y-68870000D01*
X122600000Y-59150000D01*
%TO.C,J7*%
X125670000Y-58700000D02*
X136840000Y-58700000D01*
X136840000Y-69510000D01*
X125670000Y-69510000D01*
X125670000Y-58700000D01*
%TO.C,R16*%
X146200000Y-59750000D02*
X149200000Y-59750000D01*
X149200000Y-69470000D01*
X146200000Y-69470000D01*
X146200000Y-59750000D01*
%TO.C,R14*%
X140200000Y-59730000D02*
X143200000Y-59730000D01*
X143200000Y-69450000D01*
X140200000Y-69450000D01*
X140200000Y-59730000D01*
%TO.C,Q6*%
X148730000Y-74780000D02*
X148730000Y-69720000D01*
X148730000Y-74780000D02*
X143270000Y-74780000D01*
X143270000Y-69720000D02*
X148730000Y-69720000D01*
X143270000Y-69720000D02*
X143270000Y-74780000D01*
%TO.C,R13*%
X137200000Y-59730000D02*
X140200000Y-59730000D01*
X140200000Y-69450000D01*
X137200000Y-69450000D01*
X137200000Y-59730000D01*
%TO.C,R22*%
X152200000Y-70030000D02*
X155200000Y-70030000D01*
X155200000Y-79750000D01*
X152200000Y-79750000D01*
X152200000Y-70030000D01*
%TO.C,R23*%
X165100000Y-74340000D02*
X168100000Y-74340000D01*
X168100000Y-84060000D01*
X165100000Y-84060000D01*
X165100000Y-74340000D01*
%TO.C,CR3*%
D11*
X189146200Y-69446200D02*
X188993800Y-69446200D01*
X189146200Y-66753800D02*
X189146200Y-69446200D01*
X188993800Y-70322500D02*
X182897800Y-70322500D01*
X188993800Y-69446200D02*
X188993800Y-70322500D01*
X188993800Y-66753800D02*
X189146200Y-66753800D01*
X188993800Y-65877500D02*
X188993800Y-66753800D01*
X182897800Y-70322500D02*
X182897800Y-69446200D01*
X182897800Y-69446200D02*
X182745400Y-69446200D01*
X182897800Y-66753800D02*
X182897800Y-65877500D01*
X182897800Y-65877500D02*
X188993800Y-65877500D01*
X182745400Y-69446200D02*
X182745400Y-66753800D01*
X182745400Y-66753800D02*
X182897800Y-66753800D01*
%TO.C,C20*%
D10*
X165400000Y-65400000D02*
X168400000Y-65400000D01*
X168400000Y-70900000D01*
X165400000Y-70900000D01*
X165400000Y-65400000D01*
%TO.C,CR1*%
D11*
X204977500Y-125797800D02*
X205853800Y-125797800D01*
X204977500Y-131893800D02*
X204977500Y-125797800D01*
X205853800Y-125645400D02*
X208546200Y-125645400D01*
X205853800Y-125797800D02*
X205853800Y-125645400D01*
X205853800Y-131893800D02*
X204977500Y-131893800D01*
X205853800Y-132046200D02*
X205853800Y-131893800D01*
X208546200Y-125645400D02*
X208546200Y-125797800D01*
X208546200Y-125797800D02*
X209422500Y-125797800D01*
X208546200Y-131893800D02*
X208546200Y-132046200D01*
X208546200Y-132046200D02*
X205853800Y-132046200D01*
X209422500Y-125797800D02*
X209422500Y-131893800D01*
X209422500Y-131893800D02*
X208546200Y-131893800D01*
%TO.C,J5*%
D10*
X183580000Y-135290000D02*
X194750000Y-135290000D01*
X194750000Y-146100000D01*
X183580000Y-146100000D01*
X183580000Y-135290000D01*
%TO.C,F2*%
D11*
X201266400Y-67746500D02*
X205533600Y-67746500D01*
X201266400Y-85653500D02*
X201266400Y-67746500D01*
X205533600Y-67746500D02*
X205533600Y-85653500D01*
X205533600Y-85653500D02*
X201266400Y-85653500D01*
%TO.C,TP12*%
D10*
X176450000Y-100400000D02*
G75*
G02*
X172950000Y-100400000I-1750000J0D01*
G01*
X172950000Y-100400000D02*
G75*
G02*
X176450000Y-100400000I1750000J0D01*
G01*
%TO.C,R10*%
X112750000Y-133150000D02*
X115750000Y-133150000D01*
X115750000Y-142870000D01*
X112750000Y-142870000D01*
X112750000Y-133150000D01*
%TO.C,H3*%
X220350000Y-58600000D02*
G75*
G02*
X213450000Y-58600000I-3450000J0D01*
G01*
X213450000Y-58600000D02*
G75*
G02*
X220350000Y-58600000I3450000J0D01*
G01*
%TO.C,TP9*%
X99550000Y-124500000D02*
G75*
G02*
X96050000Y-124500000I-1750000J0D01*
G01*
X96050000Y-124500000D02*
G75*
G02*
X99550000Y-124500000I1750000J0D01*
G01*
%TO.C,C23*%
D12*
X174242200Y-117535023D02*
X177335023Y-114442200D01*
X174242200Y-121864977D02*
X174242200Y-117535023D01*
X177335023Y-114442200D02*
X181664976Y-114442200D01*
X177335023Y-124957800D02*
X174242200Y-121864977D01*
X181664976Y-114442200D02*
X184757800Y-117535023D01*
X181664976Y-124957800D02*
X177335023Y-124957800D01*
X184757800Y-117535023D02*
X184757800Y-121864977D01*
X184757800Y-121864977D02*
X181664976Y-124957800D01*
%TO.C,U9*%
D10*
X142920000Y-132370000D02*
X142920000Y-144370000D01*
X142920000Y-144370000D02*
X151020000Y-144370000D01*
X151020000Y-132370000D02*
X142920000Y-132370000D01*
X151020000Y-144370000D02*
X151020000Y-132370000D01*
%TO.C,F3*%
X106550000Y-77550000D02*
X110050000Y-77550000D01*
X110050000Y-85450000D01*
X106550000Y-85450000D01*
X106550000Y-77550000D01*
%TO.C,R20*%
X94940000Y-89900000D02*
X104660000Y-89900000D01*
X104660000Y-92900000D01*
X94940000Y-92900000D01*
X94940000Y-89900000D01*
%TO.C,D14*%
D11*
X112668000Y-60237500D02*
X113633200Y-60237500D01*
X112668000Y-68365500D02*
X112668000Y-60237500D01*
X113633200Y-55983000D02*
X115766800Y-55983000D01*
X113633200Y-60237500D02*
X113633200Y-55983000D01*
X113633200Y-68365500D02*
X112668000Y-68365500D01*
X113633200Y-72620000D02*
X113633200Y-68365500D01*
X115766800Y-55983000D02*
X115766800Y-60237500D01*
X115766800Y-60237500D02*
X116732000Y-60237500D01*
X115766800Y-68365500D02*
X115766800Y-72620000D01*
X115766800Y-72620000D02*
X113633200Y-72620000D01*
X116732000Y-60237500D02*
X116732000Y-68365500D01*
X116732000Y-68365500D02*
X115766800Y-68365500D01*
%TO.C,C19*%
D10*
X196200000Y-125500000D02*
X199200000Y-125500000D01*
X199200000Y-131000000D01*
X196200000Y-131000000D01*
X196200000Y-125500000D01*
%TO.C,H4*%
X220350000Y-146400000D02*
G75*
G02*
X213450000Y-146400000I-3450000J0D01*
G01*
X213450000Y-146400000D02*
G75*
G02*
X220350000Y-146400000I3450000J0D01*
G01*
%TO.C,R7*%
X132940000Y-69900000D02*
X142660000Y-69900000D01*
X142660000Y-72900000D01*
X132940000Y-72900000D01*
X132940000Y-69900000D01*
%TO.C,U8*%
X92900000Y-110300000D02*
X93300000Y-110300000D01*
X92900000Y-118300000D02*
X92900000Y-110300000D01*
X93300000Y-108370000D02*
X103300000Y-108370000D01*
X93300000Y-110300000D02*
X93300000Y-108370000D01*
X93300000Y-118300000D02*
X92900000Y-118300000D01*
X93300000Y-120230000D02*
X93300000Y-118300000D01*
X103300000Y-108370000D02*
X103300000Y-110300000D01*
X103300000Y-110300000D02*
X103700000Y-110300000D01*
X103300000Y-118300000D02*
X103300000Y-120230000D01*
X103300000Y-120230000D02*
X93300000Y-120230000D01*
X103700000Y-110300000D02*
X103700000Y-118300000D01*
X103700000Y-118300000D02*
X103300000Y-118300000D01*
%TO.C,TP10*%
X103650000Y-124500000D02*
G75*
G02*
X100150000Y-124500000I-1750000J0D01*
G01*
X100150000Y-124500000D02*
G75*
G02*
X103650000Y-124500000I1750000J0D01*
G01*
%TO.C,C4*%
X132300000Y-88150000D02*
X135300000Y-88150000D01*
X135300000Y-93650000D01*
X132300000Y-93650000D01*
X132300000Y-88150000D01*
%TO.C,TP19*%
X119750000Y-120300000D02*
G75*
G02*
X116250000Y-120300000I-1750000J0D01*
G01*
X116250000Y-120300000D02*
G75*
G02*
X119750000Y-120300000I1750000J0D01*
G01*
%TO.C,R24*%
D11*
X75644100Y-74549000D02*
X81155900Y-74549000D01*
X75644100Y-90551000D02*
X75644100Y-74549000D01*
X81155900Y-74549000D02*
X81155900Y-90551000D01*
X81155900Y-90551000D02*
X75644100Y-90551000D01*
%TO.C,Q4*%
D10*
X165960000Y-90050000D02*
X165960000Y-84990000D01*
X165960000Y-90050000D02*
X160500000Y-90050000D01*
X160500000Y-84990000D02*
X165960000Y-84990000D01*
X160500000Y-84990000D02*
X160500000Y-90050000D01*
%TO.C,D15*%
D11*
X95283000Y-86533200D02*
X99537500Y-86533200D01*
X95283000Y-88666800D02*
X95283000Y-86533200D01*
X99537500Y-85568000D02*
X107665500Y-85568000D01*
X99537500Y-86533200D02*
X99537500Y-85568000D01*
X99537500Y-88666800D02*
X95283000Y-88666800D01*
X99537500Y-89632000D02*
X99537500Y-88666800D01*
X107665500Y-85568000D02*
X107665500Y-86533200D01*
X107665500Y-86533200D02*
X111920000Y-86533200D01*
X107665500Y-88666800D02*
X107665500Y-89632000D01*
X107665500Y-89632000D02*
X99537500Y-89632000D01*
X111920000Y-86533200D02*
X111920000Y-88666800D01*
X111920000Y-88666800D02*
X107665500Y-88666800D01*
%TO.C,U2*%
D10*
X63975000Y-88860000D02*
X115475000Y-88860000D01*
X115475000Y-128360000D01*
X63975000Y-128360000D01*
X63975000Y-88860000D01*
%TO.C,J1*%
X71180000Y-132490000D02*
X82350000Y-132490000D01*
X82350000Y-143300000D01*
X71180000Y-143300000D01*
X71180000Y-132490000D01*
%TO.C,D11*%
X173690000Y-73800000D02*
X186550000Y-73800000D01*
X186550000Y-77000000D01*
X173690000Y-77000000D01*
X173690000Y-73800000D01*
%TO.C,TP21*%
X152250000Y-67200000D02*
G75*
G02*
X148750000Y-67200000I-1750000J0D01*
G01*
X148750000Y-67200000D02*
G75*
G02*
X152250000Y-67200000I1750000J0D01*
G01*
%TO.C,TP4*%
X117950000Y-144000000D02*
G75*
G02*
X114450000Y-144000000I-1750000J0D01*
G01*
X114450000Y-144000000D02*
G75*
G02*
X117950000Y-144000000I1750000J0D01*
G01*
%TO.C,C17*%
X204850000Y-128000000D02*
G75*
G02*
X199350000Y-128000000I-2750000J0D01*
G01*
X199350000Y-128000000D02*
G75*
G02*
X204850000Y-128000000I2750000J0D01*
G01*
%TO.C,R4*%
X82600000Y-136450000D02*
X97400000Y-136450000D01*
X97400000Y-140150000D01*
X82600000Y-140150000D01*
X82600000Y-136450000D01*
%TO.C,C6*%
X94100000Y-93250000D02*
X97100000Y-93250000D01*
X97100000Y-98750000D01*
X94100000Y-98750000D01*
X94100000Y-93250000D01*
%TO.C,D12*%
X102700000Y-77600000D02*
X106200000Y-77600000D01*
X102700000Y-83000000D02*
X102700000Y-77600000D01*
X106200000Y-77600000D02*
X106200000Y-83000000D01*
X106200000Y-83000000D02*
X102700000Y-83000000D01*
%TO.C,C5*%
X192950000Y-76900000D02*
X198450000Y-76900000D01*
X198450000Y-79900000D01*
X192950000Y-79900000D01*
X192950000Y-76900000D01*
%TO.C,C8*%
X89800000Y-114700000D02*
X92800000Y-114700000D01*
X92800000Y-120200000D01*
X89800000Y-120200000D01*
X89800000Y-114700000D01*
%TO.C,JP1*%
X165030000Y-59230000D02*
X168570000Y-59230000D01*
X168570000Y-65320000D01*
X165030000Y-65320000D01*
X165030000Y-59230000D01*
%TO.C,F4*%
X98850000Y-77550000D02*
X102350000Y-77550000D01*
X102350000Y-85450000D01*
X98850000Y-85450000D01*
X98850000Y-77550000D01*
%TO.C,H2*%
X67550000Y-58600000D02*
G75*
G02*
X60650000Y-58600000I-3450000J0D01*
G01*
X60650000Y-58600000D02*
G75*
G02*
X67550000Y-58600000I3450000J0D01*
G01*
%TO.C,F6*%
X186800000Y-114000000D02*
X193800000Y-114000000D01*
X186800000Y-135000000D02*
X186800000Y-114000000D01*
X193800000Y-114000000D02*
X193800000Y-135000000D01*
X193800000Y-135000000D02*
X186800000Y-135000000D01*
%TO.C,C16*%
D11*
X174744100Y-137146900D02*
X180255900Y-137146900D01*
X174744100Y-148653100D02*
X174744100Y-137146900D01*
X180255900Y-137146900D02*
X180255900Y-148653100D01*
X180255900Y-148653100D02*
X174744100Y-148653100D01*
%TO.C,JP3*%
D10*
X201230000Y-86480000D02*
X204770000Y-86480000D01*
X204770000Y-92570000D01*
X201230000Y-92570000D01*
X201230000Y-86480000D01*
%TO.C,C21*%
X181750000Y-128600000D02*
G75*
G02*
X176250000Y-128600000I-2750000J0D01*
G01*
X176250000Y-128600000D02*
G75*
G02*
X181750000Y-128600000I2750000J0D01*
G01*
%TO.C,TP18*%
X94550000Y-142200000D02*
G75*
G02*
X91050000Y-142200000I-1750000J0D01*
G01*
X91050000Y-142200000D02*
G75*
G02*
X94550000Y-142200000I1750000J0D01*
G01*
%TO.C,TP20*%
X119750000Y-116600000D02*
G75*
G02*
X116250000Y-116600000I-1750000J0D01*
G01*
X116250000Y-116600000D02*
G75*
G02*
X119750000Y-116600000I1750000J0D01*
G01*
%TO.C,TP24*%
X143250000Y-74800000D02*
G75*
G02*
X139750000Y-74800000I-1750000J0D01*
G01*
X139750000Y-74800000D02*
G75*
G02*
X143250000Y-74800000I1750000J0D01*
G01*
%TO.C,D1*%
X97700000Y-129670000D02*
X100900000Y-129670000D01*
X100900000Y-142530000D01*
X97700000Y-142530000D01*
X97700000Y-129670000D01*
%TO.C,D16*%
X189300000Y-75470000D02*
X192500000Y-75470000D01*
X192500000Y-88330000D01*
X189300000Y-88330000D01*
X189300000Y-75470000D01*
%TO.C,TP8*%
X95450000Y-124500000D02*
G75*
G02*
X91950000Y-124500000I-1750000J0D01*
G01*
X91950000Y-124500000D02*
G75*
G02*
X95450000Y-124500000I1750000J0D01*
G01*
%TO.C,U4*%
X151300000Y-99875000D02*
X151300000Y-145875000D01*
X151300000Y-99875000D01*
X151300000Y-99875000D02*
X172300000Y-99875000D01*
X172300000Y-145875000D01*
X151300000Y-145875000D01*
X151300000Y-99875000D01*
X172300000Y-99875000D02*
X172300000Y-145875000D01*
X172300000Y-99875000D01*
X151300000Y-145875000D02*
X172300000Y-145875000D01*
X151300000Y-145875000D01*
%TO.C,R3*%
X82600000Y-132650000D02*
X97400000Y-132650000D01*
X97400000Y-136350000D01*
X82600000Y-136350000D01*
X82600000Y-132650000D01*
%TO.C,D8*%
X174400000Y-79128000D02*
X184000000Y-79128000D01*
X184000000Y-98250000D01*
X174400000Y-98250000D01*
X174400000Y-79128000D01*
%TO.C,J8*%
X205690000Y-63370000D02*
X216500000Y-63370000D01*
X216500000Y-74540000D01*
X205690000Y-74540000D01*
X205690000Y-63370000D01*
%TO.C,C24*%
X177100000Y-68300000D02*
X180100000Y-68300000D01*
X180100000Y-73800000D01*
X177100000Y-73800000D01*
X177100000Y-68300000D01*
%TO.C,Q1*%
X150950000Y-79850000D02*
X161450000Y-79850000D01*
X161450000Y-84750000D01*
X150950000Y-84750000D01*
X150950000Y-79850000D01*
%TO.C,TP6*%
X105750000Y-104800000D02*
G75*
G02*
X102250000Y-104800000I-1750000J0D01*
G01*
X102250000Y-104800000D02*
G75*
G02*
X105750000Y-104800000I1750000J0D01*
G01*
%TO.C,H1*%
X67650000Y-146300000D02*
G75*
G02*
X60750000Y-146300000I-3450000J0D01*
G01*
X60750000Y-146300000D02*
G75*
G02*
X67650000Y-146300000I3450000J0D01*
G01*
%TO.C,C1*%
X168600000Y-67700000D02*
X171600000Y-67700000D01*
X171600000Y-73200000D01*
X168600000Y-73200000D01*
X168600000Y-67700000D01*
%TO.C,CR2*%
D11*
X181777500Y-126352000D02*
X182653800Y-126352000D01*
X181777500Y-132448000D02*
X181777500Y-126352000D01*
X182653800Y-126199600D02*
X185346200Y-126199600D01*
X182653800Y-126352000D02*
X182653800Y-126199600D01*
X182653800Y-132448000D02*
X181777500Y-132448000D01*
X182653800Y-132600400D02*
X182653800Y-132448000D01*
X185346200Y-126199600D02*
X185346200Y-126352000D01*
X185346200Y-126352000D02*
X186222500Y-126352000D01*
X185346200Y-132448000D02*
X185346200Y-132600400D01*
X185346200Y-132600400D02*
X182653800Y-132600400D01*
X186222500Y-126352000D02*
X186222500Y-132448000D01*
X186222500Y-132448000D02*
X185346200Y-132448000D01*
%TO.C,C7*%
X125744100Y-137146900D02*
X131255900Y-137146900D01*
X125744100Y-148653100D02*
X125744100Y-137146900D01*
X131255900Y-137146900D02*
X131255900Y-148653100D01*
X131255900Y-148653100D02*
X125744100Y-148653100D01*
%TO.C,JP4*%
D10*
X92030000Y-82430000D02*
X98120000Y-82430000D01*
X98120000Y-85970000D01*
X92030000Y-85970000D01*
X92030000Y-82430000D01*
%TO.C,GD1*%
X96650000Y-70950000D02*
X112150000Y-70950000D01*
X112150000Y-77450000D01*
X96650000Y-77450000D01*
X96650000Y-70950000D01*
%TO.C,J9*%
X205690000Y-75450000D02*
X216500000Y-75450000D01*
X216500000Y-86620000D01*
X205690000Y-86620000D01*
X205690000Y-75450000D01*
%TO.C,D13*%
D11*
X92068000Y-60237500D02*
X93033200Y-60237500D01*
X92068000Y-68365500D02*
X92068000Y-60237500D01*
X93033200Y-55983000D02*
X95166800Y-55983000D01*
X93033200Y-60237500D02*
X93033200Y-55983000D01*
X93033200Y-68365500D02*
X92068000Y-68365500D01*
X93033200Y-72620000D02*
X93033200Y-68365500D01*
X95166800Y-55983000D02*
X95166800Y-60237500D01*
X95166800Y-60237500D02*
X96132000Y-60237500D01*
X95166800Y-68365500D02*
X95166800Y-72620000D01*
X95166800Y-72620000D02*
X93033200Y-72620000D01*
X96132000Y-60237500D02*
X96132000Y-68365500D01*
X96132000Y-68365500D02*
X95166800Y-68365500D01*
%TO.C,J6*%
D10*
X200480000Y-135290000D02*
X211650000Y-135290000D01*
X211650000Y-146100000D01*
X200480000Y-146100000D01*
X200480000Y-135290000D01*
%TO.C,D3*%
X185400000Y-94510000D02*
X195000000Y-94510000D01*
X195000000Y-113632000D01*
X185400000Y-113632000D01*
X185400000Y-94510000D01*
%TO.C,J4*%
X64690000Y-61800000D02*
X75500000Y-61800000D01*
X75500000Y-72970000D01*
X64690000Y-72970000D01*
X64690000Y-61800000D01*
%TO.C,U7*%
X97095000Y-95025000D02*
X97335000Y-95025000D01*
X97095000Y-99425000D02*
X97095000Y-95025000D01*
X97335000Y-93525000D02*
X102255000Y-93525000D01*
X97335000Y-95025000D02*
X97335000Y-93525000D01*
X97335000Y-99425000D02*
X97095000Y-99425000D01*
X97335000Y-100925000D02*
X97335000Y-99425000D01*
X102255000Y-93525000D02*
X102255000Y-95025000D01*
X102255000Y-95025000D02*
X102495000Y-95025000D01*
X102255000Y-99425000D02*
X102255000Y-100925000D01*
X102255000Y-100925000D02*
X97335000Y-100925000D01*
X102495000Y-95025000D02*
X102495000Y-99425000D01*
X102495000Y-99425000D02*
X102255000Y-99425000D01*
%TO.C,TP11*%
X207250000Y-100500000D02*
G75*
G02*
X203750000Y-100500000I-1750000J0D01*
G01*
X203750000Y-100500000D02*
G75*
G02*
X207250000Y-100500000I1750000J0D01*
G01*
%TO.C,TP16*%
X176750000Y-78800000D02*
G75*
G02*
X173250000Y-78800000I-1750000J0D01*
G01*
X173250000Y-78800000D02*
G75*
G02*
X176750000Y-78800000I1750000J0D01*
G01*
%TO.C,RV3*%
X151320000Y-94740000D02*
X161360000Y-94740000D01*
X161360000Y-100070000D01*
X151320000Y-100070000D01*
X151320000Y-94740000D01*
%TO.C,JP2*%
X184230000Y-79280000D02*
X187770000Y-79280000D01*
X187770000Y-85370000D01*
X184230000Y-85370000D01*
X184230000Y-79280000D01*
%TO.C,TP14*%
X151450000Y-94200000D02*
G75*
G02*
X147950000Y-94200000I-1750000J0D01*
G01*
X147950000Y-94200000D02*
G75*
G02*
X151450000Y-94200000I1750000J0D01*
G01*
%TO.C,C25*%
X192850000Y-85500000D02*
X198350000Y-85500000D01*
X198350000Y-88500000D01*
X192850000Y-88500000D01*
X192850000Y-85500000D01*
%TO.C,J10*%
X96280000Y-60090000D02*
X112530000Y-60090000D01*
X112530000Y-70900000D01*
X96280000Y-70900000D01*
X96280000Y-60090000D01*
%TO.C,D4*%
X161700000Y-71670000D02*
X164900000Y-71670000D01*
X164900000Y-84530000D01*
X161700000Y-84530000D01*
X161700000Y-71670000D01*
%TO.C,C14*%
X137950000Y-130200000D02*
G75*
G02*
X132450000Y-130200000I-2750000J0D01*
G01*
X132450000Y-130200000D02*
G75*
G02*
X137950000Y-130200000I2750000J0D01*
G01*
%TO.C,C13*%
X151150000Y-129600000D02*
G75*
G02*
X145650000Y-129600000I-2750000J0D01*
G01*
X145650000Y-129600000D02*
G75*
G02*
X151150000Y-129600000I2750000J0D01*
G01*
%TO.C,F1*%
X168700000Y-58850000D02*
X189700000Y-58850000D01*
X168700000Y-65850000D02*
X168700000Y-58850000D01*
X189700000Y-58850000D02*
X189700000Y-65850000D01*
X189700000Y-65850000D02*
X168700000Y-65850000D01*
%TO.C,C15*%
D12*
X196742200Y-117535023D02*
X199835023Y-114442200D01*
X196742200Y-121864977D02*
X196742200Y-117535023D01*
X199835023Y-114442200D02*
X204164976Y-114442200D01*
X199835023Y-124957800D02*
X196742200Y-121864977D01*
X204164976Y-114442200D02*
X207257800Y-117535023D01*
X204164976Y-124957800D02*
X199835023Y-124957800D01*
X207257800Y-117535023D02*
X207257800Y-121864977D01*
X207257800Y-121864977D02*
X204164976Y-124957800D01*
%TO.C,Q3*%
D10*
X143300000Y-75050000D02*
X143300000Y-80110000D01*
X143300000Y-75050000D02*
X148760000Y-75050000D01*
X148760000Y-80110000D02*
X143300000Y-80110000D01*
X148760000Y-80110000D02*
X148760000Y-75050000D01*
%TO.C,TP26*%
X197750000Y-75100000D02*
G75*
G02*
X194250000Y-75100000I-1750000J0D01*
G01*
X194250000Y-75100000D02*
G75*
G02*
X197750000Y-75100000I1750000J0D01*
G01*
%TO.C,RV1*%
X198440000Y-102240000D02*
X203770000Y-102240000D01*
X203770000Y-112280000D01*
X198440000Y-112280000D01*
X198440000Y-102240000D01*
%TO.C,R19*%
X90800000Y-90140000D02*
X93800000Y-90140000D01*
X93800000Y-99860000D01*
X90800000Y-99860000D01*
X90800000Y-90140000D01*
%TO.C,D2*%
X207600000Y-94510000D02*
X217200000Y-94510000D01*
X217200000Y-113632000D01*
X207600000Y-113632000D01*
X207600000Y-94510000D01*
%TO.C,C9*%
X90000000Y-104750000D02*
X93000000Y-104750000D01*
X93000000Y-110250000D01*
X90000000Y-110250000D01*
X90000000Y-104750000D01*
%TO.C,R21*%
X122600000Y-139440000D02*
X125600000Y-139440000D01*
X125600000Y-149160000D01*
X122600000Y-149160000D01*
X122600000Y-139440000D01*
%TO.C,J3*%
X64690000Y-78000000D02*
X75500000Y-78000000D01*
X75500000Y-89170000D01*
X64690000Y-89170000D01*
X64690000Y-78000000D01*
%TO.C,U3*%
X101140000Y-132300000D02*
X110870000Y-132300000D01*
X110870000Y-140420000D01*
X101140000Y-140420000D01*
X101140000Y-132300000D01*
%TO.C,R5*%
X153350000Y-91600000D02*
X163070000Y-91600000D01*
X163070000Y-94600000D01*
X153350000Y-94600000D01*
X153350000Y-91600000D01*
%TO.C,C12*%
X103700000Y-106100000D02*
X106700000Y-106100000D01*
X106700000Y-111600000D01*
X103700000Y-111600000D01*
X103700000Y-106100000D01*
%TO.C,R26*%
X180400000Y-139350000D02*
X183400000Y-139350000D01*
X183400000Y-149070000D01*
X180400000Y-149070000D01*
X180400000Y-139350000D01*
%TO.C,TP1*%
X131550000Y-135200000D02*
G75*
G02*
X128050000Y-135200000I-1750000J0D01*
G01*
X128050000Y-135200000D02*
G75*
G02*
X131550000Y-135200000I1750000J0D01*
G01*
%TO.C,U6*%
X193125000Y-80135000D02*
X194625000Y-80135000D01*
X193125000Y-85055000D02*
X193125000Y-80135000D01*
X194625000Y-79895000D02*
X199025000Y-79895000D01*
X194625000Y-80135000D02*
X194625000Y-79895000D01*
X194625000Y-85055000D02*
X193125000Y-85055000D01*
X194625000Y-85295000D02*
X194625000Y-85055000D01*
X199025000Y-79895000D02*
X199025000Y-80135000D01*
X199025000Y-80135000D02*
X200525000Y-80135000D01*
X199025000Y-85055000D02*
X199025000Y-85295000D01*
X199025000Y-85295000D02*
X194625000Y-85295000D01*
X200525000Y-80135000D02*
X200525000Y-85055000D01*
X200525000Y-85055000D02*
X199025000Y-85055000D01*
%TO.C,R1*%
X204000000Y-102440000D02*
X207000000Y-102440000D01*
X207000000Y-112160000D01*
X204000000Y-112160000D01*
X204000000Y-102440000D01*
%TO.C,D7*%
X195200000Y-102270000D02*
X198400000Y-102270000D01*
X198400000Y-115130000D01*
X195200000Y-115130000D01*
X195200000Y-102270000D01*
%TO.C,C2*%
X116100000Y-137350000D02*
X119100000Y-137350000D01*
X119100000Y-142850000D01*
X116100000Y-142850000D01*
X116100000Y-137350000D01*
%TO.C,TP22*%
X171560000Y-86220000D02*
G75*
G02*
X168060000Y-86220000I-1750000J0D01*
G01*
X168060000Y-86220000D02*
G75*
G02*
X171560000Y-86220000I1750000J0D01*
G01*
%TO.C,D5*%
X123040000Y-70250000D02*
X132760000Y-70250000D01*
X132760000Y-72750000D01*
X123040000Y-72750000D01*
X123040000Y-70250000D01*
%TO.C,C18*%
X165350000Y-67944888D02*
G75*
G02*
X159850000Y-67944888I-2750000J0D01*
G01*
X159850000Y-67944888D02*
G75*
G02*
X165350000Y-67944888I2750000J0D01*
G01*
%TO.C,F5*%
X209450000Y-113900000D02*
X216450000Y-113900000D01*
X209450000Y-134900000D02*
X209450000Y-113900000D01*
X216450000Y-113900000D02*
X216450000Y-134900000D01*
X216450000Y-134900000D02*
X209450000Y-134900000D01*
%TO.C,TP5*%
X101550000Y-104750000D02*
G75*
G02*
X98050000Y-104750000I-1750000J0D01*
G01*
X98050000Y-104750000D02*
G75*
G02*
X101550000Y-104750000I1750000J0D01*
G01*
%TO.C,R8*%
X155300000Y-70040000D02*
X158300000Y-70040000D01*
X158300000Y-79760000D01*
X155300000Y-79760000D01*
X155300000Y-70040000D01*
%TO.C,R18*%
X104800000Y-89940000D02*
X107800000Y-89940000D01*
X107800000Y-99660000D01*
X104800000Y-99660000D01*
X104800000Y-89940000D01*
%TO.C,Q2*%
X157760000Y-69930000D02*
X157760000Y-65190000D01*
X157760000Y-69930000D02*
X152300000Y-69930000D01*
X152300000Y-65190000D02*
X157760000Y-65190000D01*
X152300000Y-65190000D02*
X152300000Y-69930000D01*
%TO.C,TP3*%
X175150000Y-143100000D02*
G75*
G02*
X171650000Y-143100000I-1750000J0D01*
G01*
X171650000Y-143100000D02*
G75*
G02*
X175150000Y-143100000I1750000J0D01*
G01*
%TO.C,TP17*%
X89250000Y-142100000D02*
G75*
G02*
X85750000Y-142100000I-1750000J0D01*
G01*
X85750000Y-142100000D02*
G75*
G02*
X89250000Y-142100000I1750000J0D01*
G01*
%TO.C,TP2*%
X141850000Y-131100000D02*
G75*
G02*
X138350000Y-131100000I-1750000J0D01*
G01*
X138350000Y-131100000D02*
G75*
G02*
X141850000Y-131100000I1750000J0D01*
G01*
%TO.C,D9*%
X173000000Y-102070000D02*
X176200000Y-102070000D01*
X176200000Y-114930000D01*
X173000000Y-114930000D01*
X173000000Y-102070000D01*
%TO.C,C3*%
X132600000Y-113600000D02*
X135600000Y-113600000D01*
X135600000Y-119100000D01*
X132600000Y-119100000D01*
X132600000Y-113600000D01*
%TO.C,TP25*%
X162550000Y-61200000D02*
G75*
G02*
X159050000Y-61200000I-1750000J0D01*
G01*
X159050000Y-61200000D02*
G75*
G02*
X162550000Y-61200000I1750000J0D01*
G01*
%TO.C,R9*%
X150230000Y-62200000D02*
X159950000Y-62200000D01*
X159950000Y-65200000D01*
X150230000Y-65200000D01*
X150230000Y-62200000D01*
%TO.C,R6*%
X147540000Y-84800000D02*
X157260000Y-84800000D01*
X157260000Y-87800000D01*
X147540000Y-87800000D01*
X147540000Y-84800000D01*
%TO.C,C10*%
D11*
X131544100Y-133046900D02*
X137055900Y-133046900D01*
X131544100Y-144553100D02*
X131544100Y-133046900D01*
X137055900Y-133046900D02*
X137055900Y-144553100D01*
X137055900Y-144553100D02*
X131544100Y-144553100D01*
%TO.C,C11*%
X137244100Y-133046900D02*
X142755900Y-133046900D01*
X137244100Y-144553100D02*
X137244100Y-133046900D01*
X142755900Y-133046900D02*
X142755900Y-144553100D01*
X142755900Y-144553100D02*
X137244100Y-144553100D01*
%TO.C,RV2*%
D10*
X176440000Y-102140000D02*
X181770000Y-102140000D01*
X181770000Y-112180000D01*
X176440000Y-112180000D01*
X176440000Y-102140000D01*
%TO.C,TP7*%
X97450000Y-104800000D02*
G75*
G02*
X93950000Y-104800000I-1750000J0D01*
G01*
X93950000Y-104800000D02*
G75*
G02*
X97450000Y-104800000I1750000J0D01*
G01*
%TO.C,J2*%
X189870000Y-58900000D02*
X201040000Y-58900000D01*
X201040000Y-69710000D01*
X189870000Y-69710000D01*
X189870000Y-58900000D01*
%TO.C,Q5*%
X168150000Y-73950000D02*
X173050000Y-73950000D01*
X173050000Y-84450000D01*
X168150000Y-84450000D01*
X168150000Y-73950000D01*
%TO.C,TP23*%
X160750000Y-87300000D02*
G75*
G02*
X157250000Y-87300000I-1750000J0D01*
G01*
X157250000Y-87300000D02*
G75*
G02*
X160750000Y-87300000I1750000J0D01*
G01*
%TO.C,C22*%
X173300000Y-126100000D02*
X176300000Y-126100000D01*
X176300000Y-131600000D01*
X173300000Y-131600000D01*
X173300000Y-126100000D01*
%TO.C,TP15*%
X116050000Y-131400000D02*
G75*
G02*
X112550000Y-131400000I-1750000J0D01*
G01*
X112550000Y-131400000D02*
G75*
G02*
X116050000Y-131400000I1750000J0D01*
G01*
%TO.C,U1*%
X171700000Y-67700000D02*
X171940000Y-67700000D01*
X171700000Y-72100000D02*
X171700000Y-67700000D01*
X171940000Y-66200000D02*
X176860000Y-66200000D01*
X171940000Y-67700000D02*
X171940000Y-66200000D01*
X171940000Y-72100000D02*
X171700000Y-72100000D01*
X171940000Y-73600000D02*
X171940000Y-72100000D01*
X176860000Y-66200000D02*
X176860000Y-67700000D01*
X176860000Y-67700000D02*
X177100000Y-67700000D01*
X176860000Y-72100000D02*
X176860000Y-73600000D01*
X176860000Y-73600000D02*
X171940000Y-73600000D01*
X177100000Y-67700000D02*
X177100000Y-72100000D01*
X177100000Y-72100000D02*
X176860000Y-72100000D01*
%TO.C,R25*%
D11*
X75644100Y-58349000D02*
X81155900Y-58349000D01*
X75644100Y-74351000D02*
X75644100Y-58349000D01*
X81155900Y-58349000D02*
X81155900Y-74351000D01*
X81155900Y-74351000D02*
X75644100Y-74351000D01*
%TO.C,U5*%
D10*
X138230000Y-124230000D02*
X138230000Y-80670000D01*
X138230000Y-124230000D02*
X119950000Y-124230000D01*
X119950000Y-80670000D02*
X138230000Y-80670000D01*
X119950000Y-80670000D02*
X119950000Y-124230000D01*
%TO.C,D10*%
X148200000Y-96050000D02*
X151400000Y-96050000D01*
X151400000Y-108910000D01*
X148200000Y-108910000D01*
X148200000Y-96050000D01*
%TO.C,D6*%
X171200000Y-84870000D02*
X174400000Y-84870000D01*
X174400000Y-97730000D01*
X171200000Y-97730000D01*
X171200000Y-84870000D01*
%TO.C,R2*%
X182000000Y-102530000D02*
X185000000Y-102530000D01*
X185000000Y-112250000D01*
X182000000Y-112250000D01*
X182000000Y-102530000D01*
%TD*%
M02*
